<svg xmlns="http://www.w3.org/2000/svg">
<defs>
<font id="Tofino-Book" horiz-adv-x="698" >
  <font-face 
    font-family="Tofino Book"
    font-weight="410"
    font-stretch="normal"
    units-per-em="1000"
    panose-1="2 0 0 0 0 0 0 0 0 0"
    ascent="760"
    descent="-240"
    x-height="530"
    cap-height="708"
    bbox="-165 -240 1110 1088"
    underline-thickness="50"
    underline-position="-225"
    unicode-range="U+000D-FB02"
  />
<missing-glyph horiz-adv-x="651" 
d="M601 0h-551v702h551v-702zM71 35l104 136q-48 59 -48 138q0 94 63 155q-20 28 -10 59l-109 141v-629zM461 541l108 141h-487l108 -140q17 26 54 42t80 16t80 -16t57 -43zM568 20l-107 137q-57 -59 -137 -59q-79 0 -135 58l-105 -136h484zM580 37v625l-109 -139l1 -1
q38 12 56 -1q14 -9 15 -30q2 -21 -11 -32q-10 -7 -24 -7q-15 0 -46 9q60 -63 60 -152q0 -76 -47 -136zM481 308v-1q3 -28 -7 -50t-32 -25q-16 -2 -32 -2q-35 0 -47 7q-21 12 -28 45q-1 2 -1 5q-3 10 -11 10q-6 0 -9 -10q-1 -1 -1 -5q-7 -33 -29 -45q-12 -7 -47 -7
q-17 0 -31 2q-22 3 -32.5 25.5t-7.5 49.5v1l-15 14v-13q0 -77 51 -132.5t122 -55.5q72 0 123 55.5t51 132.5q0 3 -0.5 8.5t-0.5 8.5q-7 -6 -16 -18zM396 480h-1l-10 2q-35 4 -49 14q-4 1 -12 1q-36 0 -69 -15q-16 -18 -5 -41q16 -34 79.5 -61t162.5 -22q-17 65 -66 103
q-5 0 -8 1q-15 5 -22 18zM299 304l-2 2h-1q-18 10 -66 10q-18 0 -30.5 -2t-17 -4.5t-4.5 -3.5q-2 -21 5 -40.5t24 -21.5q16 -2 30 -2q32 0 42 5q17 10 22 37q3 13 -2 20zM470 306q-5 10 -52 10q-48 0 -66 -10q-1 0 -1 -1l-2 -1q-5 -7 -2 -20q3 -26 22 -37q10 -5 41 -5
q15 0 31 2q17 2 24 22t5 40zM437 532q-17 20 -49 32t-64 12q-41 0 -75.5 -16.5t-44.5 -40.5q-9 -19 4 -39q51 40 112 41q0 12 3 20q9 21 25 25q21 5 63 -33l2 -2q7 3 15 3q3 0 9 -2zM165 325l8 -7q16 9 57 9q50 0 71 -10q23 -11 46 0q20 10 71 10q42 0 56 -9q9 12 14 16h-24
q-105 0 -175 39q-46 -44 -124 -48zM268 386q-27 20 -39 45q-7 14 -7 30q-54 -44 -67 -112q29 -1 61 10t52 27zM377 180q0 15 -15.5 25.5t-38.5 10.5t-38.5 -10.5t-15.5 -25.5q0 -16 15.5 -26.5t38.5 -10.5t38.5 10.5t15.5 26.5zM445 290l-10 -10q0 -1 0.5 -3t0.5 -4

<glyph glyph-name="fi" unicode="fi" horiz-adv-x="504" 
d="M159 0h-66v481h-73v54h73v28q0 50 5.5 82.5t21 62.5t49 44.5t84.5 14.5h50v-55h-43q-58 0 -79.5 -34.5t-21.5 -114.5v-28h128v-54h-128v-481zM423 0h-66v535h66v-535zM426 630h-67v135h67v-135z" />
    <glyph glyph-name="fl" unicode="fl" horiz-adv-x="505" 
d="M159 0h-66v481h-73v54h73v28q0 50 5.5 82.5t21 62.5t49 44.5t84.5 14.5h50v-55h-43q-58 0 -79.5 -34.5t-21.5 -114.5v-28h128v-54h-128v-481zM419 0h-66v760h66v-760z" />
    <glyph glyph-name="f_f" unicode="ff" horiz-adv-x="602" 
d="M455 0h-66v481h-230v-481h-66v481h-73v54h73v28q0 50 5.5 82.5t21 62.5t49 44.5t84.5 14.5h50v-55h-43q-58 0 -79.5 -34.5t-21.5 -114.5v-28h230v28q0 50 5.5 82.5t21 62.5t49 44.5t84.5 14.5h50v-55h-43q-58 0 -79.5 -34.5t-21.5 -114.5v-28h140v-54h-140v-481z" />
    <glyph glyph-name="f_f_i" unicode="ffi" horiz-adv-x="820" 
d="M455 0h-66v481h-230v-481h-66v481h-73v54h73v28q0 50 5.5 82.5t21 62.5t49 44.5t84.5 14.5h50v-55h-43q-58 0 -79.5 -34.5t-21.5 -114.5v-28h230v28q0 50 5.5 82.5t21 62.5t49 44.5t84.5 14.5h50v-55h-43q-58 0 -79.5 -34.5t-21.5 -114.5v-28h137v-54h-137v-481zM740 0
h-66v535h66v-535zM742 630h-67v135h67v-135z" />
    <glyph glyph-name="f_f_l" unicode="ffl" horiz-adv-x="831" 
d="M455 0h-66v481h-230v-481h-66v481h-73v54h73v28q0 50 5.5 82.5t21 62.5t49 44.5t84.5 14.5h50v-55h-43q-58 0 -79.5 -34.5t-21.5 -114.5v-28h230v28q0 50 5.5 82.5t21 62.5t49 44.5t84.5 14.5h50v-55h-43q-58 0 -79.5 -34.5t-21.5 -114.5v-28h137v-54h-137v-481zM745 0
h-66v760h66v-760z" />
    <glyph glyph-name=".notdef" horiz-adv-x="651" 
d="M601 0h-551v702h551v-702zM71 35l104 136q-48 59 -48 138q0 94 63 155q-20 28 -10 59l-109 141v-629zM461 541l108 141h-487l108 -140q17 26 54 42t80 16t80 -16t57 -43zM568 20l-107 137q-57 -59 -137 -59q-79 0 -135 58l-105 -136h484zM580 37v625l-109 -139l1 -1
q38 12 56 -1q14 -9 15 -30q2 -21 -11 -32q-10 -7 -24 -7q-15 0 -46 9q60 -63 60 -152q0 -76 -47 -136zM481 308v-1q3 -28 -7 -50t-32 -25q-16 -2 -32 -2q-35 0 -47 7q-21 12 -28 45q-1 2 -1 5q-3 10 -11 10q-6 0 -9 -10q-1 -1 -1 -5q-7 -33 -29 -45q-12 -7 -47 -7
q-17 0 -31 2q-22 3 -32.5 25.5t-7.5 49.5v1l-15 14v-13q0 -77 51 -132.5t122 -55.5q72 0 123 55.5t51 132.5q0 3 -0.5 8.5t-0.5 8.5q-7 -6 -16 -18zM396 480h-1l-10 2q-35 4 -49 14q-4 1 -12 1q-36 0 -69 -15q-16 -18 -5 -41q16 -34 79.5 -61t162.5 -22q-17 65 -66 103
q-5 0 -8 1q-15 5 -22 18zM299 304l-2 2h-1q-18 10 -66 10q-18 0 -30.5 -2t-17 -4.5t-4.5 -3.5q-2 -21 5 -40.5t24 -21.5q16 -2 30 -2q32 0 42 5q17 10 22 37q3 13 -2 20zM470 306q-5 10 -52 10q-48 0 -66 -10q-1 0 -1 -1l-2 -1q-5 -7 -2 -20q3 -26 22 -37q10 -5 41 -5
q15 0 31 2q17 2 24 22t5 40zM437 532q-17 20 -49 32t-64 12q-41 0 -75.5 -16.5t-44.5 -40.5q-9 -19 4 -39q51 40 112 41q0 12 3 20q9 21 25 25q21 5 63 -33l2 -2q7 3 15 3q3 0 9 -2zM165 325l8 -7q16 9 57 9q50 0 71 -10q23 -11 46 0q20 10 71 10q42 0 56 -9q9 12 14 16h-24
q-105 0 -175 39q-46 -44 -124 -48zM268 386q-27 20 -39 45q-7 14 -7 30q-54 -44 -67 -112q29 -1 61 10t52 27zM377 180q0 15 -15.5 25.5t-38.5 10.5t-38.5 -10.5t-15.5 -25.5q0 -16 15.5 -26.5t38.5 -10.5t38.5 10.5t15.5 26.5zM445 290l-10 -10q0 -1 0.5 -3t0.5 -4
q0 -10 -7.5 -17t-17.5 -7t-17 7t-7 17q0 14 12 21l-4 14q0 4 3 5q4 0 4 -3l3 -13q2 1 6 1l2 12q0 3 4 3q3 0 3 -4l-2 -12l5 -2l6 10q2 4 4 2q1 -1 2 -2.5t0 -2.5l-7 -11q3 -1 3 -4l10 8q1 1 2.5 1t2.5 -1q2 -4 -1 -5zM246 297l3 13q1 3 5 3q4 -2 2 -5l-3 -14q11 -6 11 -21
q0 -10 -7 -17t-17 -7t-17 7t-7 17q0 5 1 8l-11 9q-3 2 0 5q2 2 5 0l9 -8l3 4l-6 11q-1 1 -0.5 2.5t1.5 2.5q3 2 5 -2l6 -10l4 2l-2 12q0 4 4 4q3 0 4 -3l1 -12q1 0 3 -0.5t3 -0.5zM470 497q-1 -1 -4 -1q0 -7 -1 -10q1 -1 2 -1q43 -13 50 -7q4 2 2 12q0 8 -4 12q-8 6 -45 -5z
M392 508l3 7q-33 30 -42 28q-4 -2 -7 -11q-3 -8 -1 -12q5 -9 43 -14q1 -1 3 -1q1 1 1 3zM442 493q2 6 -1 10q-3 5 -9 6q-1 1 -4 1q-10 0 -13 -9q-1 -3 1 -9q4 -6 9 -7q1 0 4 -1q11 0 13 9z" />
    <glyph glyph-name=".null" horiz-adv-x="0" 
 />
    <glyph glyph-name="nonmarkingreturn" horiz-adv-x="333" 
 />
    <glyph glyph-name="NULL" horiz-adv-x="0" 
 />
    <glyph glyph-name="NULL" horiz-adv-x="0" 
 />
    <glyph glyph-name="CR" unicode="&#xd;" horiz-adv-x="213" 
 />
    <glyph glyph-name="space" unicode=" " horiz-adv-x="213" 
 />
    <glyph glyph-name="exclam" unicode="!" horiz-adv-x="238" 
d="M152 0h-66v105h66v-105zM148 165h-58l-4 543h66z" />
    <glyph glyph-name="quotedbl" unicode="&#x22;" horiz-adv-x="247" 
d="M88 573h-57l-8 184h73zM216 573h-57l-8 184h73z" />
    <glyph glyph-name="numbersign" unicode="#" horiz-adv-x="681" 
d="M410 0h-62l41 207h-178l-41 -207h-62l41 207h-105v50h115l42 210h-110v50h120l37 185h62l-37 -185h178l37 185h62l-37 -185h102v-50h-112l-42 -210h107v-50h-117zM399 257l42 210h-178l-42 -210h178z" />
    <glyph glyph-name="dollar" unicode="$" horiz-adv-x="557" 
d="M302 -58h-46v93q-104 5 -155.5 55t-51.5 151h63q0 -140 144 -150v260q-47 10 -74.5 19.5t-60 29.5t-48 53.5t-15.5 81.5q0 75 50 119.5t148 48.5v67h46v-67q194 -10 194 -186h-62q0 119 -132 130v-245q39 -8 62 -14.5t55 -21t49.5 -33t30.5 -50t13 -72.5
q0 -80 -55 -125.5t-155 -50.5v-93zM302 341v-250q70 5 107 37t37 81q0 60 -37 88t-107 44zM256 412v235q-69 -5 -100.5 -36.5t-31.5 -77.5q0 -54 34 -80t98 -41z" />
    <glyph glyph-name="percent" unicode="%" horiz-adv-x="748" 
d="M167 0h-61l460 702h61zM191 370q-155 0 -155 168q0 173 155 173q83 0 118.5 -44.5t35.5 -128.5q0 -81 -35.5 -124.5t-118.5 -43.5zM191 414q54 0 77 30.5t23 93.5q0 64 -23 96.5t-77 32.5q-100 0 -100 -129q0 -63 23.5 -93.5t76.5 -30.5zM539 -9q-155 0 -155 168
q0 173 155 173q83 0 118.5 -44.5t35.5 -128.5q0 -81 -35.5 -124.5t-118.5 -43.5zM539 35q54 0 77 30.5t23 93.5q0 64 -23 96.5t-77 32.5q-100 0 -100 -129q0 -63 23.5 -93.5t76.5 -30.5z" />
    <glyph glyph-name="ampersand" unicode="&#x26;" horiz-adv-x="683" 
d="M662 0h-79q-24 24 -61 62q-65 -79 -214 -79q-245 0 -245 217q0 49 13.5 87.5t36.5 62t43.5 37t44.5 21.5q-55 65 -55 145q0 169 189 169q179 0 179 -179h-69q0 119 -110 119q-117 0 -117 -109q0 -28 5.5 -50t24.5 -49t31 -41.5t50.5 -54t56.5 -59.5q23 -25 65 -70.5
t57 -62.5q24 65 24 187h61q0 -153 -38 -238zM305 295l-68 72q-106 -45 -106 -164q0 -159 177 -159q119 0 170 65q-93 96 -173 186z" />
    <glyph glyph-name="quotesingle" unicode="'" horiz-adv-x="111" 
d="M84 573h-57l-8 184h73z" />
    <glyph glyph-name="parenleft" unicode="(" horiz-adv-x="254" 
d="M250 -197h-66q-5 7 -13.5 21t-30 61.5t-37.5 99t-29.5 132t-13.5 162.5t10.5 162t26 135t31 98.5t26.5 64.5l10 21h66q-4 -8 -11 -23t-25 -64.5t-32 -102t-25 -132.5t-11 -159t13 -157.5t31 -133.5t36 -98.5t31 -65.5z" />
    <glyph glyph-name="parenright" unicode=")" horiz-adv-x="254" 
d="M70 -197h-66q5 8 13.5 22.5t30 63t37.5 100.5t29.5 131.5t13.5 158.5t-10.5 158t-26 134.5t-31 100t-26.5 66.5l-10 22h66l11 -22t25 -62.5t32 -100.5t25 -133t11 -163t-13 -161.5t-31 -134t-36 -97t-31 -62.5z" />
    <glyph glyph-name="asterisk" unicode="*" horiz-adv-x="336" 
d="M273 516l-48 -35l-57 80l-56 -80l-49 35l69 75l-92 20l14 56l91 -34l-6 93h58l-6 -93l92 34l13 -56l-92 -20z" />
    <glyph glyph-name="plus" unicode="+" horiz-adv-x="445" 
d="M252 124h-59v165h-163v55h163v165h59v-165h163v-55h-163v-165z" />
    <glyph glyph-name="comma" unicode="," horiz-adv-x="182" 
d="M65 -104h-60q26 51 42 120q7 31 10.5 56.5t3.5 35.5v11h70q0 -38 -17 -106q-8 -32 -20.5 -61t-20.5 -42z" />
    <glyph glyph-name="hyphen" unicode="-" horiz-adv-x="335" 
d="M275 293h-214v54h214v-54z" />
    <glyph glyph-name="period" unicode="." horiz-adv-x="163" 
d="M116 0h-69v119h69v-119z" />
    <glyph glyph-name="slash" unicode="/" horiz-adv-x="434" 
d="M107 -40h-67l310 840h67z" />
    <glyph glyph-name="zero" unicode="0" horiz-adv-x="650" 
d="M66 347q0 194 57 280.5t202 86.5t201.5 -86.5t56.5 -280.5q0 -188 -56.5 -273t-201.5 -85t-202 84.5t-57 273.5zM515 347q0 167 -44 237t-146 70t-146 -70t-44 -237q0 -162 44 -229.5t146 -67.5t146 67.5t44 229.5z" />
    <glyph glyph-name="one" unicode="1" horiz-adv-x="297" 
d="M207 0h-68v638l-139 -67v64l150 73h57v-708z" />
    <glyph glyph-name="two" unicode="2" horiz-adv-x="535" 
d="M483 4h-447v65l28 24q28 24 80 70.5t98 90.5q93 89 119 124q49 65 49 134q0 71 -39.5 107t-111.5 36q-74 0 -114.5 -36t-40.5 -107h-69q0 98 58.5 150.5t165.5 52.5q105 0 162.5 -51.5t57.5 -150.5q0 -81 -39.5 -140.5t-126.5 -143.5q-43 -42 -90.5 -83.5t-73.5 -62.5
l-26 -21q333 1 360 1v-59z" />
    <glyph glyph-name="three" unicode="3" horiz-adv-x="554" 
d="M489 639l-231 -187q121 -1 185 -62t64 -168q0 -111 -60.5 -171t-183.5 -60q-112 0 -171.5 56.5t-59.5 144.5h64q0 -58 43.5 -99t123.5 -41q88 0 131 44.5t43 125.5q0 79 -47 124t-138 45q-18 0 -39.5 -2.5t-34.5 -4.5l-12 -2v60l237 196l-337 -3v59h423v-55z" />
    <glyph glyph-name="four" unicode="4" horiz-adv-x="563" 
d="M448 0h-67v154h-352v61l349 486h70v-486h86v-61h-86v-154zM382 215l1 395l-280 -395h279z" />
    <glyph glyph-name="five" unicode="5" horiz-adv-x="583" 
d="M51 184h64q0 -53 46 -92.5t130 -39.5q86 0 131 45.5t45 127.5t-46.5 129t-129.5 47q-34 0 -63 -7.5t-45.5 -18.5t-28 -22.5t-16.5 -18.5l-4 -8l-62 1l50 308l8 59h368v-59h-314l-37 -227q59 54 159 54q109 0 169.5 -62t60.5 -175t-60.5 -173.5t-184.5 -60.5
q-118 0 -179 55t-61 138z" />
    <glyph glyph-name="six" unicode="6" horiz-adv-x="629" 
d="M537 525h-70q0 50 -38.5 90t-113.5 40q-86 0 -127.5 -61.5t-50.5 -223.5q67 94 199 94q118 0 172 -65t54 -175q0 -109 -59.5 -171.5t-187.5 -63.5q-132 0 -190.5 78t-58.5 244q0 218 58 311.5t191 93.5q60 0 105.5 -18t69.5 -47t35.5 -60.5t11.5 -65.5zM135 289
q4 -129 47.5 -184t132.5 -55q178 0 178 174q0 179 -168 179q-131 0 -190 -114z" />
    <glyph glyph-name="seven" unicode="7" horiz-adv-x="478" 
d="M193 0h-68q0 72 15 145.5t38.5 134.5t52 117.5t57.5 99t52.5 74.5t38.5 49l15 16h-384v61h459v-61q-11 -12 -29.5 -34t-66.5 -91t-84 -140t-66 -173t-30 -198z" />
    <glyph glyph-name="eight" unicode="8" horiz-adv-x="632" 
d="M429 377q16 -1 37 -11.5t44 -30t39 -56.5t16 -84q0 -205 -249 -205q-250 0 -250 205q0 47 15.5 83.5t38.5 56.5t44.5 30.5t38.5 11.5q-34 4 -74 41t-40 106q0 193 227 193q226 0 226 -193q0 -69 -39.5 -106t-73.5 -41zM497 199q0 146 -180 146q-181 0 -181 -146
q0 -148 181 -148q180 0 180 148zM474 519q0 138 -157 138q-158 0 -158 -138q0 -116 158 -116q157 0 157 116z" />
    <glyph glyph-name="nine" unicode="9" horiz-adv-x="629" 
d="M75 179h70q0 -50 42 -89.5t126 -39.5q59 0 94 21t56 78.5t27 163.5q-67 -95 -198 -95q-116 0 -171 70t-55 188q0 112 60.5 176t186.5 64q132 1 190.5 -79t58.5 -258q0 -215 -56.5 -302.5t-192.5 -87.5q-65 0 -114 18.5t-74.5 48t-37.5 60.5t-12 63zM493 386
q-1 150 -44.5 209.5t-135.5 59.5q-178 0 -178 -179q0 -95 42 -146t126 -51q132 0 190 107z" />
    <glyph glyph-name="colon" unicode=":" horiz-adv-x="189" 
d="M129 0h-69v119h69v-119zM129 351h-69v119h69v-119z" />
    <glyph glyph-name="semicolon" unicode=";" horiz-adv-x="203" 
d="M69 -104h-60q26 51 42 120q7 31 10.5 56.5t3.5 35.5v11h70q0 -38 -17 -106q-8 -32 -20.5 -61t-20.5 -42zM138 351h-69v118h69v-118z" />
    <glyph glyph-name="less" unicode="&#x3c;" horiz-adv-x="454" 
d="M419 144l-386 141v54l386 141v-61l-328 -107l328 -107v-61z" />
    <glyph glyph-name="equal" unicode="=" horiz-adv-x="465" 
d="M423 353h-380v57h380v-57zM423 202h-380v56h380v-56z" />
    <glyph glyph-name="greater" unicode="&#x3e;" horiz-adv-x="454" 
d="M422 285l-386 -141v61l327 107l-327 107v61l386 -141v-54z" />
    <glyph glyph-name="question" unicode="?" horiz-adv-x="458" 
d="M243 0h-66v105h66v-105zM241 165h-62v35q0 45 11.5 79.5t29 54t38 40l38 38t29 46.5t11.5 66q0 137 -126 137q-125 0 -125 -152h-67q0 212 194 212q99 0 145 -50.5t46 -139.5q0 -44 -12 -79t-30 -55.5t-39 -42t-39 -39.5t-30 -48t-12 -67v-35z" />
    <glyph glyph-name="at" unicode="@" horiz-adv-x="868" 
d="M618 -45v-46q-76 -28 -183 -28q-102 0 -176 29.5t-117 84.5t-62.5 124.5t-19.5 157.5t19.5 159.5t62 129t117 89t176.5 31.5t176 -31.5t116 -89t61.5 -129t19.5 -159.5q0 -136 -33.5 -197t-102.5 -61q-94 0 -113 107q-47 -73 -145 -73q-92 0 -132.5 58t-40.5 167
q0 227 173 227q90 0 140 -82v23l7 51h54v-301q0 -70 14.5 -101.5t49.5 -31.5q19 0 32.5 8.5t25.5 31t18 66t6 108.5q0 79 -17 143t-53.5 115.5t-101.5 80t-154 28.5t-153.5 -28.5t-100.5 -80t-53 -115.5t-17 -143t16 -140.5t52 -111t101 -76t156 -26.5q117 0 182 32z
M554 189v170q-15 39 -47 69t-81 30q-122 0 -122 -180q0 -178 122 -178q51 0 83 26t45 63z" />
    <glyph glyph-name="A" unicode="A" horiz-adv-x="628" 
d="M618 0h-72l-71 191h-327l-70 -191h-69l272 708h67zM451 255l-140 376l-139 -376h279z" />
    <glyph glyph-name="B" unicode="B" horiz-adv-x="652" 
d="M337 -3h-247v714h249q132 0 184.5 -46.5t52.5 -133.5q0 -65 -24.5 -104.5t-92.5 -56.5q78 -18 108 -62.5t30 -115.5q0 -50 -9 -82.5t-35.5 -60t-79.5 -40t-136 -12.5zM158 55h179q114 0 152.5 31.5t38.5 111.5q0 74 -42.5 109t-148.5 35h-179v-287zM158 398l179 -1
q99 0 135 30.5t36 97.5q0 66 -40 97t-131 31h-179v-255z" />
    <glyph glyph-name="C" unicode="C" horiz-adv-x="659" 
d="M535 228h67q-8 -245 -257 -245q-155 0 -220 92.5t-65 277.5t65 278.5t220 93.5q254 0 259 -253h-67q-4 98 -51 145t-141 47q-118 0 -167.5 -74.5t-49.5 -236.5q0 -161 49.5 -235t167.5 -74q92 0 139 45t51 139z" />
    <glyph glyph-name="D" unicode="D" horiz-adv-x="676" 
d="M268 -3h-178v714h178q103 0 170 -19t106.5 -64t55.5 -110t16 -165q0 -101 -16 -166.5t-56.5 -109t-106.5 -62t-169 -18.5zM158 57h112q152 0 211 53q36 33 51 91t15 152q0 176 -59 238q-59 60 -218 60h-112v-594z" />
    <glyph glyph-name="E" unicode="E" horiz-adv-x="568" 
d="M542 0h-452v708h447v-61h-379v-249h329v-59h-329v-278h384v-61z" />
    <glyph glyph-name="F" unicode="F" horiz-adv-x="541" 
d="M158 0h-68v708h441v-61h-373v-263h323v-61h-323v-323z" />
    <glyph glyph-name="G" unicode="G" horiz-adv-x="670" 
d="M537 105v180h-150v58h214v-261q0 -5 -9 -16t-29.5 -25.5t-49 -27t-73 -21.5t-95.5 -9q-155 0 -220 91.5t-65 277.5q0 187 65 280t220 93q129 0 193.5 -64.5t64.5 -170.5h-67q-1 78 -50.5 126t-140.5 48q-117 0 -167 -75.5t-50 -236.5q0 -160 51 -234t170 -74
q55 0 101.5 13t66.5 27t20 21z" />
    <glyph glyph-name="H" unicode="H" horiz-adv-x="697" 
d="M607 0h-68v335h-381v-335h-68v707l68 1v-308h381v308h68v-708z" />
    <glyph glyph-name="I" unicode="I" horiz-adv-x="248" 
d="M158 0h-68v708h68v-708z" />
    <glyph glyph-name="J" unicode="J" horiz-adv-x="384" 
d="M65 0h-58v66h58q109 0 141 42.5t32 176.5l-1 417h68l2 -417q0 -57 -3 -95t-12 -72.5t-25.5 -54.5t-43.5 -35.5t-65.5 -21.5t-92.5 -6z" />
    <glyph glyph-name="K" unicode="K" horiz-adv-x="602" 
d="M593 0h-77l-246 343l-112 -131v-212h-68v708h68v-417l345 417h81l-272 -316z" />
    <glyph glyph-name="L" unicode="L" horiz-adv-x="502" 
d="M485 0h-395v708h68v-645h327v-63z" />
    <glyph glyph-name="M" unicode="M" horiz-adv-x="848" 
d="M756 0h-66l5 638l-245 -640h-68l-235 640l4 -638h-61v702h103l229 -629l236 629h100z" />
    <glyph glyph-name="N" unicode="N" horiz-adv-x="718" 
d="M628 -2h-59v2l-15 -2l-403 618l5 -616h-66l3 708h58v-3l17 3l400 -614l-6 614h66v-710z" />
    <glyph glyph-name="O" unicode="O" 
d="M60 353q0 186 65.5 279t223.5 93t223.5 -93t65.5 -279q0 -185 -65.5 -277.5t-223.5 -92.5t-223.5 92t-65.5 278zM569 353q0 161 -50.5 236t-170.5 75t-170 -75t-50 -236t50 -235t170 -74t170.5 74t50.5 235z" />
    <glyph glyph-name="P" unicode="P" horiz-adv-x="638" 
d="M158 -1h-68v712h249q139 0 200 -48.5t61 -178.5t-61 -178.5t-202 -48.5h-179v-258zM158 319h179q109 0 150 35q44 38 44 130q0 77 -31 116q-23 30 -63 40t-100 10h-179v-331z" />
    <glyph glyph-name="Q" unicode="Q" 
d="M622 -100l-129 111q-59 -28 -144 -28q-158 0 -223.5 92t-65.5 278t65.5 279t223.5 93t223.5 -93t65.5 -279q0 -229 -98 -312l122 -95zM348 44q120 0 170.5 74t50.5 235t-50.5 236t-170.5 75t-170 -75t-50 -236t50 -235t170 -74z" />
    <glyph glyph-name="R" unicode="R" horiz-adv-x="656" 
d="M617 0h-78l-147 283q-17 -1 -54 -1h-179v-282h-69v710h250q142 0 199.5 -46.5t57.5 -167.5q0 -93 -32 -140t-105 -64zM159 344l179 -1q60 0 97.5 8t60.5 34q32 37 32 111q0 76 -34 113q-39 41 -156 41h-179v-306z" />
    <glyph glyph-name="S" unicode="S" horiz-adv-x="625" 
d="M562 520h-66q0 59 -43.5 101.5t-140.5 43.5q-176 1 -176 -128q0 -52 33 -83.5t82 -42.5t107 -25.5t107 -31.5t82 -61.5t33 -114.5q0 -95 -67 -145.5t-199 -49.5q-265 2 -265 229h66q0 -79 50.5 -123t146.5 -45q102 -1 150 35t48 97q0 48 -24.5 79t-63.5 45.5t-86.5 24.5
t-94.5 22.5t-86 32t-63.5 60t-24.5 99.5q0 89 59.5 138t183.5 48q128 -1 190 -55.5t62 -149.5z" />
    <glyph glyph-name="T" unicode="T" horiz-adv-x="545" 
d="M302 0h-68l3 645h-223v63h517v-63h-226z" />
    <glyph glyph-name="U" unicode="U" horiz-adv-x="689" 
d="M542 346v362h70v-362q0 -187 -58 -275t-210 -88t-209.5 88t-57.5 275v362h68v-362q0 -163 42.5 -232.5t156.5 -69.5q113 0 155.5 69.5t42.5 232.5z" />
    <glyph glyph-name="V" unicode="V" horiz-adv-x="596" 
d="M331 0h-67l-261 708h75l221 -621l222 621h71z" />
    <glyph glyph-name="W" unicode="W" horiz-adv-x="950" 
d="M726 0h-71l-183 612l-176 -612h-68l-219 708h75l178 -625l176 625h70l187 -629l174 629h71z" />
    <glyph glyph-name="X" unicode="X" horiz-adv-x="613" 
d="M600 0h-78l-219 306l-219 -306h-75l257 358l-250 350h78l214 -300l216 300h75l-253 -353z" />
    <glyph glyph-name="Y" unicode="Y" horiz-adv-x="587" 
d="M333 0h-69v271l-255 437h79l211 -369l202 369h76l-244 -435v-273z" />
    <glyph glyph-name="Z" unicode="Z" horiz-adv-x="555" 
d="M528 4h-505v67l429 573h-404v60h476v-68l-429 -572h433v-60z" />
    <glyph glyph-name="bracketleft" unicode="[" horiz-adv-x="305" 
d="M295 -197h-215v957h215v-61h-149v-836h149v-60z" />
    <glyph glyph-name="backslash" unicode="\" horiz-adv-x="457" 
d="M417 -40h-67l-310 840h67z" />
    <glyph glyph-name="bracketright" unicode="]" horiz-adv-x="305" 
d="M225 -197h-215v60h149v836h-149v61h215v-957z" />
    <glyph glyph-name="asciicircum" unicode="^" horiz-adv-x="383" 
d="M339 468h-57l-92 203l-93 -203h-57l125 268h49z" />
    <glyph glyph-name="underscore" unicode="_" horiz-adv-x="530" 
d="M469 0h-408v53h408v-53z" />
    <glyph glyph-name="grave" unicode="`" horiz-adv-x="356" 
d="M201 629h-61l-87 138h76z" />
    <glyph glyph-name="a" unicode="a" horiz-adv-x="576" 
d="M502 1h-57l-11 80q-52 -91 -196 -91q-97 0 -139 38.5t-42 118.5q0 59 25 93q18 24 49 38.5t70.5 19.5t89.5 7t104 0h31q-1 69 -7 104.5t-26 55.5q-29 29 -105 29q-45 0 -76 -11.5t-45.5 -30.5t-20.5 -37.5t-6 -38.5h-60q0 28 7 53t26.5 53t63.5 45t109 17q112 0 158 -43
q28 -26 37.5 -67.5t10.5 -107.5v-61v-130zM426 152v107q-162 0 -204 -7q-84 -14 -98 -73q-4 -16 -4 -34q0 -107 130 -107q69 0 116 30t60 84z" />
    <glyph glyph-name="b" unicode="b" horiz-adv-x="606" 
d="M137 0h-56l9 140v620h66v-308q68 92 184 92q210 0 210 -278q0 -275 -210 -275q-136 0 -191 97zM156 378v-207q12 -50 54.5 -88t118.5 -38q153 0 153 221q0 224 -153 224q-36 0 -67 -12t-52 -31t-33.5 -35.5t-20.5 -33.5z" />
    <glyph glyph-name="c" unicode="c" horiz-adv-x="557" 
d="M439 171h67q-2 -84 -57.5 -133t-162.5 -49q-126 0 -178 72t-52 206t52 206t178 72q109 0 163 -52.5t56 -147.5h-65q-1 70 -41 108t-113 38q-88 0 -125.5 -56.5t-37.5 -167.5q0 -113 37.5 -168t125.5 -55q71 0 111.5 34t41.5 93z" />
    <glyph glyph-name="d" unicode="d" horiz-adv-x="606" 
d="M525 0h-57l-12 88q-54 -97 -190 -97q-210 0 -210 275q0 278 210 278q66 0 112 -28t72 -63v307h66v-620zM450 172v198q-60 120 -174 120q-152 0 -152 -224q0 -221 152 -221q77 0 119.5 38.5t54.5 88.5z" />
    <glyph glyph-name="e" unicode="e" horiz-adv-x="573" 
d="M445 161h68q0 -18 -5 -38t-20.5 -44.5t-39.5 -44t-66 -32.5t-95 -13q-124 0 -177.5 68t-53.5 208q0 141 53.5 211t177.5 70q117 0 173.5 -65t56.5 -210h-66l-328 1v-8q0 -52 7 -90t24.5 -69.5t50.5 -47.5t82 -16q44 0 77 13t49.5 33t24 38.5t7.5 35.5zM125 321h324
q-8 88 -45.5 131t-116.5 43q-80 0 -117 -45.5t-45 -128.5z" />
    <glyph glyph-name="f" unicode="f" horiz-adv-x="307" 
d="M159 0h-66v481h-73v54h73v28q0 50 5.5 82.5t21 62.5t49 44.5t84.5 14.5h50v-55h-43q-58 0 -79.5 -34.5t-21.5 -114.5v-28h140v-54h-140v-481z" />
    <glyph glyph-name="g" unicode="g" horiz-adv-x="599" 
d="M450 -1v79q-57 -87 -184 -87q-210 0 -210 275q0 278 210 278q70 0 117.5 -32t71.5 -68l12 91h57l-8 -140v-396q0 -43 -2.5 -69.5t-14.5 -62.5t-35.5 -56.5t-68.5 -35.5t-110 -15q-136 0 -184 90q-21 41 -21 94l62 1q0 -14 2 -27.5t10.5 -34t23 -35t43 -25.5t67.5 -11
q81 0 120 34q26 23 34 59.5t8 93.5zM450 172v204q-11 23 -28 45t-57 45.5t-89 23.5q-152 0 -152 -224q0 -221 152 -221q77 0 119.5 38.5t54.5 88.5z" />
    <glyph glyph-name="h" unicode="h" horiz-adv-x="603" 
d="M521 0h-66q1 293 1 313q0 89 -29 131.5t-103 42.5q-39 0 -71.5 -15.5t-54 -41t-32.5 -43.5t-19 -37v-350h-66v760h64l2 -331q24 43 70.5 79.5t117.5 36.5q99 0 143 -50.5t44 -176.5z" />
    <glyph glyph-name="i" unicode="i" horiz-adv-x="224" 
d="M144 0h-66v535h66v-535zM146 630h-67v123h67v-123z" />
    <glyph glyph-name="j" unicode="j" horiz-adv-x="243" 
d="M-27 -188v57q30 0 50 3t33.5 13t20.5 19.5t10.5 32.5t4 40.5t0.5 55.5v502h66v-502q0 -47 -2 -75.5t-8.5 -56t-18.5 -42.5t-33 -27t-50.5 -16t-72.5 -4zM159 630h-67v123h67v-123z" />
    <glyph glyph-name="k" unicode="k" horiz-adv-x="510" 
d="M507 0h-75l-198 277l-82 -87v-190h-66v760h66v-497l246 272h80l-201 -213z" />
    <glyph glyph-name="l" unicode="l" horiz-adv-x="239" 
d="M152 0h-66v760h66v-760z" />
    <glyph glyph-name="m" unicode="m" horiz-adv-x="931" 
d="M849 0h-64v313q0 89 -26.5 131.5t-93.5 42.5q-59 0 -98.5 -38.5t-61.5 -84.5q2 -28 2 -46l-1 -318h-63v313q0 89 -26.5 131.5t-93.5 42.5q-35 0 -66 -16t-51 -41.5t-31 -44t-19 -36.5v-349h-66v387l-9 148h56l14 -114q12 24 31.5 48.5t61.5 50t90 25.5q66 0 106 -27.5
t56 -91.5q22 42 68 80.5t112 38.5q89 0 131.5 -51t42.5 -176z" />
    <glyph glyph-name="n" unicode="n" horiz-adv-x="603" 
d="M521 0h-66q1 293 1 313q0 89 -29 131.5t-103 42.5q-109 0 -168 -118v-369h-66v387l-9 148h56l12 -102q25 43 71.5 77.5t114.5 34.5q99 0 143 -50.5t44 -176.5z" />
    <glyph glyph-name="o" unicode="o" horiz-adv-x="582" 
d="M290 -11q-129 0 -181.5 71.5t-52.5 205.5q0 65 11.5 114t37 87.5t72.5 58.5t113 20q129 1 182 -72t53 -208q0 -134 -52.5 -205.5t-182.5 -71.5zM291 43q92 0 129.5 54.5t37.5 168.5t-38 170t-129 56t-129 -56t-38 -170t37.5 -168.5t129.5 -54.5z" />
    <glyph glyph-name="p" unicode="p" horiz-adv-x="606" 
d="M157 -240h-67v637l-9 138h56l13 -97q23 38 71 72t119 34q210 0 210 -278q0 -275 -210 -275q-129 0 -184 86zM156 372v-202q12 -49 54.5 -87t118.5 -38q153 0 153 221q0 224 -153 224q-36 0 -67 -12.5t-52 -33t-33 -37.5t-21 -35z" />
    <glyph glyph-name="q" unicode="q" horiz-adv-x="606" 
d="M516 -240h-66v318q-57 -87 -184 -87q-210 0 -210 275q0 278 210 278q69 0 116.5 -31t71.5 -67l14 89h57l-9 -121v-654zM450 172v204q-11 23 -28 45t-57 45.5t-89 23.5q-152 0 -152 -224q0 -221 152 -221q77 0 119.5 38.5t54.5 88.5z" />
    <glyph glyph-name="r" unicode="r" horiz-adv-x="369" 
d="M156 0h-66v384l-9 151h56l14 -116q6 19 17.5 37t32.5 40.5t58.5 36t84.5 13.5v-61q-40 0 -73.5 -13t-52.5 -31t-33.5 -42t-20 -40t-8.5 -31v-328z" />
    <glyph glyph-name="s" unicode="s" horiz-adv-x="523" 
d="M466 382h-60q0 111 -141 112q-77 1 -109 -26t-32 -67q0 -42 36.5 -64.5t89 -32t105 -22t89 -47t36.5 -95.5q0 -152 -219 -151q-215 3 -215 177h60q0 -123 155 -125q152 -1 152 95q0 39 -26 62.5t-65.5 31.5t-85.5 19t-85.5 23.5t-66.5 45t-27 83.5q0 68 52.5 106.5
t153.5 37.5q203 -1 203 -163z" />
    <glyph glyph-name="t" unicode="t" horiz-adv-x="332" 
d="M309 -2h-57q-51 0 -83.5 15t-47 46t-19 61.5t-4.5 77.5v283h-68v54h68v155l66 13v-168h140v-54h-140v-283q0 -75 19 -110t76 -35h50v-55z" />
    <glyph glyph-name="u" unicode="u" horiz-adv-x="590" 
d="M515 0h-57l-14 114q-20 -43 -68 -84t-121 -41q-97 0 -141.5 50.5t-44.5 173.5l1 322h65v-313q0 -88 28.5 -131t101.5 -43q38 0 70.5 16t53.5 41.5t32 43.5t19 36v350h66v-387z" />
    <glyph glyph-name="v" unicode="v" horiz-adv-x="502" 
d="M288 0h-71l-209 535h74l173 -471l168 471h71z" />
    <glyph glyph-name="w" unicode="w" horiz-adv-x="746" 
d="M574 0h-63l-137 452l-131 -452h-64l-173 535h69l137 -461l133 461h62l136 -460l133 460h65z" />
    <glyph glyph-name="x" unicode="x" horiz-adv-x="481" 
d="M469 0h-76l-157 218l-157 -218h-73l195 267l-188 268h76l154 -222l159 222h73l-197 -272z" />
    <glyph glyph-name="y" unicode="y" horiz-adv-x="502" 
d="M216 -219h-61l78 219h-19l-206 535h75l171 -476l169 476h71z" />
    <glyph glyph-name="z" unicode="z" horiz-adv-x="443" 
d="M414 5h-390v54h1l-1 11l326 407l-316 -1v54h380v-53h-1l1 -12l-326 -406l326 1v-55z" />
    <glyph glyph-name="braceleft" unicode="{" horiz-adv-x="353" 
d="M343 -128v-61q-90 0 -133.5 17t-56 49.5t-12.5 101.5q0 9 -0.5 92.5t-0.5 130.5q0 32 -16.5 44t-70.5 12v56q54 0 70.5 11.5t16.5 43.5v228q0 68 13 100t56 48t134 16v-61q-88 0 -112.5 -22.5t-24.5 -92.5q0 -10 -0.5 -89.5t-0.5 -126.5q0 -66 -50 -83q51 -20 51 -84
q0 -6 0.5 -97t0.5 -119q0 -70 24 -92t112 -22z" />
    <glyph glyph-name="bar" unicode="|" horiz-adv-x="231" 
d="M145 -197h-59v1017h59v-1017z" />
    <glyph glyph-name="braceright" unicode="}" horiz-adv-x="353" 
d="M10 -189v61q88 0 112 22t24 92q0 28 0.5 119t0.5 97q0 29 12.5 49.5t21.5 26.5t17 8l-7.5 2.5t-12.5 7.5t-14 14.5t-11 24t-5 34.5q0 33 -0.5 118t-0.5 98q0 70 -24.5 92.5t-112.5 22.5v61q91 0 134 -16t56 -48t13 -100v-228q0 -32 16.5 -43.5t70.5 -11.5v-56
q-54 0 -70.5 -12t-16.5 -44q0 -42 -0.5 -127.5t-0.5 -95.5q0 -69 -12.5 -101.5t-56 -49.5t-133.5 -17z" />
    <glyph glyph-name="asciitilde" unicode="~" horiz-adv-x="463" 
d="M388 356h45q0 -44 -24.5 -78t-86.5 -34q-47 0 -96 27.5t-86 27.5q-32 0 -48.5 -19.5t-16.5 -35.5h-45q0 44 24.5 78t85.5 34q47 0 96 -27.5t86 -27.5q32 0 49 19.5t17 35.5z" />
    <glyph glyph-name="uni00A0" unicode="&#xa0;" horiz-adv-x="213" 
 />
    <glyph glyph-name="exclamdown" unicode="&#xa1;" horiz-adv-x="238" 
d="M152 -173h-66l4 543h58zM152 430h-66v105h66v-105z" />
    <glyph glyph-name="cent" unicode="&#xa2;" horiz-adv-x="557" 
d="M311 -24h-53v91q-110 8 -156 78.5t-46 197.5q0 126 46 197.5t156 80.5v85h53v-85q97 -7 144.5 -58.5t49.5 -141.5h-65q-2 64 -35 101.5t-94 43.5v-445q60 6 93.5 39.5t34.5 86.5h67q-2 -79 -51 -127t-144 -54v-90zM258 121v445q-72 -9 -103.5 -64.5t-31.5 -158.5
q0 -104 31 -158.5t104 -63.5z" />
    <glyph glyph-name="sterling" unicode="&#xa3;" horiz-adv-x="508" 
d="M468 -4h-438v58q4 1 11 3.5t25 14t31.5 26t24.5 42t11 59.5q0 35 -7 75h-96v52h84q-3 11 -12.5 43t-14 48t-8.5 44t-4 55q0 86 54 139t147 53q97 0 149 -53.5t52 -142.5h-69q0 66 -35 104.5t-97 38.5q-60 0 -95.5 -38t-35.5 -102q0 -30 5 -58t18 -72.5t17 -58.5h163v-52
h-153q6 -34 6 -75q0 -97 -82 -145h349v-58z" />
    <glyph glyph-name="currency" unicode="&#xa4;" horiz-adv-x="667" 
d="M570 47l-72 71q-58 -50 -163 -50q-107 0 -163 50l-74 -74l-41 41l78 77q-35 59 -35 161q0 98 32 157l-74 75l40 41l69 -70q59 55 168 56q101 0 159 -48l70 70l41 -40l-74 -74q39 -63 39 -167q0 -98 -35 -160l76 -75zM335 129q167 0 167 194q0 198 -167 198
q-166 0 -166 -198q0 -194 166 -194z" />
    <glyph glyph-name="yen" unicode="&#xa5;" horiz-adv-x="547" 
d="M313 0h-69v184h-114v41h114v65l-1 1h-113v41h90l-217 376h79l197 -351l190 351h74l-207 -376h88v-41h-111v-1v-65h111v-41h-111v-184z" />
    <glyph glyph-name="brokenbar" unicode="&#xa6;" horiz-adv-x="231" 
d="M145 -180h-59v425h59v-425zM145 395h-59v425h59v-425z" />
    <glyph glyph-name="section" unicode="&#xa7;" horiz-adv-x="532" 
d="M46 152h60q0 -62 37.5 -92t120.5 -30q79 0 117 26t38 69q0 34 -20 55.5t-52.5 31.5t-71 17.5t-77.5 17t-71.5 24t-52.5 45t-20 74.5q0 78 66 127q-62 37 -62 114q0 68 51 106t157 38q111 0 159.5 -39.5t48.5 -120.5h-60q0 53 -30 81t-116 28q-143 0 -143 -93
q0 -43 37.5 -66t91 -31.5t107 -20.5t91 -47t37.5 -96q0 -82 -68 -125q64 -39 64 -116q0 -151 -221 -151q-113 0 -165.5 42t-52.5 132zM174 494q-53 -38 -53 -104q0 -28 14.5 -47t42 -29.5t55 -16.5t67.5 -13.5t65 -15.5q58 39 58 98q0 29 -14.5 49t-43 31.5t-56.5 18
t-69 14.5t-66 15z" />
    <glyph glyph-name="dieresis" unicode="&#xa8;" horiz-adv-x="411" 
d="M139 630h-67v123h67v-123zM290 630h-67v123h67v-123z" />
    <glyph glyph-name="copyright" unicode="&#xa9;" horiz-adv-x="795" 
d="M397 -12q-74 0 -132.5 19t-96.5 52t-62.5 79.5t-35 98t-10.5 111.5q0 61 10.5 113t35.5 99t62.5 80.5t96 53t132.5 19.5q93 0 161 -29t105.5 -81.5t54.5 -115t17 -139.5q0 -76 -17 -138t-54.5 -113.5t-105.5 -80t-161 -28.5zM397 28q80 0 138.5 26t90.5 72t47 101t15 121
q0 67 -15 122.5t-47 102.5t-90.5 73.5t-138.5 26.5t-138 -26.5t-90 -73.5t-47 -102.5t-15 -122.5q0 -66 14.5 -121t47 -101t90.5 -72t138 -26zM493 282h61q-1 -145 -154 -145q-93 0 -133.5 53.5t-40.5 160.5q0 108 40.5 161.5t133.5 53.5q153 0 156 -149h-62q-1 49 -26 74.5
t-68 25.5q-59 0 -85 -39.5t-26 -126.5q0 -84 26 -124t85 -40q42 0 66.5 24t26.5 71z" />
    <glyph glyph-name="ordfeminine" unicode="&#xaa;" horiz-adv-x="400" 
d="M359 361h-53l-9 57q-32 -65 -131 -65q-71 0 -101.5 27.5t-30.5 84.5q0 32 12 53t27.5 32t52 16.5t61.5 6t82 0.5h22q-1 75 -16 101.5t-72 26.5q-95 0 -95 -78h-57q0 120 149 120q112 0 139 -61q14 -31 14 -124v-12v-89zM291 462v77q-115 1 -145 -7q-49 -14 -49 -68
q0 -73 83 -73q94 0 111 71z" />
    <glyph glyph-name="guillemotleft" unicode="&#xab;" horiz-adv-x="435" 
d="M387 102h-72l-117 149v22l117 156h72l-126 -168zM238 102h-72l-117 149v22l117 156h72l-126 -168z" />
    <glyph glyph-name="registered" unicode="&#xae;" horiz-adv-x="795" 
d="M397 -12q-74 0 -132.5 19t-96.5 52t-62.5 79.5t-35 98t-10.5 111.5q0 61 10.5 113t35.5 99t62.5 80.5t96 53t132.5 19.5q93 0 161 -29t105.5 -81.5t54.5 -115t17 -139.5q0 -76 -17 -138t-54.5 -113.5t-105.5 -80t-161 -28.5zM397 28q80 0 138.5 26t90.5 72t47 101t15 121
q0 67 -15 122.5t-47 102.5t-90.5 73.5t-138.5 26.5t-138 -26.5t-90 -73.5t-47 -102.5t-15 -122.5q0 -66 14.5 -121t47 -101t90.5 -72t138 -26zM560 145h-61l-81 153h-15h-88v-153h-61v407h150q84 0 121.5 -27.5t37.5 -99.5q0 -56 -21.5 -84t-67.5 -37zM315 347h88
q47 0 72.5 14.5t25.5 63.5q0 48 -25.5 63t-72.5 15h-88v-156z" />
    <glyph glyph-name="macron" unicode="&#xaf;" horiz-adv-x="421" 
d="M293 655h-233v53h233v-53z" />
    <glyph glyph-name="degree" unicode="&#xb0;" horiz-adv-x="281" 
d="M141 505q-101 0 -101 110q0 111 101 111q100 0 100 -111q0 -110 -100 -110zM141 545q53 0 53 70q0 71 -53 71q-54 0 -54 -71q0 -70 54 -70z" />
    <glyph glyph-name="plusminus" unicode="&#xb1;" horiz-adv-x="457" 
d="M415 333h-157v-122h-59v122h-156v55h156v121h59v-121h157v-55zM415 108h-372v56h372v-56z" />
    <glyph glyph-name="uni00B2" unicode="&#xb2;" horiz-adv-x="364" 
d="M334 347h-314v52q65 52 136 115q69 62 87 85q28 37 28 76q0 42 -25 65t-70 23q-44 0 -69.5 -24t-25.5 -68h-62q0 68 40.5 106.5t116.5 38.5t115.5 -36.5t39.5 -100.5q0 -37 -17 -71t-36 -55.5t-57 -56.5q-26 -25 -55 -50t-44 -38l-16 -13q210 4 228 4v-52z" />
    <glyph glyph-name="uni00B3" unicode="&#xb3;" horiz-adv-x="374" 
d="M337 757l-140 -119q75 -7 112.5 -45.5t37.5 -103.5q0 -69 -41.5 -110.5t-125.5 -41.5q-80 0 -121.5 39.5t-41.5 98.5h61q0 -36 26.5 -61.5t73.5 -25.5q52 0 79.5 27t27.5 77t-29.5 79t-84.5 29l-57 -6v40l147 121l-222 -3v51h298v-46z" />
    <glyph glyph-name="acute" unicode="&#xb4;" horiz-adv-x="356" 
d="M117 629h-61l71 138h77z" />
    <glyph glyph-name="paragraph" unicode="&#xb6;" horiz-adv-x="573" 
d="M487 0h-59v700h-84v-700h-59v306q-131 2 -188 51.5t-57 175.5t57.5 175.5t187.5 51.5h202v-760zM285 366v333q-33 -1 -57.5 -4.5t-48 -14t-38.5 -28.5t-24 -48t-9 -71q0 -51 13 -85t38.5 -51t54.5 -23.5t71 -7.5z" />
    <glyph glyph-name="periodcentered" unicode="&#xb7;" horiz-adv-x="175" 
d="M123 237h-69v119h69v-119z" />
    <glyph glyph-name="cedilla" unicode="&#xb8;" horiz-adv-x="376" 
d="M64 -210v43q20 -5 53 -5q34 0 49.5 9.5t15.5 36.5q0 46 -92 46h-5l41 83h56l-30 -55q88 -7 88 -77q0 -86 -112 -86q-20 0 -36 1.5t-22 2.5z" />
    <glyph glyph-name="uni00B9" unicode="&#xb9;" horiz-adv-x="203" 
d="M150 344h-62v411l-87 -41v49l106 48h43v-467z" />
    <glyph glyph-name="ordmasculine" unicode="&#xba;" horiz-adv-x="403" 
d="M201 351q-94 0 -132 50t-38 146q0 97 38 147t133 51q94 0 132 -50.5t38 -147.5q0 -96 -38 -146t-133 -50zM201 399q59 0 83 35.5t24 112.5t-24 113.5t-83 36.5t-82.5 -36.5t-23.5 -113.5t23.5 -112.5t82.5 -35.5z" />
    <glyph glyph-name="guillemotright" unicode="&#xbb;" horiz-adv-x="435" 
d="M268 102h-72l126 159l-126 168h72l117 -156v-22zM120 102h-72l126 159l-126 168h72l117 -156v-22z" />
    <glyph glyph-name="onequarter" unicode="&#xbc;" horiz-adv-x="704" 
d="M138 334h-59v369l-78 -37v47l96 43h41v-422zM82 -40h-62l511 825h63zM646 0h-58v86h-213v47l209 286h62v-286h49v-47h-49v-86zM588 133l1 223l-161 -223h160z" />
    <glyph glyph-name="onehalf" unicode="&#xbd;" horiz-adv-x="752" 
d="M138 334h-59v369l-78 -37v47l96 43h41v-422zM82 -40h-62l511 825h63zM726 3h-286v49q59 47 123 102q64 57 79 78q24 32 24 66q0 37 -22.5 58t-61.5 21t-61.5 -21.5t-22.5 -60.5h-59q0 62 36.5 97t106.5 35q69 0 105 -34t36 -91q0 -33 -15 -64t-32.5 -50.5t-50.5 -50.5
l-104 -89q189 4 205 4v-49z" />
    <glyph glyph-name="threequarters" unicode="&#xbe;" horiz-adv-x="859" 
d="M307 705l-124 -105q132 -13 132 -135q0 -62 -38 -99.5t-114 -37.5q-73 0 -110.5 35.5t-37.5 89.5h59q0 -32 23.5 -54.5t64.5 -22.5q93 0 93 92q0 44 -25.5 70t-74.5 26l-52 -6v37h2l130 108l-200 -3v49h272v-44zM237 -40h-62l511 825h63zM801 0h-58v86h-213v47l209 286
h62v-286h49v-47h-49v-86zM743 133l1 223l-161 -223h160z" />
    <glyph glyph-name="questiondown" unicode="&#xbf;" horiz-adv-x="458" 
d="M280 420h-66v105h66v-105zM373 16h67q0 -212 -194 -212q-191 0 -191 190q0 44 12 79t30 55.5t39 42t39 39.5t30 48t12 67v35h62l-1 -35q0 -53 -16 -91t-39 -60.5t-46 -43.5t-39 -53t-16 -76q0 -137 125 -137q126 0 126 152z" />
    <glyph glyph-name="Agrave" unicode="&#xc0;" horiz-adv-x="628" 
d="M618 0h-72l-71 191h-327l-70 -191h-69l272 708h67zM451 255l-140 376l-139 -376h279zM347 760h-61l-87 126h77z" />
    <glyph glyph-name="Aacute" unicode="&#xc1;" horiz-adv-x="628" 
d="M618 0h-72l-71 191h-327l-70 -191h-69l272 708h67zM451 255l-140 376l-139 -376h279zM345 760h-61l71 126h77z" />
    <glyph glyph-name="Acircumflex" unicode="&#xc2;" horiz-adv-x="628" 
d="M618 0h-72l-71 191h-327l-70 -191h-69l272 708h67zM451 255l-140 376l-139 -376h279zM447 760h-63l-69 68l-68 -68h-64l101 115h62z" />
    <glyph glyph-name="Atilde" unicode="&#xc3;" horiz-adv-x="628" 
d="M618 0h-72l-71 191h-327l-70 -191h-69l272 708h67zM451 255l-140 376l-139 -376h279zM403 865h40q0 -101 -76 -101q-31 0 -55.5 21t-44.5 21q-43 0 -43 -46h-39q0 99 77 99q31 0 55 -20t43 -20q25 0 34 15t9 31z" />
    <glyph glyph-name="Adieresis" unicode="&#xc4;" horiz-adv-x="628" 
d="M618 0h-72l-71 191h-327l-70 -191h-69l272 708h67zM451 255l-140 376l-139 -376h279zM273 760h-67v123h67v-123zM422 760h-67v123h67v-123z" />
    <glyph glyph-name="Aring" unicode="&#xc5;" horiz-adv-x="628" 
d="M618 0h-72l-71 191h-327l-70 -191h-69l272 708h67zM451 255l-140 376l-139 -376h279zM392 835q0 -33 -20.5 -54t-57.5 -21t-57.5 21t-20.5 54t20.5 54t57.5 21t57.5 -21t20.5 -54zM313 797q17 0 27.5 10t10.5 28q0 17 -10.5 27.5t-27.5 10.5t-27 -10.5t-10 -27.5
q0 -18 10 -28t27 -10z" />
    <glyph glyph-name="AE" unicode="&#xc6;" horiz-adv-x="904" 
d="M879 0h-449v191h-241l-106 -191h-74l398 708h467v-61h-380v-249h330v-59h-330v-278h385v-61zM430 255v369l-206 -369h206z" />
    <glyph glyph-name="Ccedilla" unicode="&#xc7;" horiz-adv-x="659" 
d="M535 228h67q-8 -245 -257 -245q-155 0 -220 92.5t-65 277.5t65 278.5t220 93.5q254 0 259 -253h-67q-4 98 -51 145t-141 47q-118 0 -167.5 -74.5t-49.5 -236.5q0 -161 49.5 -235t167.5 -74q92 0 139 45t51 139zM267 -216v43q20 -5 53 -5q34 0 49.5 9.5t15.5 36.5
q0 46 -92 46h-5l41 83h56l-30 -55q88 -7 88 -77q0 -86 -112 -86q-20 0 -36 1.5t-22 2.5z" />
    <glyph glyph-name="Egrave" unicode="&#xc8;" horiz-adv-x="568" 
d="M542 0h-452v708h447v-61h-379v-249h329v-59h-329v-278h384v-61zM345 760h-61l-87 126h77z" />
    <glyph glyph-name="Eacute" unicode="&#xc9;" horiz-adv-x="568" 
d="M542 0h-452v708h447v-61h-379v-249h329v-59h-329v-278h384v-61zM343 760h-61l71 126h77z" />
    <glyph glyph-name="Ecircumflex" unicode="&#xca;" horiz-adv-x="568" 
d="M542 0h-452v708h447v-61h-379v-249h329v-59h-329v-278h384v-61zM445 760h-63l-69 68l-68 -68h-64l101 115h62z" />
    <glyph glyph-name="Edieresis" unicode="&#xcb;" horiz-adv-x="568" 
d="M542 0h-452v708h447v-61h-379v-249h329v-59h-329v-278h384v-61zM271 760h-67v123h67v-123zM420 760h-67v123h67v-123z" />
    <glyph glyph-name="Igrave" unicode="&#xcc;" horiz-adv-x="248" 
d="M158 0h-68v708h68v-708zM157 760h-61l-87 126h77z" />
    <glyph glyph-name="Iacute" unicode="&#xcd;" horiz-adv-x="248" 
d="M158 0h-68v708h68v-708zM155 760h-61l71 126h77z" />
    <glyph glyph-name="Icircumflex" unicode="&#xce;" horiz-adv-x="248" 
d="M158 0h-68v708h68v-708zM257 760h-63l-69 68l-68 -68h-64l101 115h62z" />
    <glyph glyph-name="Idieresis" unicode="&#xcf;" horiz-adv-x="248" 
d="M158 0h-68v708h68v-708zM83 760h-67v123h67v-123zM232 760h-67v123h67v-123z" />
    <glyph glyph-name="Eth" unicode="&#xd0;" horiz-adv-x="676" 
d="M268 -3h-178v714h178q103 0 170 -19t106.5 -64t55.5 -110t16 -165q0 -101 -16 -166.5t-56.5 -109t-106.5 -62t-169 -18.5zM158 57h112q152 0 211 53q36 33 51 91t15 152q0 176 -59 238q-59 60 -218 60h-112v-594zM300 333h-275v47h275v-47z" />
    <glyph glyph-name="Ntilde" unicode="&#xd1;" horiz-adv-x="718" 
d="M628 -2h-59v2l-15 -2l-403 618l5 -616h-66l3 708h58v-3l17 3l400 -614l-6 614h66v-710zM449 865h40q0 -101 -76 -101q-31 0 -55.5 21t-44.5 21q-43 0 -43 -46h-39q0 99 77 99q31 0 55 -20t43 -20q25 0 34 15t9 31z" />
    <glyph glyph-name="Ograve" unicode="&#xd2;" 
d="M60 353q0 186 65.5 279t223.5 93t223.5 -93t65.5 -279q0 -185 -65.5 -277.5t-223.5 -92.5t-223.5 92t-65.5 278zM569 353q0 161 -50.5 236t-170.5 75t-170 -75t-50 -236t50 -235t170 -74t170.5 74t50.5 235zM382 764h-61l-87 126h77z" />
    <glyph glyph-name="Oacute" unicode="&#xd3;" 
d="M60 353q0 186 65.5 279t223.5 93t223.5 -93t65.5 -279q0 -185 -65.5 -277.5t-223.5 -92.5t-223.5 92t-65.5 278zM569 353q0 161 -50.5 236t-170.5 75t-170 -75t-50 -236t50 -235t170 -74t170.5 74t50.5 235zM380 764h-61l71 126h77z" />
    <glyph glyph-name="Ocircumflex" unicode="&#xd4;" 
d="M60 353q0 186 65.5 279t223.5 93t223.5 -93t65.5 -279q0 -185 -65.5 -277.5t-223.5 -92.5t-223.5 92t-65.5 278zM569 353q0 161 -50.5 236t-170.5 75t-170 -75t-50 -236t50 -235t170 -74t170.5 74t50.5 235zM482 764h-63l-69 68l-68 -68h-64l101 115h62z" />
    <glyph glyph-name="Otilde" unicode="&#xd5;" 
d="M60 353q0 186 65.5 279t223.5 93t223.5 -93t65.5 -279q0 -185 -65.5 -277.5t-223.5 -92.5t-223.5 92t-65.5 278zM569 353q0 161 -50.5 236t-170.5 75t-170 -75t-50 -236t50 -235t170 -74t170.5 74t50.5 235zM438 869h40q0 -101 -76 -101q-31 0 -55.5 21t-44.5 21
q-43 0 -43 -46h-39q0 99 77 99q31 0 55 -20t43 -20q25 0 34 15t9 31z" />
    <glyph glyph-name="Odieresis" unicode="&#xd6;" 
d="M60 353q0 186 65.5 279t223.5 93t223.5 -93t65.5 -279q0 -185 -65.5 -277.5t-223.5 -92.5t-223.5 92t-65.5 278zM569 353q0 161 -50.5 236t-170.5 75t-170 -75t-50 -236t50 -235t170 -74t170.5 74t50.5 235zM308 764h-67v123h67v-123zM457 764h-67v123h67v-123z" />
    <glyph glyph-name="multiply" unicode="&#xd7;" horiz-adv-x="412" 
d="M381 165l-41 -40l-135 140l-135 -140l-40 40l135 141l-135 141l40 39l135 -139l134 139l41 -39l-136 -141z" />
    <glyph glyph-name="Oslash" unicode="&#xd8;" 
d="M60 353q0 186 65.5 279t223.5 93t223.5 -93t65.5 -279q0 -185 -65.5 -277.5t-223.5 -92.5t-223.5 92t-65.5 278zM569 353q0 161 -50.5 236t-170.5 75t-170 -75t-50 -236t50 -235t170 -74t170.5 74t50.5 235zM130 -10h-63l497 729h63z" />
    <glyph glyph-name="Ugrave" unicode="&#xd9;" horiz-adv-x="689" 
d="M542 346v362h70v-362q0 -187 -58 -275t-210 -88t-209.5 88t-57.5 275v362h68v-362q0 -163 42.5 -232.5t156.5 -69.5q113 0 155.5 69.5t42.5 232.5zM378 760h-61l-87 126h77z" />
    <glyph glyph-name="Uacute" unicode="&#xda;" horiz-adv-x="689" 
d="M542 346v362h70v-362q0 -187 -58 -275t-210 -88t-209.5 88t-57.5 275v362h68v-362q0 -163 42.5 -232.5t156.5 -69.5q113 0 155.5 69.5t42.5 232.5zM376 760h-61l71 126h77z" />
    <glyph glyph-name="Ucircumflex" unicode="&#xdb;" horiz-adv-x="689" 
d="M542 346v362h70v-362q0 -187 -58 -275t-210 -88t-209.5 88t-57.5 275v362h68v-362q0 -163 42.5 -232.5t156.5 -69.5q113 0 155.5 69.5t42.5 232.5zM478 760h-63l-69 68l-68 -68h-64l101 115h62z" />
    <glyph glyph-name="Udieresis" unicode="&#xdc;" horiz-adv-x="689" 
d="M542 346v362h70v-362q0 -187 -58 -275t-210 -88t-209.5 88t-57.5 275v362h68v-362q0 -163 42.5 -232.5t156.5 -69.5q113 0 155.5 69.5t42.5 232.5zM304 760h-67v123h67v-123zM453 760h-67v123h67v-123z" />
    <glyph glyph-name="Yacute" unicode="&#xdd;" horiz-adv-x="587" 
d="M333 0h-69v271l-255 437h79l211 -369l202 369h76l-244 -435v-273zM323 760h-61l71 126h77z" />
    <glyph glyph-name="Thorn" unicode="&#xde;" horiz-adv-x="631" 
d="M331 134h-173v-135h-68v712h68v-122h174q139 0 200 -49t61 -179t-61 -178.5t-201 -48.5zM158 196l173 -1q47 0 77.5 5.5t59.5 22t43 51t14 88.5t-14 88.5t-43 50.5t-59.5 21.5t-77.5 5.5h-173v-332z" />
    <glyph glyph-name="germandbls" unicode="&#xdf;" horiz-adv-x="577" 
d="M210 0v55q135 0 190 33.5t55 124.5q0 35 -8.5 61.5t-27 43.5t-37.5 27.5t-49.5 16t-52.5 7.5t-57 3v57q41 0 75.5 6.5t65 21t48.5 42.5t18 67q0 147 -138 147v55q205 0 205 -202q0 -40 -16 -71.5t-36 -47.5t-47 -27.5t-39 -14t-23 -4.5h10t18 -1.5t25.5 -4.5t29 -9.5
t30 -15t27.5 -23.5t24 -33t16 -44t6 -57q0 -112 -70 -162.5t-242 -50.5zM152 0v566q0 68 34 107t106 40v55q-206 -1 -206 -217v-551h66z" />
    <glyph glyph-name="agrave" unicode="&#xe0;" horiz-adv-x="576" 
d="M502 1h-57l-11 80q-52 -91 -196 -91q-97 0 -139 38.5t-42 118.5q0 59 25 93q18 24 49 38.5t70.5 19.5t89.5 7t104 0h31q-1 69 -7 104.5t-26 55.5q-29 29 -105 29q-45 0 -76 -11.5t-45.5 -30.5t-20.5 -37.5t-6 -38.5h-60q0 28 7 53t26.5 53t63.5 45t109 17q112 0 158 -43
q28 -26 37.5 -67.5t10.5 -107.5v-61v-130zM426 152v107q-162 0 -204 -7q-84 -14 -98 -73q-4 -16 -4 -34q0 -107 130 -107q69 0 116 30t60 84zM313 629h-61l-87 138h76z" />
    <glyph glyph-name="aacute" unicode="&#xe1;" horiz-adv-x="576" 
d="M502 1h-57l-11 80q-52 -91 -196 -91q-97 0 -139 38.5t-42 118.5q0 59 25 93q18 24 49 38.5t70.5 19.5t89.5 7t104 0h31q-1 69 -7 104.5t-26 55.5q-29 29 -105 29q-45 0 -76 -11.5t-45.5 -30.5t-20.5 -37.5t-6 -38.5h-60q0 28 7 53t26.5 53t63.5 45t109 17q112 0 158 -43
q28 -26 37.5 -67.5t10.5 -107.5v-61v-130zM426 152v107q-162 0 -204 -7q-84 -14 -98 -73q-4 -16 -4 -34q0 -107 130 -107q69 0 116 30t60 84zM302 629h-61l71 138h77z" />
    <glyph glyph-name="acircumflex" unicode="&#xe2;" horiz-adv-x="576" 
d="M502 1h-57l-11 80q-52 -91 -196 -91q-97 0 -139 38.5t-42 118.5q0 59 25 93q18 24 49 38.5t70.5 19.5t89.5 7t104 0h31q-1 69 -7 104.5t-26 55.5q-29 29 -105 29q-45 0 -76 -11.5t-45.5 -30.5t-20.5 -37.5t-6 -38.5h-60q0 28 7 53t26.5 53t63.5 45t109 17q112 0 158 -43
q28 -26 37.5 -67.5t10.5 -107.5v-61v-130zM426 152v107q-162 0 -204 -7q-84 -14 -98 -73q-4 -16 -4 -34q0 -107 130 -107q69 0 116 30t60 84zM421 629h-65l-70 88l-70 -88h-66l108 138h55z" />
    <glyph glyph-name="atilde" unicode="&#xe3;" horiz-adv-x="576" 
d="M502 1h-57l-11 80q-52 -91 -196 -91q-97 0 -139 38.5t-42 118.5q0 59 25 93q18 24 49 38.5t70.5 19.5t89.5 7t104 0h31q-1 69 -7 104.5t-26 55.5q-29 29 -105 29q-45 0 -76 -11.5t-45.5 -30.5t-20.5 -37.5t-6 -38.5h-60q0 28 7 53t26.5 53t63.5 45t109 17q112 0 158 -43
q28 -26 37.5 -67.5t10.5 -107.5v-61v-130zM426 152v107q-162 0 -204 -7q-84 -14 -98 -73q-4 -16 -4 -34q0 -107 130 -107q69 0 116 30t60 84zM375 730h39q0 -45 -15.5 -71t-60.5 -26q-31 0 -55.5 21.5t-44.5 21.5q-25 0 -34.5 -15.5t-9.5 -31.5h-38q0 95 77 95q31 0 55 -20
t43 -20q25 0 34.5 15t9.5 31z" />
    <glyph glyph-name="adieresis" unicode="&#xe4;" horiz-adv-x="576" 
d="M502 1h-57l-11 80q-52 -91 -196 -91q-97 0 -139 38.5t-42 118.5q0 59 25 93q18 24 49 38.5t70.5 19.5t89.5 7t104 0h31q-1 69 -7 104.5t-26 55.5q-29 29 -105 29q-45 0 -76 -11.5t-45.5 -30.5t-20.5 -37.5t-6 -38.5h-60q0 28 7 53t26.5 53t63.5 45t109 17q112 0 158 -43
q28 -26 37.5 -67.5t10.5 -107.5v-61v-130zM426 152v107q-162 0 -204 -7q-84 -14 -98 -73q-4 -16 -4 -34q0 -107 130 -107q69 0 116 30t60 84zM243 630h-67v123h67v-123zM394 630h-67v123h67v-123z" />
    <glyph glyph-name="aring" unicode="&#xe5;" horiz-adv-x="576" 
d="M502 1h-57l-11 80q-52 -91 -196 -91q-97 0 -139 38.5t-42 118.5q0 59 25 93q18 24 49 38.5t70.5 19.5t89.5 7t104 0h31q-1 69 -7 104.5t-26 55.5q-29 29 -105 29q-45 0 -76 -11.5t-45.5 -30.5t-20.5 -37.5t-6 -38.5h-60q0 28 7 53t26.5 53t63.5 45t109 17q112 0 158 -43
q28 -26 37.5 -67.5t10.5 -107.5v-61v-130zM426 152v107q-162 0 -204 -7q-84 -14 -98 -73q-4 -16 -4 -34q0 -107 130 -107q69 0 116 30t60 84zM370 708q0 -35 -22.5 -58.5t-63.5 -23.5t-63 23.5t-22 58.5t22 58.5t63 23.5t63.5 -23.5t22.5 -58.5zM284 670q17 0 27.5 10
t10.5 28q0 17 -10.5 27.5t-27.5 10.5t-27 -10.5t-10 -27.5q0 -18 10 -28t27 -10z" />
    <glyph glyph-name="ae" unicode="&#xe6;" horiz-adv-x="931" 
d="M803 161h68q0 -18 -5 -38t-20.5 -44.5t-39.5 -44t-66 -32.5t-95 -13q-154 0 -204 110q-45 -109 -203 -109q-96 0 -138.5 41.5t-42.5 121.5q0 47 18.5 78.5t41 47.5t76.5 24t87.5 8.5t112.5 0.5h22q3 46 11 73q-7 59 -36.5 84t-101.5 25q-45 0 -76 -11.5t-45.5 -30.5
t-20.5 -37.5t-6 -38.5h-60q0 28 7 53t26.5 53t63.5 45t109 17q136 0 169 -85q55 87 190 87q118 0 174 -66t56 -216h-65l-329 1v-1q0 -52 7 -90t24.5 -69.5t50.5 -47.5t82 -16q44 0 77 13t49.5 33t24 38.5t7.5 35.5zM414 265v1q-158 1 -203 -9q-78 -16 -89 -78q-2 -12 -2 -27
q0 -114 130 -114q70 0 115.5 31t58.5 86q-10 46 -10 110zM482 314h326q-7 92 -45.5 136.5t-117.5 44.5q-82 0 -119 -47.5t-44 -133.5z" />
    <glyph glyph-name="ccedilla" unicode="&#xe7;" horiz-adv-x="557" 
d="M439 171h67q-2 -84 -57.5 -133t-162.5 -49q-126 0 -178 72t-52 206t52 206t178 72q109 0 163 -52.5t56 -147.5h-65q-1 70 -41 108t-113 38q-88 0 -125.5 -56.5t-37.5 -167.5q0 -113 37.5 -168t125.5 -55q71 0 111.5 34t41.5 93zM209 -211v43q20 -5 53 -5q34 0 49.5 9.5
t15.5 36.5q0 46 -92 46h-5l41 83h56l-30 -55q88 -7 88 -77q0 -86 -112 -86q-20 0 -36 1t-22 3z" />
    <glyph glyph-name="egrave" unicode="&#xe8;" horiz-adv-x="573" 
d="M445 161h68q0 -18 -5 -38t-20.5 -44.5t-39.5 -44t-66 -32.5t-95 -13q-124 0 -177.5 68t-53.5 208q0 141 53.5 211t177.5 70q117 0 173.5 -65t56.5 -210h-66l-328 1v-8q0 -52 7 -90t24.5 -69.5t50.5 -47.5t82 -16q44 0 77 13t49.5 33t24 38.5t7.5 35.5zM125 321h324
q-8 88 -45.5 131t-116.5 43q-80 0 -117 -45.5t-45 -128.5zM316 629h-61l-87 138h76z" />
    <glyph glyph-name="eacute" unicode="&#xe9;" horiz-adv-x="573" 
d="M445 161h68q0 -18 -5 -38t-20.5 -44.5t-39.5 -44t-66 -32.5t-95 -13q-124 0 -177.5 68t-53.5 208q0 141 53.5 211t177.5 70q117 0 173.5 -65t56.5 -210h-66l-328 1v-8q0 -52 7 -90t24.5 -69.5t50.5 -47.5t82 -16q44 0 77 13t49.5 33t24 38.5t7.5 35.5zM125 321h324
q-8 88 -45.5 131t-116.5 43q-80 0 -117 -45.5t-45 -128.5zM305 629h-61l71 138h77z" />
    <glyph glyph-name="ecircumflex" unicode="&#xea;" horiz-adv-x="573" 
d="M445 161h68q0 -18 -5 -38t-20.5 -44.5t-39.5 -44t-66 -32.5t-95 -13q-124 0 -177.5 68t-53.5 208q0 141 53.5 211t177.5 70q117 0 173.5 -65t56.5 -210h-66l-328 1v-8q0 -52 7 -90t24.5 -69.5t50.5 -47.5t82 -16q44 0 77 13t49.5 33t24 38.5t7.5 35.5zM125 321h324
q-8 88 -45.5 131t-116.5 43q-80 0 -117 -45.5t-45 -128.5zM424 629h-65l-70 88l-70 -88h-66l108 138h55z" />
    <glyph glyph-name="edieresis" unicode="&#xeb;" horiz-adv-x="573" 
d="M445 161h68q0 -18 -5 -38t-20.5 -44.5t-39.5 -44t-66 -32.5t-95 -13q-124 0 -177.5 68t-53.5 208q0 141 53.5 211t177.5 70q117 0 173.5 -65t56.5 -210h-66l-328 1v-8q0 -52 7 -90t24.5 -69.5t50.5 -47.5t82 -16q44 0 77 13t49.5 33t24 38.5t7.5 35.5zM125 321h324
q-8 88 -45.5 131t-116.5 43q-80 0 -117 -45.5t-45 -128.5zM246 630h-67v123h67v-123zM397 630h-67v123h67v-123z" />
    <glyph glyph-name="igrave" unicode="&#xec;" horiz-adv-x="224" 
d="M144 0h-66v535h66v-535zM140 629h-61l-87 138h76z" />
    <glyph glyph-name="iacute" unicode="&#xed;" horiz-adv-x="224" 
d="M144 0h-66v535h66v-535zM129 629h-61l71 138h77z" />
    <glyph glyph-name="icircumflex" unicode="&#xee;" horiz-adv-x="224" 
d="M144 0h-66v535h66v-535zM248 629h-65l-70 88l-70 -88h-66l108 138h55z" />
    <glyph glyph-name="idieresis" unicode="&#xef;" horiz-adv-x="224" 
d="M144 0h-66v535h66v-535zM70 630h-67v123h67v-123zM221 630h-67v123h67v-123z" />
    <glyph glyph-name="eth" unicode="&#xf0;" horiz-adv-x="576" 
d="M520 263h-1q-1 -133 -53.5 -203.5t-178.5 -70.5q-127 0 -179 71.5t-52 205.5q0 129 52.5 201t178.5 72q70 0 119 -49q-28 71 -73 141l-92 -48l-21 35l90 48q-19 26 -38 49.5t-29 34.5l-10 10h83q22 -23 52 -64l85 45l22 -35l-83 -44q128 -192 128 -399zM450 282h1
q-2 45 -6 67l-1 -2q-6 46 -48 95.5t-109 49.5q-89 0 -126.5 -56.5t-37.5 -169.5t37 -168t127 -55t127 55t37 168q0 11 -1 16z" />
    <glyph glyph-name="ntilde" unicode="&#xf1;" horiz-adv-x="603" 
d="M521 0h-66q1 293 1 313q0 89 -29 131.5t-103 42.5q-109 0 -168 -118v-369h-66v387l-9 148h56l12 -102q25 43 71.5 77.5t114.5 34.5q99 0 143 -50.5t44 -176.5zM402 730h39q0 -45 -15.5 -71t-60.5 -26q-31 0 -55.5 21.5t-44.5 21.5q-25 0 -34.5 -15.5t-9.5 -31.5h-38
q0 95 77 95q31 0 55 -20t43 -20q25 0 34.5 15t9.5 31z" />
    <glyph glyph-name="ograve" unicode="&#xf2;" horiz-adv-x="582" 
d="M290 -11q-129 0 -181.5 71.5t-52.5 205.5q0 65 11.5 114t37 87.5t72.5 58.5t113 20q129 1 182 -72t53 -208q0 -134 -52.5 -205.5t-182.5 -71.5zM291 43q92 0 129.5 54.5t37.5 168.5t-38 170t-129 56t-129 -56t-38 -170t37.5 -168.5t129.5 -54.5zM318 624h-61l-87 138h76z
" />
    <glyph glyph-name="oacute" unicode="&#xf3;" horiz-adv-x="582" 
d="M290 -11q-129 0 -181.5 71.5t-52.5 205.5q0 65 11.5 114t37 87.5t72.5 58.5t113 20q129 1 182 -72t53 -208q0 -134 -52.5 -205.5t-182.5 -71.5zM291 43q92 0 129.5 54.5t37.5 168.5t-38 170t-129 56t-129 -56t-38 -170t37.5 -168.5t129.5 -54.5zM307 624h-61l71 138h77z
" />
    <glyph glyph-name="ocircumflex" unicode="&#xf4;" horiz-adv-x="582" 
d="M290 -11q-129 0 -181.5 71.5t-52.5 205.5q0 65 11.5 114t37 87.5t72.5 58.5t113 20q129 1 182 -72t53 -208q0 -134 -52.5 -205.5t-182.5 -71.5zM291 43q92 0 129.5 54.5t37.5 168.5t-38 170t-129 56t-129 -56t-38 -170t37.5 -168.5t129.5 -54.5zM426 624h-65l-70 88
l-70 -88h-66l108 138h55z" />
    <glyph glyph-name="otilde" unicode="&#xf5;" horiz-adv-x="582" 
d="M290 -11q-129 0 -181.5 71.5t-52.5 205.5q0 65 11.5 114t37 87.5t72.5 58.5t113 20q129 1 182 -72t53 -208q0 -134 -52.5 -205.5t-182.5 -71.5zM291 43q92 0 129.5 54.5t37.5 168.5t-38 170t-129 56t-129 -56t-38 -170t37.5 -168.5t129.5 -54.5zM380 725h39
q0 -45 -15.5 -71t-60.5 -26q-31 0 -55.5 21.5t-44.5 21.5q-25 0 -34.5 -15.5t-9.5 -31.5h-38q0 95 77 95q31 0 55 -20t43 -20q25 0 34.5 15t9.5 31z" />
    <glyph glyph-name="odieresis" unicode="&#xf6;" horiz-adv-x="582" 
d="M290 -11q-129 0 -181.5 71.5t-52.5 205.5q0 65 11.5 114t37 87.5t72.5 58.5t113 20q129 1 182 -72t53 -208q0 -134 -52.5 -205.5t-182.5 -71.5zM291 43q92 0 129.5 54.5t37.5 168.5t-38 170t-129 56t-129 -56t-38 -170t37.5 -168.5t129.5 -54.5zM248 625h-67v123h67v-123
zM399 625h-67v123h67v-123z" />
    <glyph glyph-name="divide" unicode="&#xf7;" horiz-adv-x="460" 
d="M430 288h-400v57h400v-57zM261 115h-62v106h62v-106zM261 412h-62v105h62v-105z" />
    <glyph glyph-name="oslash" unicode="&#xf8;" horiz-adv-x="582" 
d="M290 -11q-129 0 -181.5 71.5t-52.5 205.5q0 65 11.5 114t37 87.5t72.5 58.5t113 20q129 1 182 -72t53 -208q0 -134 -52.5 -205.5t-182.5 -71.5zM291 43q92 0 129.5 54.5t37.5 168.5t-38 170t-129 56t-129 -56t-38 -170t37.5 -168.5t129.5 -54.5zM122 -6h-58l393 548h58z
" />
    <glyph glyph-name="ugrave" unicode="&#xf9;" horiz-adv-x="590" 
d="M515 0h-57l-14 114q-20 -43 -68 -84t-121 -41q-97 0 -141.5 50.5t-44.5 173.5l1 322h65v-313q0 -88 28.5 -131t101.5 -43q38 0 70.5 16t53.5 41.5t32 43.5t19 36v350h66v-387zM321 629h-61l-87 138h76z" />
    <glyph glyph-name="uacute" unicode="&#xfa;" horiz-adv-x="590" 
d="M515 0h-57l-14 114q-20 -43 -68 -84t-121 -41q-97 0 -141.5 50.5t-44.5 173.5l1 322h65v-313q0 -88 28.5 -131t101.5 -43q38 0 70.5 16t53.5 41.5t32 43.5t19 36v350h66v-387zM310 629h-61l71 138h77z" />
    <glyph glyph-name="ucircumflex" unicode="&#xfb;" horiz-adv-x="590" 
d="M515 0h-57l-14 114q-20 -43 -68 -84t-121 -41q-97 0 -141.5 50.5t-44.5 173.5l1 322h65v-313q0 -88 28.5 -131t101.5 -43q38 0 70.5 16t53.5 41.5t32 43.5t19 36v350h66v-387zM429 629h-65l-70 88l-70 -88h-66l108 138h55z" />
    <glyph glyph-name="udieresis" unicode="&#xfc;" horiz-adv-x="590" 
d="M515 0h-57l-14 114q-20 -43 -68 -84t-121 -41q-97 0 -141.5 50.5t-44.5 173.5l1 322h65v-313q0 -88 28.5 -131t101.5 -43q38 0 70.5 16t53.5 41.5t32 43.5t19 36v350h66v-387zM251 630h-67v123h67v-123zM402 630h-67v123h67v-123z" />
    <glyph glyph-name="yacute" unicode="&#xfd;" horiz-adv-x="502" 
d="M216 -219h-61l78 219h-19l-206 535h75l171 -476l169 476h71zM265 629h-61l71 138h77z" />
    <glyph glyph-name="thorn" unicode="&#xfe;" horiz-adv-x="596" 
d="M147 -240h-66v1000h66v-312q25 37 71.5 66.5t111.5 29.5q210 0 210 -278q0 -275 -210 -275q-128 0 -183 85v-316zM147 374v-207q13 -49 55 -85.5t117 -36.5q153 0 153 221q0 224 -153 224q-47 0 -85.5 -22.5t-56 -45t-30.5 -48.5z" />
    <glyph glyph-name="ydieresis" unicode="&#xff;" horiz-adv-x="502" 
d="M216 -219h-61l78 219h-19l-206 535h75l171 -476l169 476h71zM206 630h-67v123h67v-123zM357 630h-67v123h67v-123z" />
    <glyph glyph-name="Amacron" unicode="&#x100;" horiz-adv-x="628" 
d="M618 0h-72l-71 191h-327l-70 -191h-69l272 708h67zM451 255l-140 376l-139 -376h279zM430 786h-233v53h233v-53z" />
    <glyph glyph-name="amacron" unicode="&#x101;" horiz-adv-x="576" 
d="M502 1h-57l-11 80q-52 -91 -196 -91q-97 0 -139 38.5t-42 118.5q0 59 25 93q18 24 49 38.5t70.5 19.5t89.5 7t104 0h31q-1 69 -7 104.5t-26 55.5q-29 29 -105 29q-45 0 -76 -11.5t-45.5 -30.5t-20.5 -37.5t-6 -38.5h-60q0 28 7 53t26.5 53t63.5 45t109 17q112 0 158 -43
q28 -26 37.5 -67.5t10.5 -107.5v-61v-130zM426 152v107q-162 0 -204 -7q-84 -14 -98 -73q-4 -16 -4 -34q0 -107 130 -107q69 0 116 30t60 84zM401 655h-233v53h233v-53z" />
    <glyph glyph-name="Abreve" unicode="&#x102;" horiz-adv-x="628" 
d="M618 0h-72l-71 191h-327l-70 -191h-69l272 708h67zM451 255l-140 376l-139 -376h279zM385 865h53q0 -41 -32.5 -73t-91.5 -32t-91.5 32t-32.5 73h54q0 -20 20 -37.5t50 -17.5q31 0 51 17.5t20 37.5z" />
    <glyph glyph-name="abreve" unicode="&#x103;" horiz-adv-x="576" 
d="M502 1h-57l-11 80q-52 -91 -196 -91q-97 0 -139 38.5t-42 118.5q0 59 25 93q18 24 49 38.5t70.5 19.5t89.5 7t104 0h31q-1 69 -7 104.5t-26 55.5q-29 29 -105 29q-45 0 -76 -11.5t-45.5 -30.5t-20.5 -37.5t-6 -38.5h-60q0 28 7 53t26.5 53t63.5 45t109 17q112 0 158 -43
q28 -26 37.5 -67.5t10.5 -107.5v-61v-130zM426 152v107q-162 0 -204 -7q-84 -14 -98 -73q-4 -16 -4 -34q0 -107 130 -107q69 0 116 30t60 84zM357 741h52q0 -44 -33.5 -79t-90.5 -35t-90.5 35t-33.5 79h53q0 -21 20.5 -41.5t50.5 -20.5t51 20.5t21 41.5z" />
    <glyph glyph-name="Aogonek" unicode="&#x104;" horiz-adv-x="628" 
d="M618 0h-72l-71 191h-327l-70 -191h-69l272 708h67zM451 255l-140 376l-139 -376h279zM605 -122v-40q-28 -19 -72 -19q-37 0 -56 19.5t-19 51.5q0 33 23 63t47 43l23 14l49 -8q-3 -1 -8.5 -4t-20 -12.5t-25 -20t-19.5 -26.5t-9 -33q0 -20 11 -30.5t28 -10.5q11 0 23 3.5
t18 6.5z" />
    <glyph glyph-name="aogonek" unicode="&#x105;" horiz-adv-x="576" 
d="M502 1h-57l-11 80q-52 -91 -196 -91q-97 0 -139 38.5t-42 118.5q0 59 25 93q18 24 49 38.5t70.5 19.5t89.5 7t104 0h31q-1 69 -7 104.5t-26 55.5q-29 29 -105 29q-45 0 -76 -11.5t-45.5 -30.5t-20.5 -37.5t-6 -38.5h-60q0 28 7 53t26.5 53t63.5 45t109 17q112 0 158 -43
q28 -26 37.5 -67.5t10.5 -107.5v-61v-130zM426 152v107q-162 0 -204 -7q-84 -14 -98 -73q-4 -16 -4 -34q0 -107 130 -107q69 0 116 30t60 84zM503 -122v-40q-28 -19 -72 -19q-37 0 -56 19.5t-19 51.5q0 33 23 63t47 43l23 14l49 -8q-3 -1 -8.5 -4t-20 -12.5t-25 -20
t-19.5 -26.5t-9 -33q0 -20 11 -30.5t28 -10.5q11 0 23 3.5t18 6.5z" />
    <glyph glyph-name="Cacute" unicode="&#x106;" horiz-adv-x="659" 
d="M535 228h67q-8 -245 -257 -245q-155 0 -220 92.5t-65 277.5t65 278.5t220 93.5q254 0 259 -253h-67q-4 98 -51 145t-141 47q-118 0 -167.5 -74.5t-49.5 -236.5q0 -161 49.5 -235t167.5 -74q92 0 139 45t51 139zM371 764h-61l71 126h77z" />
    <glyph glyph-name="cacute" unicode="&#x107;" horiz-adv-x="557" 
d="M439 171h67q-2 -84 -57.5 -133t-162.5 -49q-126 0 -178 72t-52 206t52 206t178 72q109 0 163 -52.5t56 -147.5h-65q-1 70 -41 108t-113 38q-88 0 -125.5 -56.5t-37.5 -167.5q0 -113 37.5 -168t125.5 -55q71 0 111.5 34t41.5 93zM301 629h-61l71 138h77z" />
    <glyph glyph-name="Ccircumflex" unicode="&#x108;" horiz-adv-x="659" 
d="M535 228h67q-8 -245 -257 -245q-155 0 -220 92.5t-65 277.5t65 278.5t220 93.5q254 0 259 -253h-67q-4 98 -51 145t-141 47q-118 0 -167.5 -74.5t-49.5 -236.5q0 -161 49.5 -235t167.5 -74q92 0 139 45t51 139zM473 764h-63l-69 68l-68 -68h-64l101 115h62z" />
    <glyph glyph-name="ccircumflex" unicode="&#x109;" horiz-adv-x="557" 
d="M439 171h67q-2 -84 -57.5 -133t-162.5 -49q-126 0 -178 72t-52 206t52 206t178 72q109 0 163 -52.5t56 -147.5h-65q-1 70 -41 108t-113 38q-88 0 -125.5 -56.5t-37.5 -167.5q0 -113 37.5 -168t125.5 -55q71 0 111.5 34t41.5 93zM420 629h-65l-70 88l-70 -88h-66l108 138
h55z" />
    <glyph glyph-name="Cdotaccent" unicode="&#x10a;" horiz-adv-x="659" 
d="M535 228h67q-8 -245 -257 -245q-155 0 -220 92.5t-65 277.5t65 278.5t220 93.5q254 0 259 -253h-67q-4 98 -51 145t-141 47q-118 0 -167.5 -74.5t-49.5 -236.5q0 -161 49.5 -235t167.5 -74q92 0 139 45t51 139zM374 764h-67v123h67v-123z" />
    <glyph glyph-name="cdotaccent" unicode="&#x10b;" horiz-adv-x="557" 
d="M439 171h67q-2 -84 -57.5 -133t-162.5 -49q-126 0 -178 72t-52 206t52 206t178 72q109 0 163 -52.5t56 -147.5h-65q-1 70 -41 108t-113 38q-88 0 -125.5 -56.5t-37.5 -167.5q0 -113 37.5 -168t125.5 -55q71 0 111.5 34t41.5 93zM318 630h-67v123h67v-123z" />
    <glyph glyph-name="Ccaron" unicode="&#x10c;" horiz-adv-x="659" 
d="M535 228h67q-8 -245 -257 -245q-155 0 -220 92.5t-65 277.5t65 278.5t220 93.5q254 0 259 -253h-67q-4 98 -51 145t-141 47q-118 0 -167.5 -74.5t-49.5 -236.5q0 -161 49.5 -235t167.5 -74q92 0 139 45t51 139zM372 764h-62l-101 115h63l68 -69l69 69h64z" />
    <glyph glyph-name="ccaron" unicode="&#x10d;" horiz-adv-x="557" 
d="M439 171h67q-2 -84 -57.5 -133t-162.5 -49q-126 0 -178 72t-52 206t52 206t178 72q109 0 163 -52.5t56 -147.5h-65q-1 70 -41 108t-113 38q-88 0 -125.5 -56.5t-37.5 -167.5q0 -113 37.5 -168t125.5 -55q71 0 111.5 34t41.5 93zM312 629h-55l-108 138h65l70 -89l71 89h65
z" />
    <glyph glyph-name="Dcaron" unicode="&#x10e;" horiz-adv-x="676" 
d="M268 -3h-178v714h178q103 0 170 -19t106.5 -64t55.5 -110t16 -165q0 -101 -16 -166.5t-56.5 -109t-106.5 -62t-169 -18.5zM158 57h112q152 0 211 53q36 33 51 91t15 152q0 176 -59 238q-59 60 -218 60h-112v-594zM351 760h-62l-101 115h63l68 -69l69 69h64z" />
    <glyph glyph-name="dcaron" unicode="&#x10f;" horiz-adv-x="606" 
d="M525 0h-57l-12 88q-54 -97 -190 -97q-210 0 -210 275q0 278 210 278q66 0 112 -28t72 -63v307h66v-620zM450 172v198q-60 120 -174 120q-152 0 -152 -224q0 -221 152 -221q77 0 119.5 38.5t54.5 88.5zM592 607h-53l56 153h68z" />
    <glyph glyph-name="Dcroat" unicode="&#x110;" horiz-adv-x="676" 
d="M268 -3h-178v714h178q103 0 170 -19t106.5 -64t55.5 -110t16 -165q0 -101 -16 -166.5t-56.5 -109t-106.5 -62t-169 -18.5zM158 57h112q152 0 211 53q36 33 51 91t15 152q0 176 -59 238q-59 60 -218 60h-112v-594zM300 333h-275v47h275v-47z" />
    <glyph glyph-name="dcroat" unicode="&#x111;" horiz-adv-x="606" 
d="M525 0h-57l-12 88q-54 -97 -190 -97q-210 0 -210 275q0 278 210 278q66 0 112 -28t72 -63v307h66v-620zM450 172v198q-60 120 -174 120q-152 0 -152 -224q0 -221 152 -221q77 0 119.5 38.5t54.5 88.5zM585 591h-275v47h275v-47z" />
    <glyph glyph-name="Emacron" unicode="&#x112;" horiz-adv-x="568" 
d="M542 0h-452v708h447v-61h-379v-249h329v-59h-329v-278h384v-61zM428 786h-233v53h233v-53z" />
    <glyph glyph-name="emacron" unicode="&#x113;" horiz-adv-x="573" 
d="M445 161h68q0 -18 -5 -38t-20.5 -44.5t-39.5 -44t-66 -32.5t-95 -13q-124 0 -177.5 68t-53.5 208q0 141 53.5 211t177.5 70q117 0 173.5 -65t56.5 -210h-66l-328 1v-8q0 -52 7 -90t24.5 -69.5t50.5 -47.5t82 -16q44 0 77 13t49.5 33t24 38.5t7.5 35.5zM125 321h324
q-8 88 -45.5 131t-116.5 43q-80 0 -117 -45.5t-45 -128.5zM404 655h-233v53h233v-53z" />
    <glyph glyph-name="Ebreve" unicode="&#x114;" horiz-adv-x="568" 
d="M542 0h-452v708h447v-61h-379v-249h329v-59h-329v-278h384v-61zM383 865h53q0 -41 -32.5 -73t-91.5 -32t-91.5 32t-32.5 73h54q0 -20 20 -37.5t50 -17.5q31 0 51 17.5t20 37.5z" />
    <glyph glyph-name="ebreve" unicode="&#x115;" horiz-adv-x="573" 
d="M445 161h68q0 -18 -5 -38t-20.5 -44.5t-39.5 -44t-66 -32.5t-95 -13q-124 0 -177.5 68t-53.5 208q0 141 53.5 211t177.5 70q117 0 173.5 -65t56.5 -210h-66l-328 1v-8q0 -52 7 -90t24.5 -69.5t50.5 -47.5t82 -16q44 0 77 13t49.5 33t24 38.5t7.5 35.5zM125 321h324
q-8 88 -45.5 131t-116.5 43q-80 0 -117 -45.5t-45 -128.5zM360 741h52q0 -44 -33.5 -79t-90.5 -35t-90.5 35t-33.5 79h53q0 -21 20.5 -41.5t50.5 -20.5t51 20.5t21 41.5z" />
    <glyph glyph-name="Edotaccent" unicode="&#x116;" horiz-adv-x="568" 
d="M542 0h-452v708h447v-61h-379v-249h329v-59h-329v-278h384v-61zM346 760h-67v123h67v-123z" />
    <glyph glyph-name="edotaccent" unicode="&#x117;" horiz-adv-x="573" 
d="M445 161h68q0 -18 -5 -38t-20.5 -44.5t-39.5 -44t-66 -32.5t-95 -13q-124 0 -177.5 68t-53.5 208q0 141 53.5 211t177.5 70q117 0 173.5 -65t56.5 -210h-66l-328 1v-8q0 -52 7 -90t24.5 -69.5t50.5 -47.5t82 -16q44 0 77 13t49.5 33t24 38.5t7.5 35.5zM125 321h324
q-8 88 -45.5 131t-116.5 43q-80 0 -117 -45.5t-45 -128.5zM322 630h-67v123h67v-123z" />
    <glyph glyph-name="Eogonek" unicode="&#x118;" horiz-adv-x="568" 
d="M542 0h-452v708h447v-61h-379v-249h329v-59h-329v-278h384v-61zM547 -123v-40q-28 -19 -72 -19q-37 0 -56 19t-19 52t23 63t47 44l23 13l49 -8q-3 -1 -8.5 -4t-20 -12.5t-25 -20t-19.5 -26.5t-9 -33q0 -20 11 -30.5t28 -10.5q11 0 23 3t18 7z" />
    <glyph glyph-name="eogonek" unicode="&#x119;" horiz-adv-x="573" 
d="M445 161h68q0 -18 -5 -38t-20.5 -44.5t-39.5 -44t-66 -32.5t-95 -13q-124 0 -177.5 68t-53.5 208q0 141 53.5 211t177.5 70q117 0 173.5 -65t56.5 -210h-66l-328 1v-8q0 -52 7 -90t24.5 -69.5t50.5 -47.5t82 -16q44 0 77 13t49.5 33t24 38.5t7.5 35.5zM125 321h324
q-8 88 -45.5 131t-116.5 43q-80 0 -117 -45.5t-45 -128.5zM438 -100v-40q-28 -19 -72 -19q-36 0 -55.5 19.5t-19.5 51.5q0 33 23.5 63t46.5 43l23 14l49 -8q-3 -1 -8.5 -4t-20 -12.5t-25 -20t-19.5 -26.5t-9 -33q0 -20 11 -30.5t28 -10.5q11 0 23 3.5t19 6.5z" />
    <glyph glyph-name="Ecaron" unicode="&#x11a;" horiz-adv-x="568" 
d="M542 0h-452v708h447v-61h-379v-249h329v-59h-329v-278h384v-61zM344 760h-62l-101 115h63l68 -69l69 69h64z" />
    <glyph glyph-name="ecaron" unicode="&#x11b;" horiz-adv-x="573" 
d="M445 161h68q0 -18 -5 -38t-20.5 -44.5t-39.5 -44t-66 -32.5t-95 -13q-124 0 -177.5 68t-53.5 208q0 141 53.5 211t177.5 70q117 0 173.5 -65t56.5 -210h-66l-328 1v-8q0 -52 7 -90t24.5 -69.5t50.5 -47.5t82 -16q44 0 77 13t49.5 33t24 38.5t7.5 35.5zM125 321h324
q-8 88 -45.5 131t-116.5 43q-80 0 -117 -45.5t-45 -128.5zM316 629h-55l-108 138h65l70 -89l71 89h65z" />
    <glyph glyph-name="Gcircumflex" unicode="&#x11c;" horiz-adv-x="670" 
d="M537 105v180h-150v58h214v-261q0 -5 -9 -16t-29.5 -25.5t-49 -27t-73 -21.5t-95.5 -9q-155 0 -220 91.5t-65 277.5q0 187 65 280t220 93q129 0 193.5 -64.5t64.5 -170.5h-67q-1 78 -50.5 126t-140.5 48q-117 0 -167 -75.5t-50 -236.5q0 -160 51 -234t170 -74
q55 0 101.5 13t66.5 27t20 21zM474 764h-63l-69 68l-68 -68h-64l101 115h62z" />
    <glyph glyph-name="gcircumflex" unicode="&#x11d;" horiz-adv-x="599" 
d="M450 -1v79q-57 -87 -184 -87q-210 0 -210 275q0 278 210 278q70 0 117.5 -32t71.5 -68l12 91h57l-8 -140v-396q0 -43 -2.5 -69.5t-14.5 -62.5t-35.5 -56.5t-68.5 -35.5t-110 -15q-136 0 -184 90q-21 41 -21 94l62 1q0 -14 2 -27.5t10.5 -34t23 -35t43 -25.5t67.5 -11
q81 0 120 34q26 23 34 59.5t8 93.5zM450 172v204q-11 23 -28 45t-57 45.5t-89 23.5q-152 0 -152 -224q0 -221 152 -221q77 0 119.5 38.5t54.5 88.5zM431 629h-65l-70 88l-70 -88h-66l108 138h55z" />
    <glyph glyph-name="Gbreve" unicode="&#x11e;" horiz-adv-x="670" 
d="M537 105v180h-150v58h214v-261q0 -5 -9 -16t-29.5 -25.5t-49 -27t-73 -21.5t-95.5 -9q-155 0 -220 91.5t-65 277.5q0 187 65 280t220 93q129 0 193.5 -64.5t64.5 -170.5h-67q-1 78 -50.5 126t-140.5 48q-117 0 -167 -75.5t-50 -236.5q0 -160 51 -234t170 -74
q55 0 101.5 13t66.5 27t20 21zM412 869h53q0 -41 -32.5 -73t-91.5 -32t-91.5 32t-32.5 73h54q0 -20 20 -37.5t50 -17.5q31 0 51 17.5t20 37.5z" />
    <glyph glyph-name="gbreve" unicode="&#x11f;" horiz-adv-x="599" 
d="M450 -1v79q-57 -87 -184 -87q-210 0 -210 275q0 278 210 278q70 0 117.5 -32t71.5 -68l12 91h57l-8 -140v-396q0 -43 -2.5 -69.5t-14.5 -62.5t-35.5 -56.5t-68.5 -35.5t-110 -15q-136 0 -184 90q-21 41 -21 94l62 1q0 -14 2 -27.5t10.5 -34t23 -35t43 -25.5t67.5 -11
q81 0 120 34q26 23 34 59.5t8 93.5zM450 172v204q-11 23 -28 45t-57 45.5t-89 23.5q-152 0 -152 -224q0 -221 152 -221q77 0 119.5 38.5t54.5 88.5zM367 741h52q0 -44 -33.5 -79t-90.5 -35t-90.5 35t-33.5 79h53q0 -21 20.5 -41.5t50.5 -20.5t51 20.5t21 41.5z" />
    <glyph glyph-name="Gdotaccent" unicode="&#x120;" horiz-adv-x="670" 
d="M537 105v180h-150v58h214v-261q0 -5 -9 -16t-29.5 -25.5t-49 -27t-73 -21.5t-95.5 -9q-155 0 -220 91.5t-65 277.5q0 187 65 280t220 93q129 0 193.5 -64.5t64.5 -170.5h-67q-1 78 -50.5 126t-140.5 48q-117 0 -167 -75.5t-50 -236.5q0 -160 51 -234t170 -74
q55 0 101.5 13t66.5 27t20 21zM375 764h-67v123h67v-123z" />
    <glyph glyph-name="gdotaccent" unicode="&#x121;" horiz-adv-x="599" 
d="M450 -1v79q-57 -87 -184 -87q-210 0 -210 275q0 278 210 278q70 0 117.5 -32t71.5 -68l12 91h57l-8 -140v-396q0 -43 -2.5 -69.5t-14.5 -62.5t-35.5 -56.5t-68.5 -35.5t-110 -15q-136 0 -184 90q-21 41 -21 94l62 1q0 -14 2 -27.5t10.5 -34t23 -35t43 -25.5t67.5 -11
q81 0 120 34q26 23 34 59.5t8 93.5zM450 172v204q-11 23 -28 45t-57 45.5t-89 23.5q-152 0 -152 -224q0 -221 152 -221q77 0 119.5 38.5t54.5 88.5zM329 630h-67v123h67v-123z" />
    <glyph glyph-name="Gcommaaccent" unicode="&#x122;" horiz-adv-x="670" 
d="M537 105v180h-150v58h214v-261q0 -5 -9 -16t-29.5 -25.5t-49 -27t-73 -21.5t-95.5 -9q-155 0 -220 91.5t-65 277.5q0 187 65 280t220 93q129 0 193.5 -64.5t64.5 -170.5h-67q-1 78 -50.5 126t-140.5 48q-117 0 -167 -75.5t-50 -236.5q0 -160 51 -234t170 -74
q55 0 101.5 13t66.5 27t20 21zM332 -232h-58q22 43 37 98q6 22 9.5 43.5t3.5 32.5l1 11h67q-3 -42 -18 -90q-8 -26 -18.5 -49.5t-17.5 -34.5z" />
    <glyph glyph-name="gcommaaccent" unicode="&#x123;" horiz-adv-x="599" 
d="M450 -1v79q-57 -87 -184 -87q-210 0 -210 275q0 278 210 278q70 0 117.5 -32t71.5 -68l12 91h57l-8 -140v-396q0 -43 -2.5 -69.5t-14.5 -62.5t-35.5 -56.5t-68.5 -35.5t-110 -15q-136 0 -184 90q-21 41 -21 94l62 1q0 -14 2 -27.5t10.5 -34t23 -35t43 -25.5t67.5 -11
q81 0 120 34q26 23 34 59.5t8 93.5zM450 172v204q-11 23 -28 45t-57 45.5t-89 23.5q-152 0 -152 -224q0 -221 152 -221q77 0 119.5 38.5t54.5 88.5zM305 579h-69q-1 38 17 107q8 32 20 61t21 43l8 13h59q-26 -52 -41 -121q-7 -31 -11 -56.5t-4 -35.5v-11z" />
    <glyph glyph-name="Hcircumflex" unicode="&#x124;" horiz-adv-x="697" 
d="M607 0h-68v335h-381v-335h-68v707l68 1v-308h381v308h68v-708zM482 760h-63l-69 68l-68 -68h-64l101 115h62z" />
    <glyph glyph-name="hcircumflex" unicode="&#x125;" horiz-adv-x="603" 
d="M521 0h-66q1 293 1 313q0 89 -29 131.5t-103 42.5q-39 0 -71.5 -15.5t-54 -41t-32.5 -43.5t-19 -37v-350h-66v760h64l2 -331q24 43 70.5 79.5t117.5 36.5q99 0 143 -50.5t44 -176.5zM247 789h-63l-69 68l-68 -68h-64l101 115h62z" />
    <glyph glyph-name="Hbar" unicode="&#x126;" horiz-adv-x="697" 
d="M607 0h-68v335h-381v-335h-68v707l68 1v-308h381v308h68v-708zM675 524h-646v53h646v-53z" />
    <glyph glyph-name="hbar" unicode="&#x127;" horiz-adv-x="603" 
d="M521 0h-66q1 293 1 313q0 89 -29 131.5t-103 42.5q-39 0 -71.5 -15.5t-54 -41t-32.5 -43.5t-19 -37v-350h-66v760h64l2 -331q24 43 70.5 79.5t117.5 36.5q99 0 143 -50.5t44 -176.5zM285 594h-275v47h275v-47z" />
    <glyph glyph-name="Itilde" unicode="&#x128;" horiz-adv-x="248" 
d="M158 0h-68v708h68v-708zM213 865h40q0 -101 -76 -101q-31 0 -55.5 21t-44.5 21q-43 0 -43 -46h-39q0 99 77 99q31 0 55 -20t43 -20q25 0 34 15t9 31z" />
    <glyph glyph-name="itilde" unicode="&#x129;" horiz-adv-x="224" 
d="M144 0h-66v535h66v-535zM202 730h39q0 -45 -15.5 -71t-60.5 -26q-31 0 -55.5 21.5t-44.5 21.5q-25 0 -34.5 -15.5t-9.5 -31.5h-38q0 95 77 95q31 0 55 -20t43 -20q25 0 34.5 15t9.5 31z" />
    <glyph glyph-name="Imacron" unicode="&#x12a;" horiz-adv-x="248" 
d="M158 0h-68v708h68v-708zM240 786h-233v53h233v-53z" />
    <glyph glyph-name="imacron" unicode="&#x12b;" horiz-adv-x="224" 
d="M144 0h-66v535h66v-535zM228 655h-233v53h233v-53z" />
    <glyph glyph-name="Ibreve" unicode="&#x12c;" horiz-adv-x="248" 
d="M158 0h-68v708h68v-708zM195 865h53q0 -41 -32.5 -73t-91.5 -32t-91.5 32t-32.5 73h54q0 -20 20 -37.5t50 -17.5q31 0 51 17.5t20 37.5z" />
    <glyph glyph-name="ibreve" unicode="&#x12d;" horiz-adv-x="224" 
d="M144 0h-66v535h66v-535zM184 741h52q0 -44 -33.5 -79t-90.5 -35t-90.5 35t-33.5 79h53q0 -21 20.5 -41.5t50.5 -20.5t51 20.5t21 41.5z" />
    <glyph glyph-name="Iogonek" unicode="&#x12e;" horiz-adv-x="248" 
d="M158 0h-68v708h68v-708zM150 -122v-40q-28 -19 -72 -19q-36 0 -55.5 19.5t-19.5 51.5q0 33 23 63t46 43l24 14l49 -8q-3 -1 -8.5 -4t-20 -12.5t-25 -20t-19.5 -26.5t-9 -33q0 -20 11 -30.5t28 -10.5q11 0 23 3.5t19 6.5z" />
    <glyph glyph-name="iogonek" unicode="&#x12f;" horiz-adv-x="224" 
d="M144 0h-66v535h66v-535zM146 630h-67v123h67v-123zM138 -122v-40q-28 -19 -72 -19q-36 0 -55.5 19.5t-19.5 51.5q0 33 23 63t46 43l24 14l49 -8q-3 -1 -8.5 -4t-20 -12.5t-25 -20t-19.5 -26.5t-9 -33q0 -20 11 -30.5t28 -10.5q11 0 23 3.5t19 6.5z" />
    <glyph glyph-name="Idotaccent" unicode="&#x130;" horiz-adv-x="248" 
d="M158 0h-68v708h68v-708zM158 760h-67v123h67v-123z" />
    <glyph glyph-name="dotlessi" unicode="&#x131;" horiz-adv-x="224" 
d="M144 0h-66v535h66v-535z" />
    <glyph glyph-name="IJ" unicode="&#x132;" horiz-adv-x="632" 
d="M158 0h-68v708h68v-708zM313 0h-58v66h58q109 0 141 42.5t32 176.5l-1 417h68l2 -417q0 -57 -3 -95t-12 -72.5t-25.5 -54.5t-43.5 -35.5t-65.5 -21.5t-92.5 -6z" />
    <glyph glyph-name="ij" unicode="&#x133;" horiz-adv-x="467" 
d="M144 0h-66v535h66v-535zM146 630h-67v123h67v-123zM197 -188v57q30 0 50 3t33.5 13t20.5 19.5t10.5 32.5t4 40.5t0.5 55.5v502h66v-502q0 -47 -2 -75.5t-8.5 -56t-18.5 -42.5t-33 -27t-50.5 -16t-72.5 -4zM383 630h-67v123h67v-123z" />
    <glyph glyph-name="Jcircumflex" unicode="&#x134;" horiz-adv-x="384" 
d="M65 0h-58v66h58q109 0 141 42.5t32 176.5l-1 417h68l2 -417q0 -57 -3 -95t-12 -72.5t-25.5 -54.5t-43.5 -35.5t-65.5 -21.5t-92.5 -6zM321 760h-63l-69 68l-68 -68h-64l101 115h62z" />
    <glyph glyph-name="jcircumflex" unicode="&#x135;" horiz-adv-x="243" 
d="M-27 -188v57q30 0 50 3t33.5 13t20.5 19.5t10.5 32.5t4 40.5t0.5 55.5v502h66v-502q0 -47 -2 -75.5t-8.5 -56t-18.5 -42.5t-33 -27t-50.5 -16t-72.5 -4zM261 629h-65l-70 88l-70 -88h-66l108 138h55z" />
    <glyph glyph-name="Kcommaaccent" unicode="&#x136;" horiz-adv-x="602" 
d="M593 0h-77l-246 343l-112 -131v-212h-68v708h68v-417l345 417h81l-272 -316zM290 -232h-58q22 43 37 98q6 22 9.5 43.5t3.5 32.5l1 11h67q-3 -42 -18 -90q-8 -26 -18.5 -49.5t-17.5 -34.5z" />
    <glyph glyph-name="kcommaaccent" unicode="&#x137;" horiz-adv-x="510" 
d="M507 0h-75l-198 277l-82 -87v-190h-66v760h66v-497l246 272h80l-201 -213zM251 -232h-58q22 43 37 98q6 22 9.5 43.5t4.5 32.5v11h67q-3 -42 -18 -90q-8 -26 -18.5 -49.5t-16.5 -34.5z" />
    <glyph glyph-name="kgreenlandic" unicode="&#x138;" horiz-adv-x="510" 
d="M507 0h-75l-198 277l-82 -87v-190h-66v535h66v-272l246 272h80l-201 -213z" />
    <glyph glyph-name="Lacute" unicode="&#x139;" horiz-adv-x="502" 
d="M485 0h-395v708h68v-645h327v-63zM165 760h-61l71 126h77z" />
    <glyph glyph-name="lacute" unicode="&#x13a;" horiz-adv-x="239" 
d="M152 0h-66v760h66v-760zM150 808h-61l71 126h77z" />
    <glyph glyph-name="Lcommaaccent" unicode="&#x13b;" horiz-adv-x="502" 
d="M485 0h-395v708h68v-645h327v-63zM259 -232h-58q22 43 37 98q6 22 9.5 43.5t4.5 32.5v11h67q-3 -42 -18 -90q-8 -26 -18.5 -49.5t-16.5 -34.5z" />
    <glyph glyph-name="lcommaaccent" unicode="&#x13c;" horiz-adv-x="239" 
d="M152 0h-66v760h66v-760zM88 -232h-58q22 43 37 98q6 22 9.5 43.5t3.5 32.5l1 11h67q-3 -42 -18 -90q-8 -26 -18.5 -49.5t-17.5 -34.5z" />
    <glyph glyph-name="Lcaron" unicode="&#x13d;" horiz-adv-x="502" 
d="M485 0h-395v708h68v-645h327v-63zM307 625h-61l61 142h77z" />
    <glyph glyph-name="lcaron" unicode="&#x13e;" horiz-adv-x="239" 
d="M152 0h-66v760h66v-760zM239 607h-53l56 153h68z" />
    <glyph glyph-name="Ldot" unicode="&#x13f;" horiz-adv-x="502" 
d="M485 0h-395v708h68v-645h327v-63zM332 293h-67v119h67v-119z" />
    <glyph glyph-name="ldot" unicode="&#x140;" horiz-adv-x="287" 
d="M152 0h-66v760h66v-760zM261 325h-67v119h67v-119z" />
    <glyph glyph-name="Lslash" unicode="&#x141;" horiz-adv-x="502" 
d="M485 0h-395v708h68v-645h327v-63zM268 411l-257 -158l-26 45l256 158z" />
    <glyph glyph-name="lslash" unicode="&#x142;" horiz-adv-x="239" 
d="M152 0h-66v760h66v-760zM264 443l-257 -158l-26 45l256 158z" />
    <glyph glyph-name="Nacute" unicode="&#x143;" horiz-adv-x="718" 
d="M628 -2h-59v2l-15 -2l-403 618l5 -616h-66l3 708h58v-3l17 3l400 -614l-6 614h66v-710zM391 760h-61l71 126h77z" />
    <glyph glyph-name="nacute" unicode="&#x144;" horiz-adv-x="603" 
d="M521 0h-66q1 293 1 313q0 89 -29 131.5t-103 42.5q-109 0 -168 -118v-369h-66v387l-9 148h56l12 -102q25 43 71.5 77.5t114.5 34.5q99 0 143 -50.5t44 -176.5zM329 629h-61l71 138h77z" />
    <glyph glyph-name="Ncommaaccent" unicode="&#x145;" horiz-adv-x="718" 
d="M628 -2h-59v2l-15 -2l-403 618l5 -616h-66l3 708h58v-3l17 3l400 -614l-6 614h66v-710zM337 -232h-58q22 43 37 98q6 22 9.5 43.5t4.5 32.5v11h67q-3 -42 -18 -90q-8 -26 -18.5 -49.5t-16.5 -34.5z" />
    <glyph glyph-name="ncommaaccent" unicode="&#x146;" horiz-adv-x="603" 
d="M521 0h-66q1 293 1 313q0 89 -29 131.5t-103 42.5q-109 0 -168 -118v-369h-66v387l-9 148h56l12 -102q25 43 71.5 77.5t114.5 34.5q99 0 143 -50.5t44 -176.5zM281 -232h-58q22 43 37 98q6 22 9.5 43.5t4.5 32.5v11h67q-3 -42 -18 -90q-8 -26 -18.5 -49.5t-16.5 -34.5z
" />
    <glyph glyph-name="Ncaron" unicode="&#x147;" horiz-adv-x="718" 
d="M628 -2h-59v2l-15 -2l-403 618l5 -616h-66l3 708h58v-3l17 3l400 -614l-6 614h66v-710zM392 760h-62l-101 115h63l68 -69l69 69h64z" />
    <glyph glyph-name="ncaron" unicode="&#x148;" horiz-adv-x="603" 
d="M521 0h-66q1 293 1 313q0 89 -29 131.5t-103 42.5q-109 0 -168 -118v-369h-66v387l-9 148h56l12 -102q25 43 71.5 77.5t114.5 34.5q99 0 143 -50.5t44 -176.5zM340 629h-55l-108 138h65l70 -89l71 89h65z" />
    <glyph glyph-name="Eng" unicode="&#x14a;" horiz-adv-x="718" 
d="M434 -221h-54v62h58q71 0 98.5 37.5t27.5 120.5l-413 618l5 -617h-66l3 708h58v-3l17 3l400 -614l-6 614h66v-710q0 -110 -41 -164.5t-153 -54.5z" />
    <glyph glyph-name="eng" unicode="&#x14b;" horiz-adv-x="603" 
d="M521 0h-1q-2 -104 -37 -141t-147 -37v57q22 0 39 1.5t29.5 7.5t21 10.5t14 17.5t8.5 21t4.5 29t2 34t0.5 43v271h1q0 88 -29.5 130.5t-102.5 42.5q-109 0 -168 -118v-369h-66v387l-9 148h56l12 -102q25 43 71.5 77.5t114.5 34.5q99 0 143 -50.5t44 -176.5z" />
    <glyph glyph-name="Omacron" unicode="&#x14c;" 
d="M60 353q0 186 65.5 279t223.5 93t223.5 -93t65.5 -279q0 -185 -65.5 -277.5t-223.5 -92.5t-223.5 92t-65.5 278zM569 353q0 161 -50.5 236t-170.5 75t-170 -75t-50 -236t50 -235t170 -74t170.5 74t50.5 235zM465 790h-233v53h233v-53z" />
    <glyph glyph-name="omacron" unicode="&#x14d;" horiz-adv-x="582" 
d="M290 -11q-129 0 -181.5 71.5t-52.5 205.5q0 65 11.5 114t37 87.5t72.5 58.5t113 20q129 1 182 -72t53 -208q0 -134 -52.5 -205.5t-182.5 -71.5zM291 43q92 0 129.5 54.5t37.5 168.5t-38 170t-129 56t-129 -56t-38 -170t37.5 -168.5t129.5 -54.5zM406 650h-233v53h233v-53
z" />
    <glyph glyph-name="Obreve" unicode="&#x14e;" 
d="M60 353q0 186 65.5 279t223.5 93t223.5 -93t65.5 -279q0 -185 -65.5 -277.5t-223.5 -92.5t-223.5 92t-65.5 278zM569 353q0 161 -50.5 236t-170.5 75t-170 -75t-50 -236t50 -235t170 -74t170.5 74t50.5 235zM420 869h53q0 -41 -32.5 -73t-91.5 -32t-91.5 32t-32.5 73h54
q0 -20 20 -37.5t50 -17.5q31 0 51 17.5t20 37.5z" />
    <glyph glyph-name="obreve" unicode="&#x14f;" horiz-adv-x="582" 
d="M290 -11q-129 0 -181.5 71.5t-52.5 205.5q0 65 11.5 114t37 87.5t72.5 58.5t113 20q129 1 182 -72t53 -208q0 -134 -52.5 -205.5t-182.5 -71.5zM291 43q92 0 129.5 54.5t37.5 168.5t-38 170t-129 56t-129 -56t-38 -170t37.5 -168.5t129.5 -54.5zM362 736h52
q0 -44 -33.5 -79t-90.5 -35t-90.5 35t-33.5 79h53q0 -21 20.5 -41.5t50.5 -20.5t51 20.5t21 41.5z" />
    <glyph glyph-name="Ohungarumlaut" unicode="&#x150;" 
d="M60 353q0 186 65.5 279t223.5 93t223.5 -93t65.5 -279q0 -185 -65.5 -277.5t-223.5 -92.5t-223.5 92t-65.5 278zM569 353q0 161 -50.5 236t-170.5 75t-170 -75t-50 -236t50 -235t170 -74t170.5 74t50.5 235zM300 764h-61l66 126h77zM434 764h-61l79 126h77z" />
    <glyph glyph-name="ohungarumlaut" unicode="&#x151;" horiz-adv-x="582" 
d="M290 -11q-129 0 -181.5 71.5t-52.5 205.5q0 65 11.5 114t37 87.5t72.5 58.5t113 20q129 1 182 -72t53 -208q0 -134 -52.5 -205.5t-182.5 -71.5zM291 43q92 0 129.5 54.5t37.5 168.5t-38 170t-129 56t-129 -56t-38 -170t37.5 -168.5t129.5 -54.5zM239 624h-61l66 138h77z
M374 624h-61l79 138h76z" />
    <glyph glyph-name="OE" unicode="&#x152;" horiz-adv-x="963" 
d="M937 0h-596q-152 0 -216.5 90.5t-64.5 262.5t64.5 263.5t216.5 91.5h591v-61h-379v-249h329v-59h-329v-278h384v-61zM485 57v593h-136q-119 0 -170 -73.5t-51 -223.5t51 -223t170 -73h136z" />
    <glyph glyph-name="oe" unicode="&#x153;" horiz-adv-x="969" 
d="M841 161h67q0 -18 -5 -38t-20.5 -44.5t-39.5 -44t-66 -32.5t-95 -13q-147 0 -194 103q-49 -103 -198 -103q-129 0 -181.5 71.5t-52.5 205.5q0 65 11.5 114t37 87.5t72.5 58.5t113 20q150 0 198 -107q48 107 194 107q118 0 174 -67t56 -220h-65l-328 1q0 -107 35 -163
t128 -56q44 0 77 13t49.5 33t24.5 38.5t8 35.5zM291 43q92 0 129 54.5t37 168.5t-37.5 170t-128.5 56t-129 -56t-38 -170t37.5 -168.5t129.5 -54.5zM520 309h325q-6 95 -44 140.5t-119 45.5q-83 0 -119.5 -49t-42.5 -137z" />
    <glyph glyph-name="Racute" unicode="&#x154;" horiz-adv-x="656" 
d="M617 0h-78l-147 283q-17 -1 -54 -1h-179v-282h-69v710h250q142 0 199.5 -46.5t57.5 -167.5q0 -93 -32 -140t-105 -64zM159 344l179 -1q60 0 97.5 8t60.5 34q32 37 32 111q0 76 -34 113q-39 41 -156 41h-179v-306zM353 760h-61l71 126h77z" />
    <glyph glyph-name="racute" unicode="&#x155;" horiz-adv-x="369" 
d="M156 0h-66v384l-9 151h56l14 -116q6 19 17.5 37t32.5 40.5t58.5 36t84.5 13.5v-61q-40 0 -73.5 -13t-52.5 -31t-33.5 -42t-20 -40t-8.5 -31v-328zM215 629h-61l71 138h77z" />
    <glyph glyph-name="Rcommaaccent" unicode="&#x156;" horiz-adv-x="656" 
d="M617 0h-78l-147 283q-17 -1 -54 -1h-179v-282h-69v710h250q142 0 199.5 -46.5t57.5 -167.5q0 -93 -32 -140t-105 -64zM159 344l179 -1q60 0 97.5 8t60.5 34q32 37 32 111q0 76 -34 113q-39 41 -156 41h-179v-306zM311 -232h-58q22 43 37 98q6 22 9.5 43.5t4.5 32.5v11h67
q-3 -42 -18 -90q-8 -26 -18.5 -49.5t-16.5 -34.5z" />
    <glyph glyph-name="rcommaaccent" unicode="&#x157;" horiz-adv-x="369" 
d="M156 0h-66v384l-9 151h56l14 -116q6 19 17.5 37t32.5 40.5t58.5 36t84.5 13.5v-61q-40 0 -73.5 -13t-52.5 -31t-33.5 -42t-20 -40t-8.5 -31v-328zM96 -232h-58q22 43 37 98q6 22 9.5 43.5t3.5 32.5l1 11h67q-3 -42 -18 -90q-8 -26 -18.5 -49.5t-17.5 -34.5z" />
    <glyph glyph-name="Rcaron" unicode="&#x158;" horiz-adv-x="656" 
d="M617 0h-78l-147 283q-17 -1 -54 -1h-179v-282h-69v710h250q142 0 199.5 -46.5t57.5 -167.5q0 -93 -32 -140t-105 -64zM159 344l179 -1q60 0 97.5 8t60.5 34q32 37 32 111q0 76 -34 113q-39 41 -156 41h-179v-306zM354 760h-62l-101 115h63l68 -69l69 69h64z" />
    <glyph glyph-name="rcaron" unicode="&#x159;" horiz-adv-x="369" 
d="M156 0h-66v384l-9 151h56l14 -116q6 19 17.5 37t32.5 40.5t58.5 36t84.5 13.5v-61q-40 0 -73.5 -13t-52.5 -31t-33.5 -42t-20 -40t-8.5 -31v-328zM226 629h-55l-108 138h65l70 -89l71 89h65z" />
    <glyph glyph-name="Sacute" unicode="&#x15a;" horiz-adv-x="625" 
d="M562 520h-66q0 59 -43.5 101.5t-140.5 43.5q-176 1 -176 -128q0 -52 33 -83.5t82 -42.5t107 -25.5t107 -31.5t82 -61.5t33 -114.5q0 -95 -67 -145.5t-199 -49.5q-265 2 -265 229h66q0 -79 50.5 -123t146.5 -45q102 -1 150 35t48 97q0 48 -24.5 79t-63.5 45.5t-86.5 24.5
t-94.5 22.5t-86 32t-63.5 60t-24.5 99.5q0 89 59.5 138t183.5 48q128 -1 190 -55.5t62 -149.5zM347 764h-61l71 126h77z" />
    <glyph glyph-name="sacute" unicode="&#x15b;" horiz-adv-x="523" 
d="M466 382h-60q0 111 -141 112q-77 1 -109 -26t-32 -67q0 -42 36.5 -64.5t89 -32t105 -22t89 -47t36.5 -95.5q0 -152 -219 -151q-215 3 -215 177h60q0 -123 155 -125q152 -1 152 95q0 39 -26 62.5t-65.5 31.5t-85.5 19t-85.5 23.5t-66.5 45t-27 83.5q0 68 52.5 106.5
t153.5 37.5q203 -1 203 -163zM280 629h-61l71 138h77z" />
    <glyph glyph-name="Scircumflex" unicode="&#x15c;" horiz-adv-x="625" 
d="M562 520h-66q0 59 -43.5 101.5t-140.5 43.5q-176 1 -176 -128q0 -52 33 -83.5t82 -42.5t107 -25.5t107 -31.5t82 -61.5t33 -114.5q0 -95 -67 -145.5t-199 -49.5q-265 2 -265 229h66q0 -79 50.5 -123t146.5 -45q102 -1 150 35t48 97q0 48 -24.5 79t-63.5 45.5t-86.5 24.5
t-94.5 22.5t-86 32t-63.5 60t-24.5 99.5q0 89 59.5 138t183.5 48q128 -1 190 -55.5t62 -149.5zM449 764h-63l-69 68l-68 -68h-64l101 115h62z" />
    <glyph glyph-name="scircumflex" unicode="&#x15d;" horiz-adv-x="523" 
d="M466 382h-60q0 111 -141 112q-77 1 -109 -26t-32 -67q0 -42 36.5 -64.5t89 -32t105 -22t89 -47t36.5 -95.5q0 -152 -219 -151q-215 3 -215 177h60q0 -123 155 -125q152 -1 152 95q0 39 -26 62.5t-65.5 31.5t-85.5 19t-85.5 23.5t-66.5 45t-27 83.5q0 68 52.5 106.5
t153.5 37.5q203 -1 203 -163zM399 629h-65l-70 88l-70 -88h-66l108 138h55z" />
    <glyph glyph-name="Scedilla" unicode="&#x15e;" horiz-adv-x="625" 
d="M562 520h-66q0 59 -43.5 101.5t-140.5 43.5q-176 1 -176 -128q0 -52 33 -83.5t82 -42.5t107 -25.5t107 -31.5t82 -61.5t33 -114.5q0 -95 -67 -145.5t-199 -49.5q-265 2 -265 229h66q0 -79 50.5 -123t146.5 -45q102 -1 150 35t48 97q0 48 -24.5 79t-63.5 45.5t-86.5 24.5
t-94.5 22.5t-86 32t-63.5 60t-24.5 99.5q0 89 59.5 138t183.5 48q128 -1 190 -55.5t62 -149.5zM234 -216v43q20 -5 53 -5q34 0 49.5 9.5t15.5 36.5q0 46 -92 46h-5l41 83h56l-30 -55q88 -7 88 -77q0 -86 -112 -86q-20 0 -36 1.5t-22 2.5z" />
    <glyph glyph-name="scedilla" unicode="&#x15f;" horiz-adv-x="523" 
d="M466 382h-60q0 111 -141 112q-77 1 -109 -26t-32 -67q0 -42 36.5 -64.5t89 -32t105 -22t89 -47t36.5 -95.5q0 -152 -219 -151q-215 3 -215 177h60q0 -123 155 -125q152 -1 152 95q0 39 -26 62.5t-65.5 31.5t-85.5 19t-85.5 23.5t-66.5 45t-27 83.5q0 68 52.5 106.5
t153.5 37.5q203 -1 203 -163zM180 -211v43q20 -5 53 -5q34 0 49.5 9.5t15.5 36.5q0 46 -92 46h-5l41 83h56l-30 -55q88 -7 88 -77q0 -86 -112 -86q-20 0 -36 1t-22 3z" />
    <glyph glyph-name="Scaron" unicode="&#x160;" horiz-adv-x="625" 
d="M562 520h-66q0 59 -43.5 101.5t-140.5 43.5q-176 1 -176 -128q0 -52 33 -83.5t82 -42.5t107 -25.5t107 -31.5t82 -61.5t33 -114.5q0 -95 -67 -145.5t-199 -49.5q-265 2 -265 229h66q0 -79 50.5 -123t146.5 -45q102 -1 150 35t48 97q0 48 -24.5 79t-63.5 45.5t-86.5 24.5
t-94.5 22.5t-86 32t-63.5 60t-24.5 99.5q0 89 59.5 138t183.5 48q128 -1 190 -55.5t62 -149.5zM348 764h-62l-101 115h63l68 -69l69 69h64z" />
    <glyph glyph-name="scaron" unicode="&#x161;" horiz-adv-x="523" 
d="M466 382h-60q0 111 -141 112q-77 1 -109 -26t-32 -67q0 -42 36.5 -64.5t89 -32t105 -22t89 -47t36.5 -95.5q0 -152 -219 -151q-215 3 -215 177h60q0 -123 155 -125q152 -1 152 95q0 39 -26 62.5t-65.5 31.5t-85.5 19t-85.5 23.5t-66.5 45t-27 83.5q0 68 52.5 106.5
t153.5 37.5q203 -1 203 -163zM291 629h-55l-108 138h65l70 -89l71 89h65z" />
    <glyph glyph-name="uni0162" unicode="&#x162;" horiz-adv-x="545" 
d="M302 0h-68l3 645h-223v63h517v-63h-226zM175 -212v43q20 -5 53 -5q34 0 49.5 9.5t15.5 36.5q0 46 -92 46h-5l41 83h56l-30 -55q88 -7 88 -77q0 -86 -112 -86q-20 0 -36 1.5t-22 2.5z" />
    <glyph glyph-name="uni0163" unicode="&#x163;" horiz-adv-x="332" 
d="M309 -2h-57q-51 0 -83.5 15t-47 46t-19 61.5t-4.5 77.5v283h-68v54h68v155l66 13v-168h140v-54h-140v-283q0 -75 19 -110t76 -35h50v-55zM117 -201v43q20 -5 53 -5q34 0 49.5 9.5t15.5 36.5q0 46 -92 46h-5l41 83h56l-30 -55q88 -7 88 -77q0 -86 -112 -86q-20 0 -36 1
t-22 3z" />
    <glyph glyph-name="Tcaron" unicode="&#x164;" horiz-adv-x="545" 
d="M302 0h-68l3 645h-223v63h517v-63h-226zM305 760h-62l-101 115h63l68 -69l69 69h64z" />
    <glyph glyph-name="tcaron" unicode="&#x165;" horiz-adv-x="332" 
d="M309 -2h-57q-51 0 -83.5 15t-47 46t-19 61.5t-4.5 77.5v283h-68v54h68v155l66 13v-168h140v-54h-140v-283q0 -75 19 -110t76 -35h50v-55zM269 598h-53l56 153h68z" />
    <glyph glyph-name="Tbar" unicode="&#x166;" horiz-adv-x="557" 
d="M309 0h-68l2 328h-122v54h122l1 263h-224v63h517v-63h-225l-1 -263h125v-54h-125z" />
    <glyph glyph-name="tbar" unicode="&#x167;" horiz-adv-x="332" 
d="M309 -2h-57q-51 0 -83.5 15t-47 46t-19 61.5t-4.5 77.5v283h-68v54h68v155l66 13v-168h140v-54h-140v-283q0 -75 19 -110t76 -35h50v-55zM302 259h-275v47h275v-47z" />
    <glyph glyph-name="Utilde" unicode="&#x168;" horiz-adv-x="689" 
d="M542 346v362h70v-362q0 -187 -58 -275t-210 -88t-209.5 88t-57.5 275v362h68v-362q0 -163 42.5 -232.5t156.5 -69.5q113 0 155.5 69.5t42.5 232.5zM434 865h40q0 -101 -76 -101q-31 0 -55.5 21t-44.5 21q-43 0 -43 -46h-39q0 99 77 99q31 0 55 -20t43 -20q25 0 34 15
t9 31z" />
    <glyph glyph-name="utilde" unicode="&#x169;" horiz-adv-x="590" 
d="M515 0h-57l-14 114q-20 -43 -68 -84t-121 -41q-97 0 -141.5 50.5t-44.5 173.5l1 322h65v-313q0 -88 28.5 -131t101.5 -43q38 0 70.5 16t53.5 41.5t32 43.5t19 36v350h66v-387zM383 730h39q0 -45 -15.5 -71t-60.5 -26q-31 0 -55.5 21.5t-44.5 21.5q-25 0 -34.5 -15.5
t-9.5 -31.5h-38q0 95 77 95q31 0 55 -20t43 -20q25 0 34.5 15t9.5 31z" />
    <glyph glyph-name="Umacron" unicode="&#x16a;" horiz-adv-x="689" 
d="M542 346v362h70v-362q0 -187 -58 -275t-210 -88t-209.5 88t-57.5 275v362h68v-362q0 -163 42.5 -232.5t156.5 -69.5q113 0 155.5 69.5t42.5 232.5zM461 786h-233v53h233v-53z" />
    <glyph glyph-name="umacron" unicode="&#x16b;" horiz-adv-x="590" 
d="M515 0h-57l-14 114q-20 -43 -68 -84t-121 -41q-97 0 -141.5 50.5t-44.5 173.5l1 322h65v-313q0 -88 28.5 -131t101.5 -43q38 0 70.5 16t53.5 41.5t32 43.5t19 36v350h66v-387zM409 655h-233v53h233v-53z" />
    <glyph glyph-name="Ubreve" unicode="&#x16c;" horiz-adv-x="689" 
d="M542 346v362h70v-362q0 -187 -58 -275t-210 -88t-209.5 88t-57.5 275v362h68v-362q0 -163 42.5 -232.5t156.5 -69.5q113 0 155.5 69.5t42.5 232.5zM416 865h53q0 -41 -32.5 -73t-91.5 -32t-91.5 32t-32.5 73h54q0 -20 20 -37.5t50 -17.5q31 0 51 17.5t20 37.5z" />
    <glyph glyph-name="ubreve" unicode="&#x16d;" horiz-adv-x="590" 
d="M515 0h-57l-14 114q-20 -43 -68 -84t-121 -41q-97 0 -141.5 50.5t-44.5 173.5l1 322h65v-313q0 -88 28.5 -131t101.5 -43q38 0 70.5 16t53.5 41.5t32 43.5t19 36v350h66v-387zM365 741h52q0 -44 -33.5 -79t-90.5 -35t-90.5 35t-33.5 79h53q0 -21 20.5 -41.5t50.5 -20.5
t51 20.5t21 41.5z" />
    <glyph glyph-name="Uring" unicode="&#x16e;" horiz-adv-x="689" 
d="M542 346v362h70v-362q0 -187 -58 -275t-210 -88t-209.5 88t-57.5 275v362h68v-362q0 -163 42.5 -232.5t156.5 -69.5q113 0 155.5 69.5t42.5 232.5zM423 835q0 -33 -20.5 -54t-57.5 -21t-57.5 21t-20.5 54t20.5 54t57.5 21t57.5 -21t20.5 -54zM344 797q17 0 27.5 10
t10.5 28q0 17 -10.5 27.5t-27.5 10.5t-27 -10.5t-10 -27.5q0 -18 10 -28t27 -10z" />
    <glyph glyph-name="uring" unicode="&#x16f;" horiz-adv-x="590" 
d="M515 0h-57l-14 114q-20 -43 -68 -84t-121 -41q-97 0 -141.5 50.5t-44.5 173.5l1 322h65v-313q0 -88 28.5 -131t101.5 -43q38 0 70.5 16t53.5 41.5t32 43.5t19 36v350h66v-387zM378 708q0 -35 -22.5 -58.5t-63.5 -23.5t-63 23.5t-22 58.5t22 58.5t63 23.5t63.5 -23.5
t22.5 -58.5zM292 670q17 0 27.5 10t10.5 28q0 17 -10.5 27.5t-27.5 10.5t-27 -10.5t-10 -27.5q0 -18 10 -28t27 -10z" />
    <glyph glyph-name="Uhungarumlaut" unicode="&#x170;" horiz-adv-x="689" 
d="M542 346v362h70v-362q0 -187 -58 -275t-210 -88t-209.5 88t-57.5 275v362h68v-362q0 -163 42.5 -232.5t156.5 -69.5q113 0 155.5 69.5t42.5 232.5zM296 760h-61l66 126h77zM430 760h-61l79 126h77z" />
    <glyph glyph-name="uhungarumlaut" unicode="&#x171;" horiz-adv-x="590" 
d="M515 0h-57l-14 114q-20 -43 -68 -84t-121 -41q-97 0 -141.5 50.5t-44.5 173.5l1 322h65v-313q0 -88 28.5 -131t101.5 -43q38 0 70.5 16t53.5 41.5t32 43.5t19 36v350h66v-387zM242 629h-61l66 138h77zM377 629h-61l79 138h76z" />
    <glyph glyph-name="Uogonek" unicode="&#x172;" horiz-adv-x="689" 
d="M542 346v362h70v-362q0 -187 -58 -275t-210 -88t-209.5 88t-57.5 275v362h68v-362q0 -163 42.5 -232.5t156.5 -69.5q113 0 155.5 69.5t42.5 232.5zM516 -98v-40q-28 -19 -72 -19q-36 0 -55.5 19.5t-19.5 51.5q0 33 23.5 63t46.5 43l23 14l49 -8q-3 -1 -8.5 -4t-20 -12.5
t-25 -20t-19.5 -26.5t-9 -33q0 -20 11 -30.5t28 -10.5q11 0 23 3.5t19 6.5z" />
    <glyph glyph-name="uogonek" unicode="&#x173;" horiz-adv-x="590" 
d="M515 0h-57l-14 114q-20 -43 -68 -84t-121 -41q-97 0 -141.5 50.5t-44.5 173.5l1 322h65v-313q0 -88 28.5 -131t101.5 -43q38 0 70.5 16t53.5 41.5t32 43.5t19 36v350h66v-387zM518 -123v-40q-28 -19 -72 -19q-36 0 -55.5 19t-19.5 52t23.5 63t46.5 44l23 13l49 -8
q-3 -1 -8.5 -4t-20 -12.5t-25 -20t-19.5 -26.5t-9 -33q0 -20 11 -30.5t28 -10.5q11 0 23 3t19 7z" />
    <glyph glyph-name="Wcircumflex" unicode="&#x174;" horiz-adv-x="950" 
d="M726 0h-71l-183 612l-176 -612h-68l-219 708h75l178 -625l176 625h70l187 -629l174 629h71zM610 760h-63l-69 68l-68 -68h-64l101 115h62z" />
    <glyph glyph-name="wcircumflex" unicode="&#x175;" horiz-adv-x="746" 
d="M574 0h-63l-137 452l-131 -452h-64l-173 535h69l137 -461l133 461h62l136 -460l133 460h65zM510 629h-65l-70 88l-70 -88h-66l108 138h55z" />
    <glyph glyph-name="Ycircumflex" unicode="&#x176;" horiz-adv-x="587" 
d="M333 0h-69v271l-255 437h79l211 -369l202 369h76l-244 -435v-273zM425 760h-63l-69 68l-68 -68h-64l101 115h62z" />
    <glyph glyph-name="ycircumflex" unicode="&#x177;" horiz-adv-x="502" 
d="M216 -219h-61l78 219h-19l-206 535h75l171 -476l169 476h71zM384 629h-65l-70 88l-70 -88h-66l108 138h55z" />
    <glyph glyph-name="Ydieresis" unicode="&#x178;" horiz-adv-x="587" 
d="M333 0h-69v271l-255 437h79l211 -369l202 369h76l-244 -435v-273zM251 760h-67v123h67v-123zM400 760h-67v123h67v-123z" />
    <glyph glyph-name="Zacute" unicode="&#x179;" horiz-adv-x="555" 
d="M528 4h-505v67l429 573h-404v60h476v-68l-429 -572h433v-60zM316 760h-61l71 126h77z" />
    <glyph glyph-name="zacute" unicode="&#x17a;" horiz-adv-x="443" 
d="M414 5h-390v54h1l-1 11l326 407l-316 -1v54h380v-53h-1l1 -12l-326 -406l326 1v-55zM243 629h-61l71 138h77z" />
    <glyph glyph-name="Zdotaccent" unicode="&#x17b;" horiz-adv-x="555" 
d="M528 4h-505v67l429 573h-404v60h476v-68l-429 -572h433v-60zM319 760h-67v123h67v-123z" />
    <glyph glyph-name="zdotaccent" unicode="&#x17c;" horiz-adv-x="443" 
d="M414 5h-390v54h1l-1 11l326 407l-316 -1v54h380v-53h-1l1 -12l-326 -406l326 1v-55zM260 630h-67v123h67v-123z" />
    <glyph glyph-name="Zcaron" unicode="&#x17d;" horiz-adv-x="555" 
d="M528 4h-505v67l429 573h-404v60h476v-68l-429 -572h433v-60zM317 760h-62l-101 115h63l68 -69l69 69h64z" />
    <glyph glyph-name="zcaron" unicode="&#x17e;" horiz-adv-x="443" 
d="M414 5h-390v54h1l-1 11l326 407l-316 -1v54h380v-53h-1l1 -12l-326 -406l326 1v-55zM254 629h-55l-108 138h65l70 -89l71 89h65z" />
    <glyph glyph-name="uni018F" unicode="&#x18f;" 
d="M128 357l441 -2q-1 160 -51 234.5t-169 74.5q-93 0 -143 -44t-67 -136h-70q20 121 86 181t194 60q158 0 223.5 -93t65.5 -279q0 -185 -65.5 -277.5t-223.5 -92.5q-159 0 -224 93t-65 281h68zM568 306h-439q7 -136 58 -199t162 -63t161.5 63t57.5 199z" />
    <glyph glyph-name="uni019D" unicode="&#x19d;" horiz-adv-x="719" 
d="M630 -2h-59v2l-13 -2l-406 619l5 -586h1q0 -134 -38.5 -193t-148.5 -59h-55v62h58q71 0 94 40.5t23 149.5h66v-31h-66v31l3 677h58v-3l17 3l401 -616l-6 616h66v-710z" />
    <glyph glyph-name="Gcaron" unicode="&#x1e6;" horiz-adv-x="670" 
d="M537 105v180h-150v58h214v-261q0 -5 -9 -16t-29.5 -25.5t-49 -27t-73 -21.5t-95.5 -9q-155 0 -220 91.5t-65 277.5q0 187 65 280t220 93q129 0 193.5 -64.5t64.5 -170.5h-67q-1 78 -50.5 126t-140.5 48q-117 0 -167 -75.5t-50 -236.5q0 -160 51 -234t170 -74
q55 0 101.5 13t66.5 27t20 21zM373 764h-62l-101 115h63l68 -69l69 69h64z" />
    <glyph glyph-name="gcaron" unicode="&#x1e7;" horiz-adv-x="599" 
d="M450 -1v79q-57 -87 -184 -87q-210 0 -210 275q0 278 210 278q70 0 117.5 -32t71.5 -68l12 91h57l-8 -140v-396q0 -43 -2.5 -69.5t-14.5 -62.5t-35.5 -56.5t-68.5 -35.5t-110 -15q-136 0 -184 90q-21 41 -21 94l62 1q0 -14 2 -27.5t10.5 -34t23 -35t43 -25.5t67.5 -11
q81 0 120 34q26 23 34 59.5t8 93.5zM450 172v204q-11 23 -28 45t-57 45.5t-89 23.5q-152 0 -152 -224q0 -221 152 -221q77 0 119.5 38.5t54.5 88.5zM323 629h-55l-108 138h65l70 -89l71 89h65z" />
    <glyph glyph-name="uni01EA" unicode="&#x1ea;" 
d="M60 353q0 186 65.5 279t223.5 93t223.5 -93t65.5 -279q0 -185 -65.5 -277.5t-223.5 -92.5t-223.5 92t-65.5 278zM569 353q0 161 -50.5 236t-170.5 75t-170 -75t-50 -236t50 -235t170 -74t170.5 74t50.5 235zM512 -106v-40q-28 -19 -72 -19q-36 0 -55.5 19.5t-19.5 51.5
q0 33 23.5 63t46.5 43l23 14l49 -8q-3 -1 -8.5 -4t-20 -12.5t-25 -20t-19.5 -26.5t-9 -33q0 -20 11 -30.5t28 -10.5q11 0 23 3.5t19 6.5z" />
    <glyph glyph-name="uni01EB" unicode="&#x1eb;" horiz-adv-x="582" 
d="M290 -11q-129 0 -181.5 71.5t-52.5 205.5q0 65 11.5 114t37 87.5t72.5 58.5t113 20q129 1 182 -72t53 -208q0 -134 -52.5 -205.5t-182.5 -71.5zM291 43q92 0 129.5 54.5t37.5 168.5t-38 170t-129 56t-129 -56t-38 -170t37.5 -168.5t129.5 -54.5zM437 -101v-40
q-28 -19 -72 -19q-37 0 -56 19t-19 52t23 63t47 44l23 13l49 -8q-3 -1 -8.5 -4t-20 -12.5t-25 -20t-19.5 -26.5t-9 -33q0 -20 11 -30.5t28 -10.5q11 0 23 3t18 7z" />
    <glyph glyph-name="Aringacute" unicode="&#x1fa;" horiz-adv-x="628" 
d="M618 0h-72l-71 191h-327l-70 -191h-69l272 708h67zM451 255l-140 376l-139 -376h279zM392 835q0 -33 -20.5 -54t-57.5 -21t-57.5 21t-20.5 54t20.5 54t57.5 21t57.5 -21t20.5 -54zM313 797q17 0 27.5 10t10.5 28q0 17 -10.5 27.5t-27.5 10.5t-27 -10.5t-10 -27.5
q0 -18 10 -28t27 -10zM345 962h-61l71 126h77z" />
    <glyph glyph-name="aringacute" unicode="&#x1fb;" horiz-adv-x="576" 
d="M502 1h-57l-11 80q-52 -91 -196 -91q-97 0 -139 38.5t-42 118.5q0 59 25 93q18 24 49 38.5t70.5 19.5t89.5 7t104 0h31q-1 69 -7 104.5t-26 55.5q-29 29 -105 29q-45 0 -76 -11.5t-45.5 -30.5t-20.5 -37.5t-6 -38.5h-60q0 28 7 53t26.5 53t63.5 45t109 17q112 0 158 -43
q28 -26 37.5 -67.5t10.5 -107.5v-61v-130zM426 152v107q-162 0 -204 -7q-84 -14 -98 -73q-4 -16 -4 -34q0 -107 130 -107q69 0 116 30t60 84zM370 708q0 -35 -22.5 -58.5t-63.5 -23.5t-63 23.5t-22 58.5t22 58.5t63 23.5t63.5 -23.5t22.5 -58.5zM284 670q17 0 27.5 10
t10.5 28q0 17 -10.5 27.5t-27.5 10.5t-27 -10.5t-10 -27.5q0 -18 10 -28t27 -10zM308 839h-61l71 138h77z" />
    <glyph glyph-name="AEacute" unicode="&#x1fc;" horiz-adv-x="904" 
d="M879 0h-449v191h-241l-106 -191h-74l398 708h467v-61h-380v-249h330v-59h-330v-278h385v-61zM430 255v369l-206 -369h206zM500 760h-61l71 126h77z" />
    <glyph glyph-name="aeacute" unicode="&#x1fd;" horiz-adv-x="931" 
d="M803 161h68q0 -18 -5 -38t-20.5 -44.5t-39.5 -44t-66 -32.5t-95 -13q-154 0 -204 110q-45 -109 -203 -109q-96 0 -138.5 41.5t-42.5 121.5q0 47 18.5 78.5t41 47.5t76.5 24t87.5 8.5t112.5 0.5h22q3 46 11 73q-7 59 -36.5 84t-101.5 25q-45 0 -76 -11.5t-45.5 -30.5
t-20.5 -37.5t-6 -38.5h-60q0 28 7 53t26.5 53t63.5 45t109 17q136 0 169 -85q55 87 190 87q118 0 174 -66t56 -216h-65l-329 1v-1q0 -52 7 -90t24.5 -69.5t50.5 -47.5t82 -16q44 0 77 13t49.5 33t24 38.5t7.5 35.5zM414 265v1q-158 1 -203 -9q-78 -16 -89 -78q-2 -12 -2 -27
q0 -114 130 -114q70 0 115.5 31t58.5 86q-10 46 -10 110zM482 314h326q-7 92 -45.5 136.5t-117.5 44.5q-82 0 -119 -47.5t-44 -133.5zM498 629h-61l71 138h77z" />
    <glyph glyph-name="Oslashacute" unicode="&#x1fe;" 
d="M60 353q0 186 65.5 279t223.5 93t223.5 -93t65.5 -279q0 -185 -65.5 -277.5t-223.5 -92.5t-223.5 92t-65.5 278zM569 353q0 161 -50.5 236t-170.5 75t-170 -75t-50 -236t50 -235t170 -74t170.5 74t50.5 235zM130 -10h-63l497 729h63zM375 764h-61l71 126h77z" />
    <glyph glyph-name="oslashacute" unicode="&#x1ff;" horiz-adv-x="582" 
d="M290 -11q-129 0 -181.5 71.5t-52.5 205.5q0 65 11.5 114t37 87.5t72.5 58.5t113 20q129 1 182 -72t53 -208q0 -134 -52.5 -205.5t-182.5 -71.5zM291 43q92 0 129.5 54.5t37.5 168.5t-38 170t-129 56t-129 -56t-38 -170t37.5 -168.5t129.5 -54.5zM122 -6h-58l393 548h58z
M307 624h-61l71 138h77z" />
    <glyph glyph-name="Scommaaccent" unicode="&#x218;" horiz-adv-x="625" 
d="M562 520h-66q0 59 -43.5 101.5t-140.5 43.5q-176 1 -176 -128q0 -52 33 -83.5t82 -42.5t107 -25.5t107 -31.5t82 -61.5t33 -114.5q0 -95 -67 -145.5t-199 -49.5q-265 2 -265 229h66q0 -79 50.5 -123t146.5 -45q102 -1 150 35t48 97q0 48 -24.5 79t-63.5 45.5t-86.5 24.5
t-94.5 22.5t-86 32t-63.5 60t-24.5 99.5q0 89 59.5 138t183.5 48q128 -1 190 -55.5t62 -149.5zM311 -238h-58q22 43 37 98q6 22 9.5 43.5t4.5 32.5v11h67q-3 -42 -18 -90q-8 -26 -18.5 -49.5t-16.5 -34.5z" />
    <glyph glyph-name="scommaaccent" unicode="&#x219;" horiz-adv-x="523" 
d="M466 382h-60q0 111 -141 112q-77 1 -109 -26t-32 -67q0 -42 36.5 -64.5t89 -32t105 -22t89 -47t36.5 -95.5q0 -152 -219 -151q-215 3 -215 177h60q0 -123 155 -125q152 -1 152 95q0 39 -26 62.5t-65.5 31.5t-85.5 19t-85.5 23.5t-66.5 45t-27 83.5q0 68 52.5 106.5
t153.5 37.5q203 -1 203 -163zM257 -233h-58q22 43 37 98q6 22 9.5 43.5t4.5 32.5v11h67q-3 -42 -18 -90q-8 -26 -18.5 -49.5t-16.5 -34.5z" />
    <glyph glyph-name="uni021A" unicode="&#x21a;" horiz-adv-x="557" 
d="M309 0h-68l3 645h-224v63h517v-63h-225zM245 -234h-58q22 43 37 99q6 22 9.5 43.5t4.5 31.5v11h67q-3 -42 -18 -90q-8 -26 -18.5 -49.5t-16.5 -34.5z" />
    <glyph glyph-name="uni021B" unicode="&#x21b;" horiz-adv-x="332" 
d="M309 -2h-57q-51 0 -83.5 15t-47 46t-19 61.5t-4.5 77.5v283h-68v54h68v155l66 13v-168h140v-54h-140v-283q0 -75 19 -110t76 -35h50v-55zM194 -223h-58q22 43 37 98q6 22 9.5 43.5t3.5 32.5l1 11h67q-3 -42 -18 -90q-8 -26 -18.5 -49.5t-17.5 -34.5z" />
    <glyph glyph-name="uni0232" unicode="&#x232;" horiz-adv-x="587" 
d="M333 0h-69v271l-255 437h79l211 -369l202 369h76l-244 -435v-273zM408 786h-233v53h233v-53z" />
    <glyph glyph-name="uni0233" unicode="&#x233;" horiz-adv-x="502" 
d="M216 -219h-61l78 219h-19l-206 535h75l171 -476l169 476h71zM364 655h-233v53h233v-53z" />
    <glyph glyph-name="uni0237" unicode="&#x237;" horiz-adv-x="243" 
d="M-27 -188v57q30 0 50 3t33.5 13t20.5 19.5t10.5 32.5t4 40.5t0.5 55.5v502h66v-502q0 -47 -2 -75.5t-8.5 -56t-18.5 -42.5t-33 -27t-50.5 -16t-72.5 -4z" />
    <glyph glyph-name="uni0259" unicode="&#x259;" horiz-adv-x="573" 
d="M121 276l329 -1q-1 107 -36.5 163t-127.5 56q-44 0 -77 -13t-49.5 -33t-24 -38.5t-7.5 -35.5h-68q0 18 5 38t20.5 44.5t39.5 44t66 32.5t95 13q124 0 177.5 -68.5t53.5 -207.5q0 -140 -54 -210.5t-177 -70.5q-118 0 -174 67t-56 220h65zM448 226h-326q7 -95 45.5 -141
t118.5 -46q82 0 119 49t43 138z" />
    <glyph glyph-name="uni0272" unicode="&#x272;" horiz-adv-x="606" 
d="M524 0h-66q1 293 1 313q0 89 -29 131.5t-103 42.5q-109 0 -168 -118v-50v-64l-1 -212q0 -47 -2 -75.5t-8.5 -56t-18.5 -42.5t-33 -27t-50.5 -16t-72.5 -4v57q22 0 39 1.5t29.5 7.5t21 10.5t14 17.5t8.5 21t4.5 29t2 34t0.5 43l1 271v73l-9 148h56l12 -102
q25 43 71.5 77.5t114.5 34.5q99 0 143 -50.5t44 -176.5z" />
    <glyph glyph-name="circumflex" unicode="&#x2c6;" horiz-adv-x="429" 
d="M320 629h-65l-70 88l-70 -88h-66l108 138h55z" />
    <glyph glyph-name="caron" unicode="&#x2c7;" horiz-adv-x="429" 
d="M212 629h-55l-108 138h65l70 -89l71 89h65z" />
    <glyph glyph-name="breve" unicode="&#x2d8;" horiz-adv-x="421" 
d="M237 741h52q0 -44 -33.5 -79t-90.5 -35t-90.5 35t-33.5 79h53q0 -21 20.5 -41.5t50.5 -20.5t51 20.5t21 41.5z" />
    <glyph glyph-name="dotaccent" unicode="&#x2d9;" horiz-adv-x="311" 
d="M133 630h-67v123h67v-123z" />
    <glyph glyph-name="ring" unicode="&#x2da;" horiz-adv-x="381" 
d="M222 708q0 -35 -22.5 -58.5t-63.5 -23.5t-63 23.5t-22 58.5t22 58.5t63 23.5t63.5 -23.5t22.5 -58.5zM136 670q17 0 27.5 10t10.5 28q0 17 -10.5 27.5t-27.5 10.5t-27 -10.5t-10 -27.5q0 -18 10 -28t27 -10z" />
    <glyph glyph-name="ogonek" unicode="&#x2db;" horiz-adv-x="379" 
d="M167 -122v-40q-28 -19 -72 -19q-37 0 -56 19.5t-19 51.5q0 33 23 63t47 43l23 14l49 -8q-3 -1 -8.5 -4t-20 -12.5t-25 -20t-19.5 -26.5t-9 -33q0 -20 11 -30.5t28 -10.5q11 0 23 3.5t18 6.5z" />
    <glyph glyph-name="tilde" unicode="&#x2dc;" horiz-adv-x="429" 
d="M280 730h39q0 -45 -15.5 -71t-60.5 -26q-31 0 -55.5 21.5t-44.5 21.5q-25 0 -34.5 -15.5t-9.5 -31.5h-38q0 95 77 95q31 0 55 -20t43 -20q25 0 34.5 15t9.5 31z" />
    <glyph glyph-name="hungarumlaut" unicode="&#x2dd;" horiz-adv-x="420" 
d="M117 629h-61l66 138h77zM252 629h-61l79 138h76z" />
    <glyph glyph-name="gravecomb" unicode="&#x300;" horiz-adv-x="257" 
d="M201 629h-61l-87 138h76z" />
    <glyph glyph-name="acutecomb" unicode="&#x301;" horiz-adv-x="257" 
d="M117 629h-61l71 138h77z" />
    <glyph glyph-name="uni0302" unicode="&#x302;" horiz-adv-x="369" 
d="M320 629h-65l-70 88l-70 -88h-66l108 138h55z" />
    <glyph glyph-name="tildecomb" unicode="&#x303;" horiz-adv-x="380" 
d="M280 730h39q0 -45 -15.5 -71t-60.5 -26q-31 0 -55.5 21.5t-44.5 21.5q-25 0 -34.5 -15.5t-9.5 -31.5h-38q0 95 77 95q31 0 55 -20t43 -20q25 0 34.5 15t9.5 31z" />
    <glyph glyph-name="uni0304" unicode="&#x304;" horiz-adv-x="353" 
d="M293 655h-233v53h233v-53z" />
    <glyph glyph-name="uni0306" unicode="&#x306;" horiz-adv-x="331" 
d="M237 741h52q0 -44 -33.5 -79t-90.5 -35t-90.5 35t-33.5 79h53q0 -21 20.5 -41.5t50.5 -20.5t51 20.5t21 41.5z" />
    <glyph glyph-name="uni0307" unicode="&#x307;" horiz-adv-x="197" 
d="M133 630h-67v123h67v-123z" />
    <glyph glyph-name="uni0308" unicode="&#x308;" horiz-adv-x="362" 
d="M139 630h-67v123h67v-123zM290 630h-67v123h67v-123z" />
    <glyph glyph-name="uni030A" unicode="&#x30a;" horiz-adv-x="274" 
d="M222 708q0 -35 -22.5 -58.5t-63.5 -23.5t-63 23.5t-22 58.5t22 58.5t63 23.5t63.5 -23.5t22.5 -58.5zM136 670q17 0 27.5 10t10.5 28q0 17 -10.5 27.5t-27.5 10.5t-27 -10.5t-10 -27.5q0 -18 10 -28t27 -10z" />
    <glyph glyph-name="uni030B" unicode="&#x30b;" horiz-adv-x="399" 
d="M117 629h-61l66 138h77zM252 629h-61l79 138h76z" />
    <glyph glyph-name="uni030C" unicode="&#x30c;" horiz-adv-x="369" 
d="M212 629h-55l-108 138h65l70 -89l71 89h65z" />
    <glyph glyph-name="uni0312" unicode="&#x312;" horiz-adv-x="231" 
d="M122 579h-69q-1 38 17 107q8 32 20 61t20 43l9 13h59q-26 -52 -41 -121q-7 -31 -11 -56.5t-4 -35.5v-11z" />
    <glyph glyph-name="dotbelowcomb" unicode="&#x323;" horiz-adv-x="197" 
d="M132 -180h-66v110h66v-110z" />
    <glyph glyph-name="uni0326" unicode="&#x326;" horiz-adv-x="256" 
d="M106 -232h-58q22 43 37 98q6 22 9.5 43.5t3.5 32.5l1 11h67q-3 -42 -18 -90q-8 -26 -18.5 -49.5t-17.5 -34.5z" />
    <glyph glyph-name="uni0327" unicode="&#x327;" horiz-adv-x="292" 
d="M64 -210v43q20 -5 53 -5q34 0 49.5 9.5t15.5 36.5q0 46 -92 46h-5l41 83h56l-30 -55q88 -7 88 -77q0 -86 -112 -86q-20 0 -36 1.5t-22 2.5z" />
    <glyph glyph-name="uni0328" unicode="&#x328;" horiz-adv-x="236" 
d="M167 -122v-40q-28 -19 -72 -19q-37 0 -56 19.5t-19 51.5q0 33 23 63t47 43l23 14l49 -8q-3 -1 -8.5 -4t-20 -12.5t-25 -20t-19.5 -26.5t-9 -33q0 -20 11 -30.5t28 -10.5q11 0 23 3.5t18 6.5z" />
    <glyph glyph-name="uni0335" unicode="&#x335;" horiz-adv-x="370" 
d="M323 303h-275v47h275v-47z" />
    <glyph glyph-name="uni0336" unicode="&#x336;" horiz-adv-x="797" 
d="M722 301h-646v53h646v-53z" />
    <glyph glyph-name="uni0337" unicode="&#x337;" horiz-adv-x="385" 
d="M344 366l-257 -158l-26 45l256 158z" />
    <glyph glyph-name="uni0338" unicode="&#x338;" horiz-adv-x="350" 
d="M10 107h-58l393 548h58z" />
    <glyph glyph-name="pi" unicode="&#x3c0;" horiz-adv-x="610" 
d="M558 0h-19q-46 0 -74 12.5t-40.5 40.5t-16 56t-3.5 76v307h-213v-492h-59v492h-90v57h511v-57h-90v-307q0 -28 0.5 -42t4.5 -35.5t11.5 -31.5t22 -18t36.5 -8h19v-50z" />
    <glyph glyph-name="Wgrave" unicode="&#x1e80;" horiz-adv-x="950" 
d="M726 0h-71l-183 612l-176 -612h-68l-219 708h75l178 -625l176 625h70l187 -629l174 629h71zM510 760h-61l-87 126h77z" />
    <glyph glyph-name="wgrave" unicode="&#x1e81;" horiz-adv-x="746" 
d="M574 0h-63l-137 452l-131 -452h-64l-173 535h69l137 -461l133 461h62l136 -460l133 460h65zM402 629h-61l-87 138h76z" />
    <glyph glyph-name="Wacute" unicode="&#x1e82;" horiz-adv-x="950" 
d="M726 0h-71l-183 612l-176 -612h-68l-219 708h75l178 -625l176 625h70l187 -629l174 629h71zM508 760h-61l71 126h77z" />
    <glyph glyph-name="wacute" unicode="&#x1e83;" horiz-adv-x="746" 
d="M574 0h-63l-137 452l-131 -452h-64l-173 535h69l137 -461l133 461h62l136 -460l133 460h65zM391 629h-61l71 138h77z" />
    <glyph glyph-name="Wdieresis" unicode="&#x1e84;" horiz-adv-x="950" 
d="M726 0h-71l-183 612l-176 -612h-68l-219 708h75l178 -625l176 625h70l187 -629l174 629h71zM436 760h-67v123h67v-123zM585 760h-67v123h67v-123z" />
    <glyph glyph-name="wdieresis" unicode="&#x1e85;" horiz-adv-x="746" 
d="M574 0h-63l-137 452l-131 -452h-64l-173 535h69l137 -461l133 461h62l136 -460l133 460h65zM332 630h-67v123h67v-123zM483 630h-67v123h67v-123z" />
    <glyph glyph-name="uni1EA0" unicode="&#x1ea0;" horiz-adv-x="628" 
d="M618 0h-72l-71 191h-327l-70 -191h-69l272 708h67zM451 255l-140 376l-139 -376h279zM347 -180h-66v110h66v-110z" />
    <glyph glyph-name="uni1EA1" unicode="&#x1ea1;" horiz-adv-x="576" 
d="M502 1h-57l-11 80q-52 -91 -196 -91q-97 0 -139 38.5t-42 118.5q0 59 25 93q18 24 49 38.5t70.5 19.5t89.5 7t104 0h31q-1 69 -7 104.5t-26 55.5q-29 29 -105 29q-45 0 -76 -11.5t-45.5 -30.5t-20.5 -37.5t-6 -38.5h-60q0 28 7 53t26.5 53t63.5 45t109 17q112 0 158 -43
q28 -26 37.5 -67.5t10.5 -107.5v-61v-130zM426 152v107q-162 0 -204 -7q-84 -14 -98 -73q-4 -16 -4 -34q0 -107 130 -107q69 0 116 30t60 84zM318 -180h-66v110h66v-110z" />
    <glyph glyph-name="uni1EB8" unicode="&#x1eb8;" horiz-adv-x="568" 
d="M542 0h-452v708h447v-61h-379v-249h329v-59h-329v-278h384v-61zM342 -180h-66v110h66v-110z" />
    <glyph glyph-name="uni1EB9" unicode="&#x1eb9;" horiz-adv-x="573" 
d="M445 161h68q0 -18 -5 -38t-20.5 -44.5t-39.5 -44t-66 -32.5t-95 -13q-124 0 -177.5 68t-53.5 208q0 141 53.5 211t177.5 70q117 0 173.5 -65t56.5 -210h-66l-328 1v-8q0 -52 7 -90t24.5 -69.5t50.5 -47.5t82 -16q44 0 77 13t49.5 33t24 38.5t7.5 35.5zM125 321h324
q-8 88 -45.5 131t-116.5 43q-80 0 -117 -45.5t-45 -128.5zM322 -180h-66v110h66v-110z" />
    <glyph glyph-name="uni1EBC" unicode="&#x1ebc;" horiz-adv-x="568" 
d="M542 0h-452v708h447v-61h-379v-249h329v-59h-329v-278h384v-61zM401 865h40q0 -101 -76 -101q-31 0 -55.5 21t-44.5 21q-43 0 -43 -46h-39q0 99 77 99q31 0 55 -20t43 -20q25 0 34 15t9 31z" />
    <glyph glyph-name="uni1EBD" unicode="&#x1ebd;" horiz-adv-x="573" 
d="M445 161h68q0 -18 -5 -38t-20.5 -44.5t-39.5 -44t-66 -32.5t-95 -13q-124 0 -177.5 68t-53.5 208q0 141 53.5 211t177.5 70q117 0 173.5 -65t56.5 -210h-66l-328 1v-8q0 -52 7 -90t24.5 -69.5t50.5 -47.5t82 -16q44 0 77 13t49.5 33t24 38.5t7.5 35.5zM125 321h324
q-8 88 -45.5 131t-116.5 43q-80 0 -117 -45.5t-45 -128.5zM378 730h39q0 -45 -15.5 -71t-60.5 -26q-31 0 -55.5 21.5t-44.5 21.5q-25 0 -34.5 -15.5t-9.5 -31.5h-38q0 95 77 95q31 0 55 -20t43 -20q25 0 34.5 15t9.5 31z" />
    <glyph glyph-name="uni1ECA" unicode="&#x1eca;" horiz-adv-x="248" 
d="M158 0h-68v708h68v-708zM157 -180h-66v110h66v-110z" />
    <glyph glyph-name="uni1ECB" unicode="&#x1ecb;" horiz-adv-x="224" 
d="M145 0h-66v535h66v-535zM146 630h-67v123h67v-123zM145 -193h-66v110h66v-110z" />
    <glyph glyph-name="uni1ECC" unicode="&#x1ecc;" 
d="M60 353q0 186 65.5 279t223.5 93t223.5 -93t65.5 -279q0 -185 -65.5 -277.5t-223.5 -92.5t-223.5 92t-65.5 278zM569 353q0 161 -50.5 236t-170.5 75t-170 -75t-50 -236t50 -235t170 -74t170.5 74t50.5 235zM382 -180h-66v110h66v-110z" />
    <glyph glyph-name="uni1ECD" unicode="&#x1ecd;" horiz-adv-x="582" 
d="M290 -11q-129 0 -181.5 71.5t-52.5 205.5q0 65 11.5 114t37 87.5t72.5 58.5t113 20q129 1 182 -72t53 -208q0 -134 -52.5 -205.5t-182.5 -71.5zM291 43q92 0 129.5 54.5t37.5 168.5t-38 170t-129 56t-129 -56t-38 -170t37.5 -168.5t129.5 -54.5zM323 -180h-66v110h66
v-110z" />
    <glyph glyph-name="uni1EE4" unicode="&#x1ee4;" horiz-adv-x="689" 
d="M542 346v362h70v-362q0 -187 -58 -275t-210 -88t-209.5 88t-57.5 275v362h68v-362q0 -163 42.5 -232.5t156.5 -69.5q113 0 155.5 69.5t42.5 232.5zM378 -180h-66v110h66v-110z" />
    <glyph glyph-name="uni1EE5" unicode="&#x1ee5;" horiz-adv-x="590" 
d="M515 0h-57l-14 114q-20 -43 -68 -84t-121 -41q-97 0 -141.5 50.5t-44.5 173.5l1 322h65v-313q0 -88 28.5 -131t101.5 -43q38 0 70.5 16t53.5 41.5t32 43.5t19 36v350h66v-387zM326 -180h-66v110h66v-110z" />
    <glyph glyph-name="Ygrave" unicode="&#x1ef2;" horiz-adv-x="587" 
d="M333 0h-69v271l-255 437h79l211 -369l202 369h76l-244 -435v-273zM325 760h-61l-87 126h77z" />
    <glyph glyph-name="ygrave" unicode="&#x1ef3;" horiz-adv-x="502" 
d="M216 -219h-61l78 219h-19l-206 535h75l171 -476l169 476h71zM276 629h-61l-87 138h76z" />
    <glyph glyph-name="uni1EF8" unicode="&#x1ef8;" horiz-adv-x="587" 
d="M333 0h-69v271l-255 437h79l211 -369l202 369h76l-244 -435v-273zM381 865h40q0 -101 -76 -101q-31 0 -55.5 21t-44.5 21q-43 0 -43 -46h-39q0 99 77 99q31 0 55 -20t43 -20q25 0 34 15t9 31z" />
    <glyph glyph-name="uni1EF9" unicode="&#x1ef9;" horiz-adv-x="502" 
d="M216 -219h-61l78 219h-19l-206 535h75l171 -476l169 476h71zM338 730h39q0 -45 -15.5 -71t-60.5 -26q-31 0 -55.5 21.5t-44.5 21.5q-25 0 -34.5 -15.5t-9.5 -31.5h-38q0 95 77 95q31 0 55 -20t43 -20q25 0 34.5 15t9.5 31z" />
    <glyph glyph-name="uni2009" unicode="&#x2009;" horiz-adv-x="66" 
 />
    <glyph glyph-name="endash" unicode="&#x2013;" horiz-adv-x="530" 
d="M469 293h-408v54h408v-54z" />
    <glyph glyph-name="emdash" unicode="&#x2014;" horiz-adv-x="881" 
d="M820 293h-759v54h759v-54z" />
    <glyph glyph-name="uni2016" unicode="&#x2016;" horiz-adv-x="401" 
d="M145 -180h-59v1000h59v-1000zM315 -180h-59v1000h59v-1000z" />
    <glyph glyph-name="quoteleft" unicode="&#x2018;" horiz-adv-x="157" 
d="M88 536h-69q-1 39 17 107q8 32 20 61t20 42l9 14h59q-26 -52 -41 -121q-7 -31 -11 -56.5t-4 -36.5v-10z" />
    <glyph glyph-name="quoteright" unicode="&#x2019;" horiz-adv-x="151" 
d="M73 536h-60q26 52 42 121q7 31 10.5 56.5t3.5 36.5v10h70q0 -38 -17 -107q-8 -32 -20.5 -61t-20.5 -42z" />
    <glyph glyph-name="quotesinglbase" unicode="&#x201a;" horiz-adv-x="180" 
d="M73 -104h-60q26 51 42 120q7 31 10.5 56.5t3.5 35.5v11h70q0 -38 -17 -106q-8 -32 -20.5 -61t-20.5 -42z" />
    <glyph glyph-name="quotedblleft" unicode="&#x201c;" horiz-adv-x="294" 
d="M232 536h-69q-1 39 17 107q8 32 20 61t20 42l9 14h59q-26 -52 -41 -121q-7 -31 -11 -56.5t-4 -36.5v-10zM94 536h-69q-1 39 17 107q8 32 20 61t20 42l9 14h59q-26 -52 -41 -121q-7 -31 -11 -56.5t-4 -36.5v-10z" />
    <glyph glyph-name="quotedblright" unicode="&#x201d;" horiz-adv-x="293" 
d="M204 536h-60q26 52 42 121q7 31 10.5 56.5t3.5 36.5v10h70q0 -38 -17 -107q-8 -32 -20.5 -61t-20.5 -42zM66 536h-60q26 52 42 121q7 31 10.5 56.5t3.5 36.5v10h70q0 -38 -17 -107q-8 -32 -20.5 -61t-20.5 -42z" />
    <glyph glyph-name="quotedblbase" unicode="&#x201e;" horiz-adv-x="292" 
d="M204 -118h-60q26 52 42 120q7 31 10.5 56.5t3.5 35.5v11h70q0 -38 -17 -106q-8 -32 -20.5 -61t-20.5 -42zM66 -118h-60q26 52 42 120q7 31 10.5 56.5t3.5 35.5v11h70q0 -38 -17 -106q-8 -32 -20.5 -61t-20.5 -42z" />
    <glyph glyph-name="dagger" unicode="&#x2020;" horiz-adv-x="505" 
d="M282 0h-59v515h-163v56h163v200h59v-200h163v-56h-163v-515z" />
    <glyph glyph-name="daggerdbl" unicode="&#x2021;" horiz-adv-x="505" 
d="M282 0h-59v200h-163v56h163v259h-163v56h163v200h59v-200h163v-56h-163v-259h163v-56h-163v-200z" />
    <glyph glyph-name="bullet" unicode="&#x2022;" horiz-adv-x="390" 
d="M245 233h-100v127h100v-127z" />
    <glyph glyph-name="ellipsis" unicode="&#x2026;" horiz-adv-x="520" 
d="M140 0h-69v119h69v-119zM295 0h-69v119h69v-119zM449 0h-69v119h69v-119z" />
    <glyph glyph-name="perthousand" unicode="&#x2030;" horiz-adv-x="1085" 
d="M167 0h-61l460 702h61zM191 370q-155 0 -155 168q0 173 155 173q83 0 118.5 -44.5t35.5 -128.5q0 -81 -35.5 -124.5t-118.5 -43.5zM191 414q54 0 77 30.5t23 93.5q0 64 -23 96.5t-77 32.5q-100 0 -100 -129q0 -63 23.5 -93.5t76.5 -30.5zM539 -9q-155 0 -155 168
q0 173 155 173q83 0 118.5 -44.5t35.5 -128.5q0 -81 -35.5 -124.5t-118.5 -43.5zM539 35q54 0 77 30.5t23 93.5q0 64 -23 96.5t-77 32.5q-100 0 -100 -129q0 -63 23.5 -93.5t76.5 -30.5zM889 -9q-155 0 -155 168q0 173 155 173q83 0 118.5 -44.5t35.5 -128.5
q0 -81 -35.5 -124.5t-118.5 -43.5zM889 35q54 0 77 30.5t23 93.5q0 64 -23 96.5t-77 32.5q-100 0 -100 -129q0 -63 23.5 -93.5t76.5 -30.5z" />
    <glyph glyph-name="guilsinglleft" unicode="&#x2039;" horiz-adv-x="293" 
d="M242 102h-72l-117 149v22l117 156h72l-126 -168z" />
    <glyph glyph-name="guilsinglright" unicode="&#x203a;" horiz-adv-x="293" 
d="M123 102h-72l126 159l-126 168h72l117 -156v-22z" />
    <glyph glyph-name="fraction" unicode="&#x2044;" horiz-adv-x="237" 
d="M-103 -40h-62l511 825h63z" />
    <glyph glyph-name="uni2070" unicode="&#x2070;" horiz-adv-x="424" 
d="M35 573q0 126 40 184.5t137 58.5q98 0 137.5 -58.5t39.5 -184.5q0 -123 -39.5 -180t-137.5 -57q-97 0 -137 57t-40 180zM327 573q0 103 -27 146t-89 43q-61 0 -87.5 -43.5t-26.5 -145.5q0 -99 26.5 -141t87.5 -42q62 0 89 41.5t27 141.5z" />
    <glyph glyph-name="uni2074" unicode="&#x2074;" horiz-adv-x="365" 
d="M301 344h-62v97h-236v48l232 319h66v-319h54v-48h-54v-97zM239 489l1 250l-180 -250h179z" />
    <glyph glyph-name="uni2075" unicode="&#x2075;" horiz-adv-x="383" 
d="M330 761l-206 2l-24 -143q40 33 105 33q72 0 111.5 -42t39.5 -112q0 -71 -42 -113.5t-125 -42.5t-126 38.5t-43 90.5h62q0 -32 28.5 -56.5t78.5 -24.5q51 0 78.5 28.5t27.5 79.5t-28.5 80.5t-77.5 29.5q-32 0 -56.5 -11.5t-31.5 -20t-10 -14.5l-57 1l32 200l7 46h257v-49
z" />
    <glyph glyph-name="uni2076" unicode="&#x2076;" horiz-adv-x="415" 
d="M362 688h-59q0 32 -24 56.5t-70 24.5q-52 0 -78.5 -39t-32.5 -140q44 58 126 58q80 0 118 -42t38 -114q0 -71 -42 -113.5t-130 -42.5q-90 -1 -131.5 51.5t-41.5 162.5q0 144 41.5 205.5t132.5 61.5q78 0 115.5 -39t37.5 -90zM97 533q2 -79 29.5 -114t82.5 -35
q54 0 81.5 28.5t27.5 81.5t-27 81.5t-77 28.5q-80 0 -117 -71z" />
    <glyph glyph-name="uni2077" unicode="&#x2077;" horiz-adv-x="316" 
d="M140 344h-68q0 63 18 129t43.5 114.5t51.5 88.5t44 60l18 21l-245 -2v51h311v-51q-7 -8 -18.5 -22.5t-41.5 -59.5t-53 -91t-41.5 -112t-18.5 -126z" />
    <glyph glyph-name="uni2078" unicode="&#x2078;" horiz-adv-x="413" 
d="M289 593q28 -3 59 -34t31 -87q0 -136 -172 -136t-172 136q0 57 30.5 87.5t59.5 33.5q-22 2 -48 27t-26 69q0 128 156 128q155 0 155 -128q0 -44 -25.5 -69t-47.5 -27zM315 478q0 93 -109 93q-108 0 -108 -93q0 -94 108 -94q109 0 109 94zM303 685q0 89 -96 89
q-97 0 -97 -89q0 -75 97 -75q96 0 96 75z" />
    <glyph glyph-name="uni2079" unicode="&#x2079;" horiz-adv-x="415" 
d="M40 464h61q0 -31 26.5 -55.5t77.5 -24.5q54 0 79.5 33.5t31.5 130.5q-42 -56 -125 -56q-156 0 -156 167q0 72 42 115t129 43q91 0 132.5 -53t41.5 -171q0 -143 -40 -200t-135 -57q-84 0 -124.5 39.5t-40.5 88.5zM318 606q-2 89 -29.5 126t-82.5 37q-109 0 -109 -112
q0 -122 104 -122q80 0 117 71z" />
    <glyph glyph-name="Euro" unicode="&#x20ac;" horiz-adv-x="611" 
d="M491 186h61q-5 -78 -58 -130.5t-151 -52.5q-208 0 -240 239h-73v45h69q-2 20 -2 63q0 35 1 52h-68v45h72q29 252 241 252q101 0 155 -56.5t57 -139.5h-62q-4 58 -44.5 96.5t-105.5 38.5q-150 0 -175 -191h200v-45h-204q-1 -17 -1 -52q0 -23 2 -63h203v-45h-198
q28 -178 173 -178q61 0 102 35t46 87z" />
    <glyph glyph-name="uni20BD" unicode="&#x20bd;" horiz-adv-x="614" 
d="M191 -1h-68v177h-93v53h93v84h-93v58l93 -1v341h192q136 0 199 -45t63 -156q0 -109 -63 -153t-200 -44h-123v-84h176v-53h-176v-177zM191 370h123q46 0 77.5 5t60 19t42.5 43t14 74q0 44 -14 73t-42.5 42.5t-60 18.5t-77.5 5h-123v-280z" />
    <glyph glyph-name="uni2116" unicode="&#x2116;" horiz-adv-x="1192" 
d="M911 123q-107 0 -149 57.5t-42 168.5t42 169.5t149 58.5q108 1 150 -57.5t42 -170.5t-42 -169t-150 -57zM628 -2h-59v2l-15 -2l-403 618l5 -616h-66l3 708h58v-3l17 3l400 -614l-6 614h66v-710zM911 175q71 0 100 43t29 131q0 87 -29.5 131.5t-99.5 44.5t-99 -44.5
t-29 -131.5q0 -88 29.5 -131t98.5 -43zM1110 0h-391v53h391v-53z" />
    <glyph glyph-name="uni2117" unicode="&#x2117;" horiz-adv-x="795" 
d="M397 -12q-74 0 -132.5 19t-96.5 52t-62.5 79.5t-35 98t-10.5 111.5q0 61 10.5 113t35.5 99t62.5 80.5t96 53t132.5 19.5q93 0 161 -29t105.5 -81.5t54.5 -115t17 -139.5q0 -76 -17 -138t-54.5 -113.5t-105.5 -80t-161 -28.5zM397 28q80 0 138.5 26t90.5 72t47 101t15 121
q0 67 -15 122.5t-47 102.5t-90.5 73.5t-138.5 26.5t-138 -26.5t-90 -73.5t-47 -102.5t-15 -122.5q0 -66 14.5 -121t47 -101t90.5 -72t138 -26zM320 142h-61v408h150q84 0 121.5 -29.5t37.5 -108.5t-37.5 -107.5t-122.5 -28.5h-88v-134zM320 325h88q23 0 37.5 2.5t30 10.5
t23 26.5t7.5 47.5q0 55 -25.5 71.5t-72.5 16.5h-88v-175z" />
    <glyph glyph-name="uni2120" unicode="&#x2120;" horiz-adv-x="704" 
d="M663 377h-40l2 291l-111 -292h-41l-107 293l2 -292h-37v342h56l110 -297l111 297h56zM268 630h-38q0 26 -19.5 46t-63.5 20q-41 0 -61.5 -17t-20.5 -40q0 -29 22 -44t53 -21t62 -14t53 -31.5t22 -65.5q0 -45 -33.5 -69.5t-95.5 -24.5q-66 0 -97 27t-31 84h38
q0 -35 22.5 -56t66.5 -21q41 0 65 17.5t24 41.5q0 32 -21.5 48.5t-52.5 23t-62.5 13.5t-53 29.5t-21.5 63.5q0 91 121 91q122 0 122 -101z" />
    <glyph glyph-name="trademark" unicode="&#x2122;" horiz-adv-x="664" 
d="M623 377h-39l2 291l-112 -292h-40l-108 293l2 -292h-37v342h58l108 -297l112 297h55zM142 377h-38l2 309h-106v36h251v-36h-107z" />
    <glyph glyph-name="oneeighth" unicode="&#x215b;" horiz-adv-x="773" 
d="M138 334h-59v369l-78 -37v47l96 43h41v-422zM82 -40h-62l511 825h63zM660 225q25 -2 53.5 -30t28.5 -78q0 -123 -156 -123q-157 0 -157 123q0 50 28.5 78t53.5 30q-20 2 -43.5 24.5t-23.5 62.5q0 116 142 116q140 0 140 -116q0 -40 -23.5 -62.5t-42.5 -24.5zM682 123
q0 82 -97 82t-97 -82q0 -85 97 -85t97 85zM671 308q0 79 -86 79q-87 0 -87 -79q0 -67 87 -67q86 0 86 67z" />
    <glyph glyph-name="threeeighths" unicode="&#x215c;" horiz-adv-x="928" 
d="M307 705l-124 -105q132 -13 132 -135q0 -62 -38 -99.5t-114 -37.5q-73 0 -110.5 35.5t-37.5 89.5h59q0 -32 23.5 -54.5t64.5 -22.5q93 0 93 92q0 44 -25.5 70t-74.5 26l-52 -6v37h2l130 108l-200 -3v49h272v-44zM237 -40h-62l511 825h63zM815 225q25 -2 53.5 -30
t28.5 -78q0 -123 -156 -123q-157 0 -157 123q0 50 28.5 78t53.5 30q-20 2 -43.5 24.5t-23.5 62.5q0 116 142 116q140 0 140 -116q0 -40 -23.5 -62.5t-42.5 -24.5zM837 123q0 82 -97 82t-97 -82q0 -85 97 -85t97 85zM826 308q0 79 -86 79q-87 0 -87 -79q0 -67 87 -67
q86 0 86 67z" />
    <glyph glyph-name="fiveeighths" unicode="&#x215d;" horiz-adv-x="936" 
d="M300 708l-186 2l-21 -125q33 29 94 29q65 0 101 -38.5t36 -101.5q0 -64 -38 -102.5t-115 -38.5q-75 0 -114 34.5t-39 82.5h59q0 -28 25 -49.5t69 -21.5q46 0 70 25t24 70q0 46 -25 71.5t-69 25.5q-29 0 -50.5 -10t-28.5 -20l-7 -10l-55 1l29 179l6 43h235v-46zM245 -40
h-62l511 825h63zM823 225q25 -2 53.5 -30t28.5 -78q0 -123 -156 -123q-157 0 -157 123q0 50 28.5 78t53.5 30q-20 2 -43.5 24.5t-23.5 62.5q0 116 142 116q140 0 140 -116q0 -40 -23.5 -62.5t-42.5 -24.5zM845 123q0 82 -97 82t-97 -82q0 -85 97 -85t97 85zM834 308
q0 79 -86 79q-87 0 -87 -79q0 -67 87 -67q86 0 86 67z" />
    <glyph glyph-name="seveneighths" unicode="&#x215e;" horiz-adv-x="831" 
d="M129 334h-64q0 57 16 116t39 102.5t46 79.5t39 54l16 19l-219 -2v48h283v-48q-6 -7 -16.5 -20t-37.5 -54t-47.5 -82t-37.5 -100t-17 -113zM140 -40h-62l511 825h63zM718 225q25 -2 53.5 -30t28.5 -78q0 -123 -156 -123q-157 0 -157 123q0 50 28.5 78t53.5 30
q-20 2 -43.5 24.5t-23.5 62.5q0 116 142 116q140 0 140 -116q0 -40 -23.5 -62.5t-42.5 -24.5zM740 123q0 82 -97 82t-97 -82q0 -85 97 -85t97 85zM729 308q0 79 -86 79q-87 0 -87 -79q0 -67 87 -67q86 0 86 67z" />
    <glyph glyph-name="arrowleft" unicode="&#x2190;" horiz-adv-x="707" 
d="M664 262l-500 3l210 -161l-36 -43l-295 233l295 236l36 -42l-210 -162l499 3z" />
    <glyph glyph-name="arrowup" unicode="&#x2191;" horiz-adv-x="555" 
d="M311 -5h-67l3 500l-161 -209l-43 36l233 294l236 -294l-43 -36l-162 209z" />
    <glyph glyph-name="arrowright" unicode="&#x2192;" horiz-adv-x="706" 
d="M664 306l-295 -236l-36 43l209 161l-498 -3l-1 68l499 -4l-209 162l36 43z" />
    <glyph glyph-name="arrowdown" unicode="&#x2193;" horiz-adv-x="555" 
d="M280 -15l-237 295l43 36l160 -209l-2 499l67 1l-4 -501l162 210l44 -36z" />
    <glyph glyph-name="arrowboth" unicode="&#x2194;" horiz-adv-x="977" 
d="M935 267h-1l-295 -233l-36 44l206 159l-644 2l209 -161l-36 -44l-295 233l295 237l36 -42l-211 -163l649 2l-208 161l36 42z" />
    <glyph glyph-name="arrowupdn" unicode="&#x2195;" horiz-adv-x="555" 
d="M276 -171l-1 1v-1v2l-232 293l44 36l158 -206l2 643l-160 -207l-44 36l232 293v2v-1l1 1v-2l236 -293l-42 -36l-163 210l2 -649l161 209l42 -36l-236 -293v-2z" />
    <glyph glyph-name="uni2196" unicode="&#x2196;" horiz-adv-x="550" 
d="M470 41l-351 355l34 -261l-56 -5l-44 373l377 -41l-5 -55l-264 34l356 -352z" />
    <glyph glyph-name="uni2197" unicode="&#x2197;" horiz-adv-x="547" 
d="M454 129l-56 5l34 262l-351 -355l-48 47l356 351l-264 -34l-4 56l373 43l-2 -3l3 3z" />
    <glyph glyph-name="uni2198" unicode="&#x2198;" horiz-adv-x="549" 
d="M497 48l-3 2l2 -2l-376 41l5 56l263 -35l-355 352l47 48l351 -356l-34 262l56 5z" />
    <glyph glyph-name="uni2199" unicode="&#x2199;" horiz-adv-x="547" 
d="M426 89l-373 -44l41 377l55 -5l-35 -264l352 357l48 -48l-356 -350l263 33z" />
    <glyph glyph-name="minus" unicode="&#x2212;" horiz-adv-x="413" 
d="M377 288h-341v57h341v-57z" />
    <glyph glyph-name="infinity" unicode="&#x221e;" horiz-adv-x="737" 
d="M368 263q-37 -54 -75.5 -83.5t-97.5 -29.5q-83 0 -121 41.5t-38 112.5t38 112.5t121 41.5q59 0 97.5 -29.5t75.5 -83.5q36 54 75.5 83.5t98.5 29.5q83 0 121 -41.5t38 -112.5t-38 -112.5t-121 -41.5q-59 0 -98.5 29.5t-75.5 83.5zM341 304q-34 52 -66.5 79t-79.5 27
q-105 0 -105 -106t105 -106q47 0 79.5 27t66.5 79zM396 304q34 -52 66.5 -79t79.5 -27q104 0 104 106t-104 106q-47 0 -79.5 -27t-66.5 -79z" />
    <glyph glyph-name="approxequal" unicode="&#x2248;" horiz-adv-x="475" 
d="M394 285h45q0 -42 -24.5 -76t-86.5 -34q-47 0 -96 27.5t-86 27.5q-32 0 -48.5 -19.5t-16.5 -35.5h-45q0 42 24.5 76t85.5 34q47 0 96 -27.5t86 -27.5q32 0 49 19.5t17 35.5zM394 435h45q0 -42 -24.5 -76t-86.5 -34q-47 0 -96 27.5t-86 27.5q-32 0 -48.5 -19.5
t-16.5 -35.5h-45q0 42 24.5 76t85.5 34q47 0 96 -27.5t86 -27.5q32 0 49 19.5t17 35.5z" />
    <glyph glyph-name="notequal" unicode="&#x2260;" horiz-adv-x="465" 
d="M423 202h-229l-55 -96h-53l55 96h-98v56h131l55 95h-186v57h219l51 89h53l-52 -89h109v-57h-142l-54 -95h196v-56z" />
    <glyph glyph-name="lessequal" unicode="&#x2264;" horiz-adv-x="494" 
d="M439 194l-386 147v54l386 135v-61l-328 -102l328 -112v-61zM436 100h-380v57h380v-57z" />
    <glyph glyph-name="greaterequal" unicode="&#x2265;" horiz-adv-x="494" 
d="M442 341l-386 -147v61l327 112l-327 102v61l386 -135v-54zM439 100h-380v57h380v-57z" />
    <glyph glyph-name="i.loclTRK" horiz-adv-x="224" 
d="M144 0h-66v535h66v-535zM146 630h-67v123h67v-123z" />
    <glyph glyph-name="f_i" horiz-adv-x="504" 
d="M159 0h-66v481h-73v54h73v28q0 50 5.5 82.5t21 62.5t49 44.5t84.5 14.5h50v-55h-43q-58 0 -79.5 -34.5t-21.5 -114.5v-28h128v-54h-128v-481zM423 0h-66v535h66v-535zM426 630h-67v135h67v-135z" />
    <glyph glyph-name="f_l" horiz-adv-x="505" 
d="M159 0h-66v481h-73v54h73v28q0 50 5.5 82.5t21 62.5t49 44.5t84.5 14.5h50v-55h-43q-58 0 -79.5 -34.5t-21.5 -114.5v-28h128v-54h-128v-481zM419 0h-66v760h66v-760z" />
    <glyph glyph-name="zero.subs" horiz-adv-x="384" 
d="M31 108q0 114 36.5 166.5t124.5 52.5q89 0 125 -52.5t36 -166.5q0 -111 -36 -162.5t-125 -51.5q-88 0 -124.5 51.5t-36.5 162.5zM294 108q0 92 -23.5 130.5t-78.5 38.5q-54 0 -77.5 -39t-23.5 -130q0 -88 23.5 -125.5t77.5 -37.5q55 0 78.5 37t23.5 126z" />
    <glyph glyph-name="one.subs" horiz-adv-x="185" 
d="M138 -99h-59v369l-78 -37v47l96 43h41v-422z" />
    <glyph glyph-name="two.subs" horiz-adv-x="331" 
d="M304 -96h-286v49q59 47 122 102q64 57 81 79q23 32 23 65q0 37 -22.5 58t-61.5 21t-61 -22t-22 -61h-60q0 63 36.5 98t106.5 35q69 0 105.5 -33.5t36.5 -90.5q0 -48 -24.5 -84t-74.5 -82l-103 -89q188 4 204 4v-49z" />
    <glyph glyph-name="three.subs" horiz-adv-x="340" 
d="M307 272l-124 -105q132 -13 132 -135q0 -62 -38 -99.5t-114 -37.5q-73 0 -110.5 35.5t-37.5 89.5h59q0 -32 23.5 -54.5t64.5 -22.5q93 0 93 92q0 45 -25.5 70.5t-74.5 25.5l-52 -6v37h2l130 108l-200 -3v49h272v-44z" />
    <glyph glyph-name="four.subs" horiz-adv-x="332" 
d="M275 -99h-59v86h-213v47l209 286h63v-286h49v-47h-49v-86zM216 34l1 222l-160 -222h159z" />
    <glyph glyph-name="five.subs" horiz-adv-x="348" 
d="M300 275l-186 2l-21 -125q33 29 94 29q65 0 101 -38.5t36 -101.5q0 -65 -38 -103t-115 -38q-75 0 -114 34.5t-39 82.5h59q0 -28 25 -49.5t69 -21.5q46 0 70 25t24 70q0 46 -25 71.5t-69 25.5q-29 0 -50.5 -10t-28.5 -20l-7 -10l-55 1l29 179l6 43h235v-46z" />
    <glyph glyph-name="six.subs" horiz-adv-x="377" 
d="M329 211h-57q0 29 -21 51t-62 22q-46 0 -68.5 -34t-28.5 -124q41 49 112 49q72 0 106.5 -37.5t34.5 -102.5q0 -64 -38 -102.5t-118 -38.5q-83 -1 -120.5 46.5t-37.5 146.5q0 131 37 186.5t121 55.5q72 0 106 -36t34 -82zM91 72q2 -70 26 -101t72 -31q97 0 97 97
q0 47 -24 72t-69 25q-70 0 -102 -62z" />
    <glyph glyph-name="seven.subs" horiz-adv-x="287" 
d="M129 -99h-64q0 57 16 116t39 102.5t46 79.5t39 55l16 18l-219 -2v48h283v-48q-6 -7 -16.5 -20t-37.5 -54t-47.5 -82t-37.5 -100t-17 -113z" />
    <glyph glyph-name="eight.subs" horiz-adv-x="375" 
d="M263 126q25 -3 53 -31t28 -78q0 -123 -156 -123q-157 0 -157 123q0 51 27.5 78.5t52.5 30.5q-18 1 -41.5 24t-23.5 63q0 116 142 116q141 0 141 -116q0 -40 -23.5 -63t-42.5 -24zM283 23q0 83 -95 83q-96 0 -96 -83q0 -84 96 -84q95 0 95 84zM273 208q0 80 -85 80
q-86 0 -86 -80q0 -65 86 -65q85 0 85 65z" />
    <glyph glyph-name="nine.subs" horiz-adv-x="377" 
d="M36 10h58q0 -28 23 -49t69 -21q48 0 70 29.5t28 114.5q-39 -49 -112 -49q-141 0 -141 150q0 66 38 104.5t117 39.5q83 0 121 -48.5t38 -154.5q0 -130 -36 -181t-123 -51q-77 0 -113.5 36t-36.5 80zM286 139q-2 79 -26.5 111.5t-73.5 32.5q-95 0 -95 -99q0 -108 91 -108
q69 0 104 63z" />
    <glyph glyph-name="zero.tf" horiz-adv-x="657" 
d="M76 347q0 194 57 280.5t202 86.5t201.5 -86.5t56.5 -280.5q0 -188 -56.5 -273t-201.5 -85t-202 84.5t-57 273.5zM525 347q0 167 -44 237t-146 70t-146 -70t-44 -237q0 -162 44 -229.5t146 -67.5t146 67.5t44 229.5z" />
    <glyph glyph-name="one.tf" horiz-adv-x="657" 
d="M511 0h-322v59h129v579l-139 -67v64l150 73h57v-649h125v-59z" />
    <glyph glyph-name="two.tf" horiz-adv-x="657" 
d="M553 4h-447v65l28 24q28 24 80 70.5t98 90.5q93 89 119 124q49 65 49 134q0 71 -39.5 107t-111.5 36q-74 0 -114.5 -36t-40.5 -107h-69q0 98 58.5 150.5t165.5 52.5q105 0 162.5 -51.5t57.5 -150.5q0 -81 -39.5 -140.5t-126.5 -143.5q-43 -42 -90.5 -83.5t-73.5 -62.5
l-26 -21q333 1 360 1v-59z" />
    <glyph glyph-name="three.tf" horiz-adv-x="657" 
d="M543 639l-231 -187q121 -1 185 -62t64 -168q0 -111 -60.5 -171t-183.5 -60q-112 0 -171.5 56.5t-59.5 144.5h64q0 -58 43.5 -99t123.5 -41q88 0 131 44.5t43 125.5q0 79 -47 124t-138 45q-18 0 -39.5 -2.5t-34.5 -4.5l-12 -2v60l237 196l-337 -3v59h423v-55z" />
    <glyph glyph-name="four.tf" horiz-adv-x="657" 
d="M479 0h-67v154h-352v61l349 486h70v-486h86v-61h-86v-154zM413 215l1 395l-280 -395h279z" />
    <glyph glyph-name="five.tf" horiz-adv-x="657" 
d="M82 184h64q0 -53 46 -92.5t130 -39.5q86 0 131 45.5t45 127.5t-46.5 129t-129.5 47q-34 0 -63 -7.5t-45.5 -18.5t-28 -22.5t-15.5 -18.5l-5 -8l-62 1l50 308l8 59h368v-59h-314l-37 -227q59 54 159 54q109 0 169.5 -62t60.5 -175t-60.5 -173.5t-184.5 -60.5
q-118 0 -179 55t-61 138z" />
    <glyph glyph-name="six.tf" horiz-adv-x="657" 
d="M557 525h-70q0 50 -38.5 90t-113.5 40q-86 0 -127.5 -61.5t-50.5 -223.5q67 94 199 94q118 0 172 -65t54 -175q0 -109 -59.5 -171.5t-187.5 -63.5q-132 0 -190.5 78t-58.5 244q0 218 58 311.5t191 93.5q60 0 105.5 -18t69.5 -47t35.5 -60.5t11.5 -65.5zM155 289
q4 -129 47.5 -184t132.5 -55q178 0 178 174q0 179 -168 179q-131 0 -190 -114z" />
    <glyph glyph-name="seven.tf" horiz-adv-x="657" 
d="M290 0h-68q0 98 27.5 200t67 176.5t79.5 135.5t68 92l27 32h-384v61h459v-61q-11 -12 -29.5 -34t-66.5 -91t-84 -140t-66 -173t-30 -198z" />
    <glyph glyph-name="eight.tf" horiz-adv-x="657" 
d="M448 377q16 -1 37 -11.5t44 -30t39 -56.5t16 -84q0 -205 -249 -205q-250 0 -250 205q0 47 15.5 83.5t38.5 56.5t44.5 30.5t38.5 11.5q-34 4 -74 41t-40 106q0 193 227 193q226 0 226 -193q0 -69 -39.5 -106t-73.5 -41zM516 199q0 146 -180 146q-181 0 -181 -146
q0 -148 181 -148q180 0 180 148zM493 519q0 138 -157 138q-158 0 -158 -138q0 -116 158 -116q157 0 157 116z" />
    <glyph glyph-name="nine.tf" horiz-adv-x="657" 
d="M95 179h70q0 -50 42 -89.5t126 -39.5q59 0 94 21t56 78.5t27 163.5q-67 -95 -198 -95q-116 0 -171 70t-55 188q0 112 60.5 176t186.5 64q132 1 190.5 -79t58.5 -258q0 -215 -56.5 -302.5t-192.5 -87.5q-65 0 -114 18.5t-74.5 48t-37.5 60.5t-12 63zM513 386
q-1 150 -44.5 209.5t-135.5 59.5q-178 0 -178 -179q0 -95 42 -146t126 -51q132 0 190 107z" />
    <glyph glyph-name="zero.dnom" horiz-adv-x="384" 
d="M32 207q0 114 36.5 166.5t124.5 52.5q89 0 124.5 -52t35.5 -167q0 -111 -35.5 -162.5t-124.5 -51.5q-88 0 -124.5 51.5t-36.5 162.5zM295 207q0 92 -23.5 130.5t-79.5 38.5q-54 0 -77.5 -39t-23.5 -130q0 -88 23.5 -125t77.5 -37q56 0 79.5 36.5t23.5 125.5z" />
    <glyph glyph-name="one.dnom" horiz-adv-x="185" 
d="M137 0h-58v369l-78 -37v47l96 43h40v-422z" />
    <glyph glyph-name="two.dnom" horiz-adv-x="330" 
d="M304 3h-286v49q59 47 123 102q64 57 79 78q24 32 24 66q0 37 -22.5 58t-61.5 21t-61.5 -21.5t-22.5 -60.5h-59q0 62 36.5 97t106.5 35q69 0 105 -34t36 -91q0 -33 -15 -64t-32.5 -50.5t-50.5 -50.5l-104 -89q189 4 205 4v-49z" />
    <glyph glyph-name="three.dnom" horiz-adv-x="340" 
d="M307 371l-124 -105q132 -13 132 -135q0 -62 -38 -99.5t-114 -37.5q-73 0 -110.5 35.5t-37.5 89.5h58q0 -32 23.5 -54.5t65.5 -22.5q93 0 93 92q0 45 -25.5 70.5t-74.5 25.5l-52 -5v37h2l130 107l-200 -3v49h271v-44h1z" />
    <glyph glyph-name="four.dnom" horiz-adv-x="332" 
d="M274 0h-58v86h-213v47l209 286h62v-286h49v-47h-49v-86zM216 133l1 223l-161 -223h160z" />
    <glyph glyph-name="five.dnom" horiz-adv-x="348" 
d="M300 368l-186 2l-20 -125q33 29 93 29q65 0 101 -38.5t36 -101.5q0 -64 -38 -102t-115 -38q-75 0 -114 34.5t-39 81.5h59q0 -28 25 -49.5t69 -21.5q46 0 70.5 25t24.5 70q0 46 -25.5 72t-69.5 26q-28 0 -49.5 -10.5t-27.5 -18t-9 -13.5l-54 2l29 179h-1l6 44h235v-47z
" />
    <glyph glyph-name="six.dnom" horiz-adv-x="377" 
d="M330 310h-56q0 28 -21.5 50.5t-62.5 22.5q-46 0 -69 -34.5t-29 -124.5q38 50 112 50q72 0 107 -38t35 -102t-38 -102.5t-119 -38.5q-83 0 -120 47t-37 147q0 130 37 185t121 55q71 0 105.5 -35.5t34.5 -81.5zM91 169q2 -69 26.5 -99.5t72.5 -30.5q97 0 97 97q0 47 -24 72
t-69 25q-71 0 -103 -64z" />
    <glyph glyph-name="seven.dnom" horiz-adv-x="287" 
d="M129 0h-64q0 57 16 116t39.5 103t46.5 79.5t39 53.5l16 19l-220 -2v48h283v-48q-6 -7 -16.5 -20t-37.5 -54t-47.5 -82t-37.5 -100t-17 -113z" />
    <glyph glyph-name="eight.dnom" horiz-adv-x="376" 
d="M263 225q25 -2 53.5 -30t28.5 -78q0 -123 -156 -123q-157 0 -157 123q0 50 28.5 78t53.5 30q-20 2 -43.5 24.5t-23.5 62.5q0 116 142 116q140 0 140 -116q0 -40 -23.5 -62.5t-42.5 -24.5zM285 123q0 82 -97 82t-97 -82q0 -85 97 -85t97 85zM274 308q0 79 -86 79
q-87 0 -87 -79q0 -67 87 -67q86 0 86 67z" />
    <glyph glyph-name="nine.dnom" horiz-adv-x="377" 
d="M37 109h57q0 -28 23 -49t69 -21q49 0 71.5 29.5t27.5 114.5q-39 -49 -112 -49q-141 0 -141 151q0 65 38 103.5t117 38.5q83 1 121 -47t38 -155q0 -130 -36.5 -181t-123.5 -51q-76 0 -112.5 36t-36.5 80zM287 238q-2 78 -26.5 111t-73.5 33q-96 0 -96 -99q0 -108 92 -108
q71 0 104 63z" />
    <glyph glyph-name="zero.numr" horiz-adv-x="384" 
d="M31 541q0 114 36.5 166.5t124.5 52.5q89 0 125 -52.5t36 -166.5q0 -111 -36 -162.5t-125 -51.5q-88 0 -124.5 51.5t-36.5 162.5zM294 541q0 92 -23.5 130.5t-78.5 38.5q-54 0 -77.5 -39t-23.5 -130q0 -88 23.5 -125.5t77.5 -37.5q55 0 78.5 37t23.5 126z" />
    <glyph glyph-name="one.numr" horiz-adv-x="185" 
d="M138 334h-59v369l-78 -37v47l96 43h41v-422z" />
    <glyph glyph-name="two.numr" horiz-adv-x="331" 
d="M304 337h-286v49q59 47 122 102q64 57 81 79q23 32 23 65q0 37 -22.5 58t-61.5 21t-61 -22t-22 -61h-60q0 63 36.5 98t106.5 35q69 0 105.5 -33.5t36.5 -90.5q0 -48 -24.5 -84t-74.5 -82l-103 -89q188 4 204 4v-49z" />
    <glyph glyph-name="three.numr" horiz-adv-x="340" 
d="M307 705l-124 -105q132 -13 132 -135q0 -62 -38 -99.5t-114 -37.5q-73 0 -110.5 35.5t-37.5 89.5h59q0 -32 23.5 -54.5t64.5 -22.5q93 0 93 92q0 44 -25.5 70t-74.5 26l-52 -6v37h2l130 108l-200 -3v49h272v-44z" />
    <glyph glyph-name="four.numr" horiz-adv-x="332" 
d="M275 334h-59v86h-213v47l209 286h63v-286h49v-47h-49v-86zM216 467l1 222l-160 -222h159z" />
    <glyph glyph-name="five.numr" horiz-adv-x="348" 
d="M300 708l-186 2l-21 -125q33 29 94 29q65 0 101 -38.5t36 -101.5q0 -64 -38 -102.5t-115 -38.5q-75 0 -114 34.5t-39 82.5h59q0 -28 25 -49.5t69 -21.5q46 0 70 25t24 70q0 46 -25 71.5t-69 25.5q-29 0 -50.5 -10t-28.5 -20l-7 -10l-55 1l29 179l6 43h235v-46z" />
    <glyph glyph-name="six.numr" horiz-adv-x="377" 
d="M329 644h-57q0 29 -21 51t-62 22q-46 0 -68.5 -34t-28.5 -124q41 49 112 49q72 0 106.5 -37.5t34.5 -102.5q0 -64 -38 -102.5t-118 -38.5q-83 -1 -120.5 46.5t-37.5 146.5q0 131 37 186.5t121 55.5q72 0 106 -36t34 -82zM91 505q2 -70 26 -101t72 -31q97 0 97 97
q0 47 -24 72t-69 25q-70 0 -102 -62z" />
    <glyph glyph-name="seven.numr" horiz-adv-x="287" 
d="M129 334h-64q0 57 16 116t39 102.5t46 79.5t39 54l16 19l-219 -2v48h283v-48q-6 -7 -16.5 -20t-37.5 -54t-47.5 -82t-37.5 -100t-17 -113z" />
    <glyph glyph-name="eight.numr" horiz-adv-x="375" 
d="M263 559q25 -3 53 -31t28 -78q0 -123 -156 -123q-157 0 -157 123q0 50 27.5 78t52.5 31q-18 1 -41.5 24t-23.5 63q0 116 142 116q141 0 141 -116q0 -40 -23.5 -63t-42.5 -24zM283 456q0 83 -95 83q-96 0 -96 -83q0 -84 96 -84q95 0 95 84zM273 641q0 80 -85 80
q-86 0 -86 -80q0 -65 86 -65q85 0 85 65z" />
    <glyph glyph-name="nine.numr" horiz-adv-x="377" 
d="M36 443h58q0 -28 23 -49t69 -21q48 0 70 29.5t28 114.5q-39 -49 -112 -49q-141 0 -141 150q0 66 38 104.5t117 39.5q83 0 121 -48.5t38 -154.5q0 -130 -36 -181t-123 -51q-77 0 -113.5 36t-36.5 80zM286 572q-2 79 -26.5 111.5t-73.5 32.5q-95 0 -95 -99q0 -108 91 -108
q69 0 104 63z" />
    <glyph glyph-name="exclamdown.case" horiz-adv-x="238" 
d="M152 0h-66l4 543h58zM152 603h-66v105h66v-105z" />
    <glyph glyph-name="questiondown.case" horiz-adv-x="454" 
d="M280 603h-66v105h66v-105zM373 199h67q0 -212 -194 -212q-191 0 -191 190q0 44 12 79t30 55.5t39 42t39 39.5t30 48t12 67v35h62l-1 -35q0 -53 -16 -91t-39 -60.5t-46 -43.5t-39 -53t-16 -76q0 -137 125 -137q126 0 126 152z" />
    <glyph glyph-name="braceleft.case" horiz-adv-x="353" 
d="M343 -23v-61q-90 0 -133.5 17t-56 49.5t-12.5 101.5q0 11 -0.5 72t-0.5 99q0 32 -16.5 44t-70.5 12v56q54 0 70.5 11.5t16.5 43.5v175q0 68 13 100t56 48t134 16v-61q-88 0 -112.5 -22.5t-24.5 -92.5q0 -12 -0.5 -68.5t-0.5 -94.5q0 -30 -12.5 -50.5t-21 -25.5t-16.5 -8
q51 -20 51 -83q0 -6 0.5 -71t0.5 -93q0 -70 24 -92t112 -22z" />
    <glyph glyph-name="braceright.case" horiz-adv-x="353" 
d="M10 -84v61q88 0 112 22t24 92q0 28 0.5 93t0.5 71q0 29 12.5 49.5t21.5 26t17 7.5q-6 1 -15.5 6.5t-22 26.5t-12.5 51q0 33 -0.5 91.5t-0.5 71.5q0 70 -24.5 92.5t-112.5 22.5v61q91 0 134 -16t56 -48t13 -100v-175q0 -32 16.5 -43.5t70.5 -11.5v-56q-54 0 -70.5 -12
t-16.5 -44q0 -33 -0.5 -96t-0.5 -75q0 -69 -12.5 -101.5t-56 -49.5t-133.5 -17z" />
    <glyph glyph-name="bracketleft.case" horiz-adv-x="305" 
d="M295 -75h-215v835h215v-61h-149v-713h149v-61z" />
    <glyph glyph-name="bracketright.case" horiz-adv-x="305" 
d="M225 -75h-215v61h149v713h-149v61h215v-835z" />
    <glyph glyph-name="parenleft.case" horiz-adv-x="254" 
d="M252 -86h-68q-4 5 -11 15.5t-24.5 48t-30.5 81.5t-24 118.5t-11 156.5q0 131 20.5 237.5t40.5 147.5l20 41h66l-8 -16q-7 -17 -19.5 -53.5t-24 -84t-20 -120.5t-8.5 -152t10.5 -151.5t25.5 -119.5t30 -82t26 -51z" />
    <glyph glyph-name="parenright.case" horiz-adv-x="254" 
d="M70 -86h-66l10 16q9 16 24 51t29.5 82t25 119.5t10.5 151.5q0 126 -20.5 232.5t-40.5 149.5l-20 44h68q3 -5 8.5 -16t19.5 -49.5t24.5 -83.5t19.5 -120t9 -157t-10.5 -155.5t-25.5 -120t-29.5 -81t-25.5 -49.5z" />
    <glyph glyph-name="guillemotleft.case" horiz-adv-x="435" 
d="M387 168h-72l-117 150v21l117 156h72l-126 -168zM238 168h-72l-117 150v21l117 156h72l-126 -168z" />
    <glyph glyph-name="guillemotright.case" horiz-adv-x="435" 
d="M268 162h-72l126 159l-126 168h72l117 -156v-22zM120 162h-72l126 159l-126 168h72l117 -156v-22z" />
    <glyph glyph-name="guilsinglleft.case" horiz-adv-x="293" 
d="M242 162h-72l-117 149v22l117 156h72l-126 -168z" />
    <glyph glyph-name="guilsinglright.case" horiz-adv-x="293" 
d="M123 162h-72l126 159l-126 168h72l117 -156v-22z" />
    <glyph glyph-name="paragraph.alt" horiz-adv-x="573" 
d="M487 0h-59v700h-84v-700h-59v306q-131 2 -188 51.5t-57 175.5q0 127 58 176t191 51h198v-760z" />
    <glyph glyph-name="registered.alt" horiz-adv-x="435" 
d="M217 330q-101 0 -146.5 55t-45.5 146q0 92 45.5 148.5t146.5 56.5q103 0 148 -56.5t45 -148.5q0 -201 -193 -201zM217 355q163 0 163 176q0 180 -163 180q-162 0 -162 -180q0 -176 162 -176zM311 416l-44 1l-39 89h-15h-40v-89h-38v230h79q53 0 73.5 -14t20.5 -57
q0 -32 -9.5 -47t-33.5 -20zM173 535h40q31 0 44 7t13 34q0 28 -13 35.5t-44 7.5h-40v-84z" />
    <glyph glyph-name="at.case" horiz-adv-x="868" 
d="M618 45v-46q-76 -28 -183 -28q-102 0 -176 29.5t-117 84.5t-62.5 124.5t-19.5 157.5t19.5 159.5t62 129t117 89t176.5 31.5t176 -31.5t116 -89t61.5 -129t19.5 -159.5q0 -136 -33.5 -197t-102.5 -61q-94 0 -113 107q-47 -73 -145 -73q-92 0 -132.5 58t-40.5 167
q0 227 173 227q90 0 140 -82v23l7 51h54v-301q0 -70 14.5 -101.5t49.5 -31.5q19 0 32.5 8.5t25.5 31t18 66t6 108.5q0 79 -17 143t-53.5 115.5t-101.5 80t-154 28.5t-153.5 -28.5t-100.5 -80t-53 -115.5t-17 -143t16 -140.5t52 -111t101 -76t156 -26.5q117 0 182 32z
M554 279v7v163q-15 39 -47 69t-81 30q-122 0 -122 -180q0 -178 122 -178q51 0 83 26t45 63z" />
    <glyph glyph-name="section.sups" horiz-adv-x="283" 
d="M40 447h34q0 -50 66 -50q64 0 64 38q0 23 -25 34.5t-55 14.5t-55 20.5t-25 51.5q0 35 29 57q-27 19 -27 53q0 67 96 67q51 0 73 -18.5t22 -55.5h-35q0 22 -12.5 33t-46.5 11q-59 0 -59 -36q0 -22 25 -33t55 -14t55 -21t25 -52q0 -35 -30 -57q28 -19 28 -54
q0 -69 -102 -69q-52 0 -76 19.5t-24 60.5zM102 600q-20 -18 -20 -44q0 -14 10.5 -23.5t22 -13t34.5 -8.5t34 -8q23 17 23 42q0 15 -11 24.5t-23 13t-35.5 9t-34.5 8.5z" />
    <glyph glyph-name="dagger.sups" horiz-adv-x="260" 
d="M147 371h-34v241h-73v32h73v90h34v-90h73v-32h-73v-241z" />
    <glyph glyph-name="daggerdbl.sups" horiz-adv-x="260" 
d="M147 371h-34v89h-73v32h73v120h-73v32h73v90h34v-90h73v-32h-73v-120h73v-32h-73v-89z" />
    <glyph glyph-name="caroncomb.alt" horiz-adv-x="251" 
d="M117 607h-53l56 153h68z" />
    <glyph glyph-name="uni0308.case" horiz-adv-x="362" 
d="M140 760h-67v123h67v-123zM289 760h-67v123h67v-123z" />
    <glyph glyph-name="uni0307.case" horiz-adv-x="197" 
d="M133 760h-67v123h67v-123z" />
    <glyph glyph-name="gravecomb.case" horiz-adv-x="257" 
d="M201 760h-61l-87 126h77z" />
    <glyph glyph-name="acutecomb.case" horiz-adv-x="257" 
d="M117 760h-61l71 126h77z" />
    <glyph glyph-name="uni030B.case" horiz-adv-x="399" 
d="M117 760h-61l66 126h77zM251 760h-61l79 126h77z" />
    <glyph glyph-name="caroncomb.alt.case" horiz-adv-x="251" 
d="M125 760h-61l61 142h77z" />
    <glyph glyph-name="uni0302.case" horiz-adv-x="369" 
d="M317 760h-63l-69 68l-68 -68h-64l101 115h62z" />
    <glyph glyph-name="uni030C.case" horiz-adv-x="369" 
d="M216 760h-62l-101 115h63l68 -69l69 69h64z" />
    <glyph glyph-name="uni0306.case" horiz-adv-x="331" 
d="M236 865h53q0 -41 -32.5 -73t-91.5 -32t-91.5 32t-32.5 73h54q0 -20 20 -37.5t50 -17.5q31 0 51 17.5t20 37.5z" />
    <glyph glyph-name="uni030A.case" horiz-adv-x="274" 
d="M215 835q0 -33 -20.5 -54t-57.5 -21t-57.5 21t-20.5 54t20.5 54t57.5 21t57.5 -21t20.5 -54zM136 797q17 0 27.5 10t10.5 28q0 17 -10.5 27.5t-27.5 10.5t-27 -10.5t-10 -27.5q0 -18 10 -28t27 -10z" />
    <glyph glyph-name="tildecomb.case" horiz-adv-x="380" 
d="M279 865h40q0 -101 -76 -101q-31 0 -55.5 21t-44.5 21q-43 0 -43 -46h-39q0 99 77 99q31 0 55 -20t43 -20q25 0 34 15t9 31z" />
    <glyph glyph-name="uni0304.case" horiz-adv-x="353" 
d="M293 786h-233v53h233v-53z" />
    <glyph glyph-name="uni0338.case" horiz-adv-x="326" 
d="M-46 17h-63l497 729h63z" />
    <glyph glyph-name="bitcoin" horiz-adv-x="579" 
d="M349 -47h-45v97h-4h-55v-97h-45v97h-93v1h-17v644h110v88h45v-88h57h2v88h45v-90q87 -9 121.5 -49.5t34.5 -111.5q0 -57 -18 -92t-66 -52q59 -19 81 -58.5t22 -102.5q0 -87 -34 -128t-141 -48v-98zM159 106h141q93 0 124.5 27t31.5 101q0 66 -35 96t-121 30h-141v-254z
M159 412h141q80 0 109 26t29 87q0 60 -32 87t-106 27h-141v-227z" />
    </font>
</defs>
</svg>
